<?xml version="1.0" encoding="utf-8"?>
<!-- Generator: Adobe Illustrator 20.0.0, SVG Export Plug-In . SVG Version: 6.00 Build 0)  -->
<svg version="1.1" id="Layer_1" xmlns="http://www.w3.org/2000/svg" xmlns:xlink="http://www.w3.org/1999/xlink" x="0px" y="0px"
	 viewBox="0 0 153.4 38.4" style="enable-background:new 0 0 153.4 38.4;" xml:space="preserve">
<style type="text/css">
	.st0{fill:#E14D4D;}
</style>
<g>
	<g>
		<g>
			<g>
				<g>
					<path class="st0" d="M153.4,3.4c0.1-0.1,0.1-0.5-0.2-0.5l-0.1,0.7L153.4,3.4z"/>
					<path class="st0" d="M151.9,2.2c-0.2,0.3-0.6,0.9-0.5,1.5c0.2-0.7,0.3-0.4,0.7-1.1c0.2,0,0.4,0.2,0.3,0.4
						c0.1-0.1,0.3,0.1,0.5-0.2c-0.2-0.6-0.7-0.6-1.1-0.1C151.8,2.6,151.9,2.4,151.9,2.2z"/>
					<path class="st0" d="M130.1,1.7l0.1,0.1C130.2,1.6,130.1,1.7,130.1,1.7z"/>
					<path class="st0" d="M116.6,2.2c0.1,0,0.2-0.1,0.2-0.1C116.7,2.1,116.6,2.1,116.6,2.2z"/>
					<path class="st0" d="M114.2,1.7c0,0,0.1,0,0.1,0.1C114.3,1.6,114.3,1.5,114.2,1.7z"/>
					<path class="st0" d="M130.1,1.7l-0.4-0.2C129.7,1.7,129.9,1.6,130.1,1.7z"/>
					<path class="st0" d="M148.9,3.8c0.1,0,0.2-0.1,0.2-0.1C149,3.7,149,3.7,148.9,3.8C148.9,3.7,148.9,3.8,148.9,3.8z"/>
					<path class="st0" d="M136,0.9L136,0.9c0.1-0.1,0.2-0.1,0.1-0.2L136,0.9z"/>
					<path class="st0" d="M140.6,0.7c-0.1,0-0.2,0.6-0.2,0.8c0-0.2,0.1-0.3,0.2-0.4C140.7,1,140.6,0.9,140.6,0.7z"/>
					<path class="st0" d="M147.8,1.5L147.8,1.5C147.9,1.5,147.9,1.5,147.8,1.5z"/>
					<path class="st0" d="M132.8,0.9c0-0.1,0-0.2,0-0.2C132.7,0.7,132.8,0.8,132.8,0.9z"/>
					<path class="st0" d="M9.6,30.9L9.6,30.9L9.6,30.9z"/>
					<path class="st0" d="M3.7,30.3L3.7,30.3c0.1-0.1,0-0.3-0.1-0.4L3.7,30.3z"/>
					<path class="st0" d="M109.9,1.3C110,1.3,110,1.3,109.9,1.3C110.1,1.3,110,1.3,109.9,1.3z"/>
					<path class="st0" d="M71.6,7.5c0.5,0.4-0.5,0.8,0.2,1.2C71.7,8.5,72.3,7.8,71.6,7.5z"/>
					<path class="st0" d="M148.8,3.7c-0.1,0-0.1,0-0.2,0C148.7,3.8,148.7,3.8,148.8,3.7z"/>
					<path class="st0" d="M71.8,8.7L71.8,8.7L71.8,8.7L71.8,8.7z"/>
					<path class="st0" d="M100.3,2.7c0,0.1,0,0.2,0.2,0.3C100.4,2.9,100.4,2.9,100.3,2.7z"/>
					<path class="st0" d="M107.6,2.7h-0.2C107.5,2.7,107.6,2.7,107.6,2.7z"/>
					<path class="st0" d="M96.7,4.1c-0.1-0.1-0.1-0.1-0.3,0v0.1C96.5,4,96.5,3.9,96.7,4.1z"/>
					<path class="st0" d="M92.8,4.5c0,0,0,0.1,0.1,0.1H93L92.8,4.5z"/>
					<path class="st0" d="M20.6,26.5c-0.1-0.1-0.3-0.2-0.3-0.4C20.5,26.5,19.9,26.8,20.6,26.5z"/>
					<path class="st0" d="M148.9,3.5c-0.1,0.1,0,0.2-0.1,0.2h0.1C148.9,3.6,149,3.6,148.9,3.5z"/>
					<path class="st0" d="M97.1,8.4l-0.6,0.1C96.7,8.5,96.9,8.4,97.1,8.4z"/>
					<path class="st0" d="M47.1,18.1h-0.2C47,18.2,47,18.2,47.1,18.1z"/>
					<path class="st0" d="M94.7,8.8c-0.1-0.2-0.3-0.2-0.4-0.3l-0.1,0.1L94.7,8.8z"/>
					<path class="st0" d="M20.3,26.1L20.3,26.1L20.3,26.1z"/>
					<path class="st0" d="M16.9,28.8c0.6-0.1,0-0.7,0-1.2c0.6-0.5,0.5,0.4,0.9,0.7c0.3-0.3,0.5-1,0.7-1.2c0,0.1,0.1,0.2,0.1,0.3
						c0.2-0.7,1.3-0.5,1.5-1.4c0,0.1,0.1,0.1,0.1,0.2c-0.3-0.2-0.4-0.6-0.4-0.9c0.3-0.1,0.3-0.6,0.6-0.1c-0.2,0-0.1,0.2-0.1,0.4
						l0.2-0.3c0.5,0.6-0.3,0.4-0.1,0.8c0.4-0.4,0.8-1.1,1.3-1.1c0.3,0.7-0.8,0.5-0.1,0.9h-0.7c0.8,0.8-0.4,0.1,0.5,1
						c0.9-0.1,0.8-0.6,1.7-0.7c0.1-0.4-0.2-0.6-0.2-0.9c0.9-1,1.5,1.3,2,0.2c0.1-0.5-0.1-1.3,0.7-1.1v0.8c0.8-0.2,0.1-1.2,1.1-1
						c0,0.3-0.5,0.4-0.4,0.5c0.7,0.4,0.3-0.6,0.7-0.7l0.3,0.7c0.8-0.4,1.6-1.1,2.4-1.5c0,0.2-0.1,0.4,0.1,0.6c0.9-0.9,2.3-1,3.6-1
						l0.2-0.7c0.1,0,0.3,0.2,0.2,0.4c0.5,0.1-0.1-0.4,0-0.6c0.3-0.2,0.5,0.2,0.3,0.4c0.7-0.7,1.8-1.7,2.9-1.3l-0.1,0.2
						c0.7,0,0.4-1.3,1.1-1v0.1c1.4-0.1,2.8-1.1,4.1-0.6c0-0.9,1.4-0.1,1.3-1.1c0.9,0.4,0.8,0.6,2,0.6c0.3-0.1,0.2-0.8,0.6-1.1
						l0.1,0.6l0.3-0.8l0.5,0.6l0.3-0.2c-0.1,0-0.4-0.2-0.4-0.3c0.5-0.4,1.5,0,1.5,0.3l1.1-0.9c0,0.2-0.1,0.3-0.3,0.6
						c0.5-0.8,0.2,0.6,0.8-0.1c-0.1-0.1-0.1-0.4,0-0.5c0.4,0.3,1.2,0.1,1.6-0.2v0.4c1-0.1,2-0.7,3-1c-0.4-0.1-0.5-0.8-0.2-1l0.3,0.7
						c0.1-0.4-0.3-0.1-0.1-0.7c0.4,0,0.5,0.6,0.2,1l0.4-0.3c0,0.2,0,0.3,0,0.5c0.1-0.4,1,0.5,1.1-0.4v0.2c1.1-0.3,1.5-0.6,2.3-0.9
						c-0.1-0.6,0.3-0.5,0.4-1c0.7,0,1.5,0.3,2.3,0c0.5-0.4,0.1-0.5,0.2-0.9c0.1,0.5,0.9,0.3,0.6,0.7c0.8-0.3,1.1-0.4,2.2-1.1
						c-0.1-0.2-0.4-0.2-0.3-0.4c0.2-0.1,0.5,0.1,0.6,0.4v0.2c1.2-1,3.4,0.8,4.2-0.5h-0.1l1-0.8c0.5,0-0.2,0.5,0.2,0.7
						c1.1-1,1.9-0.2,2.7-1c1,1.3,2.6-0.7,3.8,0.1l-0.1-0.4c0.2-0.4,0.3,0.1,0.6,0.2c-0.1-0.3-0.4-0.2-0.2-0.5c2.2-0.9,4.7-0.4,7-0.4
						c0.8,0,0.1-1.9,1.3-1.3l-0.2,0.9c1.6-1.1,3.5-0.6,5-1.5c-0.1,0.1,0,0.3-0.2,0.4c0.4,0.4,1.3-0.1,1.2-0.5C91,9,90.8,9.4,91,9.5
						c0.4,0.2,0.7-0.7,1.1-0.3c0,0.1-0.1,0.1-0.1,0.2c0.2-0.3,1.1-0.1,0.8-0.6c0.7,0.1,1.1-0.4,1.7-0.2c0.2-0.7,1.1,0.1,1-0.8
						c0.1,0.9,1.2,0.5,1.6,0.1c-0.1,0.3,0.4,0.2,0.3,0.7c0.4-0.1,0.8-0.3,0.7-0.7c1,1,1.6-1.1,2.2,0.3c1.3-0.6,2.5-1.1,3.6-1.5
						c0,0.9-1.3,0.2-1.1,1.2c1.1-0.5,1.6-1.3,2.8-1.3c0.3,0.1-0.1,0.4-0.2,0.6c1.1-0.5,2.2-0.2,3.2-0.7c0,0.1,0,0.2-0.1,0.2
						c0.2,0,0.4,0.1,0.4-0.3l-0.2,0.1c-0.3-0.5,0.7-1.3,0.7-1.6c-0.2,1.2,1.1,0.1,0.6,1.7c0.1-0.1,0.2-0.3,0.2-0.6
						c0.2,0,0.3,0.2,0.1,0.6c0.7-0.3,0.4-0.7,1-0.8c0,0.2-0.1,0.3-0.2,0.6c0.3-0.4,0.6-0.9,1.2-0.7c-0.1,0.1,0.1,0.3-0.1,0.2
						c0.9-0.1,1.5-1.2,2.5-1c-0.2,0.9,0.4,0.2,0.5,1l0.6-0.2l-0.3-0.3c0.5,0,0.9-0.6,1.3-0.4l-0.3,0.3l0.9-0.2l-0.6-0.3
						c0.5-0.4-0.1-0.9,0.5-0.8c-0.1,0.1,0.5,0,0.8,0.4l0,0c0.2-0.3,0.5-0.5,0.8-0.4c0.2,0.3,0,0.8,0.1,1c0.1-0.7,1.2-0.3,1.4-1
						c-0.1,0.1-0.1,0.5,0,0.6l0.2-0.6c0.2,0.1,0.3,0.2,0.2,0.6c0.7,0-0.2-1,0.6-0.6c-0.1,0-0.1,0.1-0.1,0.2c0.8,0.1,1.6-0.4,2.3-0.3
						c0.3,0.8-0.7,0.3-0.3,0.8c1.1-0.3,2.2-1.1,3.3-0.9h-0.2c0-1,0.9,0.5,1.3,0c-0.1,0.1-0.2,0.6-0.1,0.4c0.8,0.1,1.5-0.4,2.5-0.7
						L130,3.7c0.5,0.2,1.2,0.1,1.6,0.2c0.1-0.2,0.4-0.2,0.2-0.7c1.5,1.5,2.6-1,3.9,0.4c-0.1,0-0.3,0.3-0.2,0.3l1.1-0.3
						c-0.1-0.5-0.2-0.3-0.4-0.6c0.1-0.2,0.4-0.5,0.7-0.5c-0.4,0.3,0,0.7,0.2,1c0-0.1,0-0.3,0-0.4c0.6,0.8,0.1-0.9,0.8-0.4v0.2
						c0.3-0.2,0.5-0.4,0.8-0.4c0.1,0.5-0.2,0.3-0.3,0.7c0.4,0,0.9-1,1.2-0.5c-0.2,0.1-0.5,0.1-0.6,0.4c0.5,0.6,0.5,0.5,0.8,0.5l0,0
						l0.7,0.2l-0.1-0.2c0.5-1.4,1.1-0.3,1.8-1.2c-0.7,0.9-0.1,0.5-0.1,1.1c0.1,0.2,0.5,0.4,0.4,0.5c0.3-0.5,0.6,0.4,1-0.4
						c0,0.2,0.4,0,0.3,0.5c0.5-0.2-0.1-0.4-0.1-0.6c0.7-0.7,1.7,0.8,2.5-0.1c0.8-0.4,1-1.1,1.8-1.4c0.3,0.3-0.2,0.7-0.2,0.7
						c0.4,0.3,0.8,0.2,1.1,0c-0.1,0.1,0,0.3,0.1,0.5c0.3-0.1,0.2-0.7,0.6-0.5c0,0.2-0.2,0.6-0.3,0.8c0.4-0.2,0.8-0.5,1.2-0.7
						c0.1,0.4-0.3,0.5-0.4,0.7c0.5-0.1,1.2-0.3,1.3-0.9l-0.3-0.2c0.2,0,0.1,0.5-0.1,0.5c-0.4,0.4-0.6-0.2-0.6-0.4l0.3-0.2
						c-0.3-1.2-1.1,0.2-1.7,0.1l0.2-0.8l-0.6,0.7c-0.1-0.2-0.2-0.7,0.1-0.8c-0.4-0.4-0.3,0.3-0.8-0.1c0-0.1,0-0.1,0-0.1l-0.4,0.2
						c0-0.2-0.1-0.6,0.2-0.5c-0.7-0.4-1.2,0.6-1.5,0h0.1c-1,0.2,0,0.6-0.8,1.3L145,0.8v0.6c-0.1,0-0.3,0-0.3-0.3
						c-0.4,0.4,0.1,0.3-0.1,0.7c-0.5-0.6-1.4,0.2-1.5-0.7c-0.2,0.5,0.5,0.4,0,0.7c-0.2-1.1-0.6,0.1-1.1-0.2c0.2-0.6,0.6-0.2,0.1-0.8
						c-0.3,0.9-0.9-0.2-1.2,0c0,0.7-0.8,0.3-1.5,0.6c0-0.2-1.2-0.4-1.8-0.6V0.7c-0.1,0.8-0.7,0.6-1.1,0.8c0-0.4,0-0.6,0.3-0.8h-0.4
						c0,0.2-0.2,0.4-0.5,0.4l0.1-0.5c-0.6,0.1-1.1,0.7-1.9,0.4c0,0.5,0.7,1.4-0.2,1.8c-0.1-0.3-0.1-0.7,0.1-0.8
						c-0.1,0-0.2,0.3-0.4,0.1l0.3-0.5c-0.4-0.2-0.1,0.3-0.4,0.4c0-0.4-0.2-0.3-0.1-0.6c0.1,0,0.2,0.1,0.3,0c-0.3,0-0.7-0.2-0.8-0.5
						c0,0.2,0,0.5-0.2,0.6c-0.6,0.1-0.2-0.5-0.6-0.7c-0.1,0.2-0.5,0-0.5,0.6c-0.2,0-0.2-0.3-0.3-0.4c-0.2,0.3-1.3,0.1-0.9,0.8
						l0.1,0.1c0,0,0,0-0.1,0l0,0l0,0c-0.9,0.6-2-0.2-2.9,0V1.7c-0.6,0.2-1.3,0.2-1.6,0.6c-0.2,0-0.4-0.3-0.3-0.5
						c-0.4,0.2-0.4,0.4-1.1,0.1c0.4-0.4-0.2-0.3,0.4-0.3c-0.6-0.2-0.7-0.4-1.3,0.1c0.2-0.6-0.5-0.6-0.7-0.4l0.4,0.3
						c-0.3,0.1-0.6,0.1-0.8,0l0.1-0.7c-1.2-0.7-2,1.5-2.9,0.2c-0.3,0.5,0.7,0.2,0.4,0.8c-0.5-0.1-1.2-0.9-1.3-0.9
						c-0.7-0.3-0.6,1-1.3,0.9c0.2,0.3,0.2,0.9-0.3,1.1c-0.5-0.1-0.8-0.9-0.4-1.1c0.1,0,0.2,0,0.2,0.1c0.2-0.1,0.4-0.2,0.2-0.5v0.2
						c-0.3-0.2-1-0.2-0.9-0.5c-0.3,0.3-0.1,0.4,0.1,0.5c-0.7-0.3-1,0.1-1.8-0.1c0.1,0.1,0.2,0.4,0.1,0.4c-1.1-0.1-0.4,0.5-1.1,0.7
						c-0.4-0.3,0.1-0.8-0.6-0.5c-0.5-0.2-0.1-0.6,0-0.8c-0.6,0.6-1.2-0.2-1.6-0.2l0.4-0.2c-0.2,0.1-0.4,0.2-0.5,0.1l0.2,0.5
						c-0.2,0-0.3,0-0.4-0.2c-0.1,0.3,0.2,0.8-0.1,1.3c-0.3-0.2-0.8,0.3-0.9-0.3c0.8,0.1-0.1-0.6,0.5-0.8c-0.1,0.1-0.3,0.1-0.5,0
						c0-0.1,0-0.1,0-0.2c-0.9-0.5-0.3,0.8-1.1,0.8c0.1-0.3-0.3-0.7-0.3-0.5c0.3,0,0.2,0.6-0.1,0.8c-0.6-0.3-0.6,0.2-0.9,0.2l0.3,0.1
						c-0.1,0.3-0.3,0.4-0.7,0.5c-0.1-0.3,0.4-0.2,0.1-0.3c-0.3,0.7-1-0.6-1.5,0c-0.3-0.2-0.1-0.7-0.3-0.8c-0.6,0.6-0.7-0.4-1.3,0
						c0.2,0.5,0.3,0.3-0.2,0.9l1-0.5l-0.5,0.8c0.3-0.1,0.6-0.4,0.8-0.3c-0.3,0.4-0.2,0.3,0,0.6c-0.6-0.7-0.8,0.5-1.4,0.1l-0.1-1.2
						c-0.8-0.4-1.4,0.8-2.3,0.6l0.3,0.1c-0.1,0.4-0.6,0.1-0.9,0.3c0-0.4-0.2-0.6-0.4-0.7c0.1,0.3-0.7,0.1-0.7,0.9l-0.5-0.5
						c-0.8-0.1-0.8,1.2-1.5,1.2c0.2-0.5-0.2-0.7,0.2-1.1c-0.3,0.1-0.5,0-0.5,0.2c-0.2-0.3-0.7,0.6-1,0.2c0,0.2,0,0.6-0.4,0.6
						c0-0.1,0-0.2,0-0.2c0,0.2-0.4,0.3-0.1,0.8c-1-1.1-2.3,0.5-3.1-0.5c-0.6,0.2-1.2,0.4-1.7,0.5c0-0.1,0-0.2,0.1-0.1
						c-0.8-0.1-0.3,1.3-1.2,1c-0.6-0.6,0.4-0.4,0-0.6C89.9,4,89.3,5.6,88.6,5l0.1-0.1c-0.5-0.4-1,0.7-1.6,0.6c0,0,0-0.1,0-0.2
						c-0.3,0.7-1.2,1.1-1.8,1.4c0.1-0.5,0.2-0.3,0-0.8c-0.3,0.2,0.2,0.8-0.4,1c0-0.1-0.5-0.3-0.6-0.9l0.6-0.1
						c-0.4-0.6-0.7,0.2-1,0.1V5.7c-0.9,0.2-0.7,1-1.7,1.1L82.3,7c-0.4,0.8-0.5-0.4-0.8,0.3l-0.3-0.8c-0.2,0.3-1,1-1.5,1.2
						c0.1-0.5,0.7-0.9,1.1-1.4c-0.3,0.1-1.1,0.3-1.2,0.7c0.1-0.1,0.2-0.3,0.4-0.2c-0.2,0.7-0.7,1.1-1.4,1.2
						c-0.2-1.5-1.8-0.1-2.5-1.1c-1,0.8-2.3,0.2-3.7,0.5c0.7,1.1-0.4,0.1-0.1,1.3c-0.3,0.2-0.4,0.1-0.5,0.1l-1.1-0.6
						c-0.3-0.3,0.2-0.4,0.2-0.6c-0.7,0.1-0.4-0.4-0.9-0.7c0.2,0.4-0.1,0.7-0.6,0.6l0.8,0.4c-0.8,0.8-1-0.9-1.9,0l0.2-0.5
						c-0.4,0.3-1.8,0.3-2.1,1.5c-0.1-0.1-0.3-0.4-0.1-0.6c-1.2,0.1-2.4,1.6-3.4,1.3V9.3c-0.2,0.1-0.2,0.7-0.6,0.4
						c0-0.1,0-0.3-0.1-0.3c-0.1,0.1-0.5,0.6-0.8,0.5l0.2-0.4c-1.3-0.1-1.5,1.2-2.5,1.7c-0.2-0.9-1.2-0.9-1.7-0.9v-0.1
						c-1.4,0.2-2.1,1.2-3.2,2c-1-0.8-2.6,0.3-4,0.1c0.2,0.1,0.2,0.7,0,0.8c-0.3-0.1-0.6,0.8-0.8,0h0.1c-0.3-0.8-0.8-0.4-1.3-0.3
						l0.2,1.1c-1.6-1.1-3,1.4-4,0.3c-0.2,0.4-0.6,0.5-0.7,0.7l-0.1-0.6c-0.8,0.1-1.2,0.1-2.2,0.6l0.1-0.4c-0.6,0.1-0.3,1.8-0.7,1.9
						l-0.4-0.7c-1,0.2-2.1-0.1-2.9,0.9c0-0.1-0.1-0.4,0.1-0.4c-0.5,0.1-2,0-1.4,1.1c-0.2-0.8-1,0.2-1.5,0.7l-0.1-0.6
						c-0.2,0.8-0.2,1-0.7,1.4c-0.2-0.1-0.3-0.5-0.1-0.4c-0.6-0.2-0.3,0.6-0.9,0.5l0.1-0.4c-0.5,0.1-0.4,0.3-0.5,0.8
						c-0.2,0.3-1,0.1-1.2-0.3c0,0.3-0.1,0.8-0.4,0.7c-0.1-0.2,0-0.3,0-0.4c-0.9-0.1-1,1-1.8,0.7c0-0.2-0.2-0.3-0.2-0.3
						c0.7-0.2,1.1-0.4,1.2-0.3c-0.1-0.5-0.7-0.4-0.5-1.2c-0.3,0.5-0.7,1.5-1.4,1.5c0,0-0.1-0.1-0.1-0.2l0.1-0.1
						c-0.1,0-0.2,0-0.3,0.2c-0.2,0-0.3,0-0.5,0c-0.2-0.4-0.7,0-0.9,0c0.2,0.6-0.2,0.6,0.3,0.8c0,0,0-0.1,0.2-0.1c0,0,0.1,0,0.1-0.1
						v0.1c0.2,0,0.4-0.2,0.7-0.3c-0.1,0.3-0.2,0.7-0.6,0.5c0,0.4,0,0.8-0.1,0.9c-0.6-0.7-1.4-0.8-1.7-1.2c-0.7,0.6-1.8,0.9-2,2
						c-0.1,0.2-0.4-0.2-0.5-0.3c0.1-0.1,0.3-0.2,0.3-0.4c-0.4,0.4-1.3,0.5-1.2,1.3c-0.7-0.1,0.1-0.8-0.6-0.4v-0.2
						c-1.9-0.6-1.9,2.6-4.1,1.9c0.1,0.1,0.2,0,0.2,0.1c-2.1,0.1-3.8,2-6.1,1.7c-0.9,0.2-0.8,0.6-1,1.1l-0.3-0.5l-0.3,0.9
						c-0.6,0.8-1.9-0.9-2.6,0.4l0.3,0.3c-0.4,0.1-1.1,0.7-1.2,0.2c0,0.1,0,0.4-0.2,0.3v-0.2l-0.7,0.8C4.6,29.3,5.1,28,4,28.3
						c-0.3,0.3-0.7,1.3-0.6,1.5c0.2,0,0.4,0,0.6,0.4l-0.2,0.3c0.3,0.8,0.4,1.9,1.5,2.1l0.3-0.7L6,32.2l-0.5,0.2
						C6,32.7,6,32.3,6.1,31.9c0.1,0.2,0.3,0.3,0.4,0.4l0.2-1.1c0.2,0.3,0,0.7,0.4,0.8c0.1-0.5-0.6-0.7-0.2-1.1
						c0.4,0.3,0.5,0.6,0.7,0.1c0.1,0.2,0.1,0.4,0,0.5c0.2-0.4,0.7-0.4,0.7-0.9c0.5,0.4,0.9-0.5,1.2,0.3c0-0.2,0.3-0.9,0.5-0.9
						c-0.1,1.2,1-0.4,1.3,0.7c0-1,1.1-0.9,1.6-1.7c0,0.1,0,0.2-0.1,0.2c0.4-0.1,0.6,0.2,0.9,0.3c-0.2-0.8,0.2-1.1,0.4-1.7
						c0.8,0.5,0,0.9,0.4,1.6c-0.2-0.6,0.5-0.9,0.2-1.3c0.5,0.3,0.3,0.1,0.8,0.6c-0.2-1,0.2-0.3,0.4-0.9c0.7,0.2,0.4,0.8,0.9,0.3
						C17.2,28.3,16.9,28.8,16.9,28.8z M29.3,22.7L29.3,22.7c-0.1,0-0.2,0.1-0.3,0.2C29.1,22.7,29.1,22.7,29.3,22.7z M30.3,22.3
						c-0.1,0-0.3,0.1-0.5,0.1c-0.1-0.2-0.1-0.4,0-0.4C29.9,22.1,30.1,22.2,30.3,22.3z M26.8,19.4c0.2-0.1,0.2,0,0.3,0
						c-0.1,0-0.2,0-0.3,0.2c0,0,0,0,0,0.1C26.9,19.6,26.8,19.5,26.8,19.4z"/>
					<path class="st0" d="M26.7,20.1C26.7,20.2,26.7,20.2,26.7,20.1c0,0.1,0,0.1,0,0.2C26.8,20.3,26.8,20.2,26.7,20.1
						C26.8,20.1,26.8,20.1,26.7,20.1z"/>
					<path class="st0" d="M130.2,1.7L130.2,1.7L130.2,1.7L130.2,1.7z"/>
					<polygon class="st0" points="45.9,18.8 45.9,18.6 45.8,18.8 					"/>
					<path class="st0" d="M136.8,3.4c0,0.1,0,0.1,0.1,0.2C136.8,3.5,136.8,3.5,136.8,3.4z"/>
					<path class="st0" d="M139.4,3.4l0.4,0.2C139.7,3.6,139.6,3.5,139.4,3.4z"/>
					<path class="st0" d="M141.6,3.7c0-0.1,0-0.2,0-0.2l0,0V3.7z"/>
					<path class="st0" d="M108.1,6.4L108.1,6.4C107.9,6.6,108,6.5,108.1,6.4z"/>
					<path class="st0" d="M118,4.2c-0.1,0.1-0.1,0.2-0.3,0.3C117.9,4.6,118.1,4.5,118,4.2z"/>
					<path class="st0" d="M97.2,8.5L97.2,8.5L97.2,8.5L97.2,8.5z"/>
					<path class="st0" d="M117.2,4.5c0.2,0,0.3,0,0.5,0C117.5,4.4,117.4,4.4,117.2,4.5z"/>
					<path class="st0" d="M150.8,3.9L150.8,3.9C150.9,3.8,150.9,3.8,150.8,3.9L150.8,3.9z"/>
					<path class="st0" d="M150.9,3.8L150.9,3.8C151,3.7,150.9,3.7,150.9,3.8z"/>
					<path class="st0" d="M151.3,3.6L151,3.8C151.1,3.8,151.2,3.8,151.3,3.6z"/>
					<path class="st0" d="M148,3.7v0.2C148,3.7,148,3.7,148,3.7z"/>
					<path class="st0" d="M147.1,3.7c0.2,0,0.5,0.4,0.8,0.3V3.8C147.8,4.1,147.4,3.3,147.1,3.7z"/>
					<path class="st0" d="M143.5,1.2l0.8,0.1c-0.1-0.2-0.3-0.5,0.1-0.5C143.4,0.2,144.5,1.2,143.5,1.2z"/>
					<path class="st0" d="M141.3,0.9c0.4-0.1,0-0.3,0-0.4C141.1,0.6,141,0.8,141.3,0.9z"/>
					<path class="st0" d="M125.3,1.6V1.1C124.9,1.1,125.3,1.2,125.3,1.6z"/>
					<polygon class="st0" points="122.3,4.4 122.6,4.7 122.8,4.2 					"/>
					<polygon class="st0" points="120.3,0.8 120.4,0.8 120,1 					"/>
					<path class="st0" d="M93.4,4l0.1,0.6C93.8,4.5,93.7,3.8,93.4,4z"/>
					<path class="st0" d="M82,6.4c-0.2-0.3-0.5-0.4-0.7-0.1C81.6,6.3,81.9,6.6,82,6.4z"/>
					<polygon class="st0" points="47.6,13 47.7,12.7 47.4,13 					"/>
				</g>
			</g>
		</g>
	</g>
	<g>
		<g>
			<g>
				<g>
					<path class="st0" d="M0.3,2.6L0.3,1.9C0,1.8,0,2.2,0.1,2.4L0.3,2.6z"/>
					<path class="st0" d="M1.7,1.7c-0.4-0.5-0.9-0.5-1.1,0C0.8,2.1,1,1.9,1.1,2C1,1.8,1.2,1.6,1.4,1.6C1.8,2.3,1.9,2,2,2.7
						c0.1-0.6-0.2-1.2-0.4-1.5C1.6,1.4,1.7,1.6,1.7,1.7z"/>
					<path class="st0" d="M23.3,1.8l0.1-0.1C23.4,1.7,23.3,1.6,23.3,1.8z"/>
					<path class="st0" d="M36.7,2.7c0,0,0.1,0.1,0.2,0.1C36.9,2.8,36.8,2.8,36.7,2.7z"/>
					<path class="st0" d="M39.2,2.6c0-0.1,0.1-0.1,0.1-0.1C39.2,2.3,39.2,2.4,39.2,2.6z"/>
					<path class="st0" d="M23.8,1.6l-0.4,0.2C23.6,1.6,23.8,1.8,23.8,1.6z"/>
					<path class="st0" d="M4.5,3C4.4,2.9,4.4,2.9,4.3,2.9C4.3,2.9,4.4,3,4.5,3C4.5,3,4.5,2.9,4.5,3z"/>
					<path class="st0" d="M17.5,0.5c-0.1,0.1,0,0.1,0.1,0.2l0,0L17.5,0.5z"/>
					<path class="st0" d="M12.9,0.6c0.1,0.1,0.2,0.2,0.2,0.4c0-0.2-0.1-0.8-0.2-0.8C13,0.4,12.8,0.5,12.9,0.6z"/>
					<path class="st0" d="M5.7,0.7L5.7,0.7C5.6,0.7,5.6,0.7,5.7,0.7z"/>
					<path class="st0" d="M20.8,0.6c0,0,0,0.1,0,0.2C20.7,0.7,20.9,0.6,20.8,0.6z"/>
					<path class="st0" d="M142.4,36.5L142.4,36.5L142.4,36.5z"/>
					<path class="st0" d="M148.5,35.8c-0.1,0.1-0.2,0.3-0.1,0.4l0,0L148.5,35.8z"/>
					<path class="st0" d="M43.6,2.3C43.5,2.3,43.5,2.3,43.6,2.3C43.5,2.3,43.4,2.3,43.6,2.3z"/>
					<path class="st0" d="M81.3,11.4c0.7-0.4-0.3-0.8,0.3-1.2C80.9,10.5,81.4,11.2,81.3,11.4z"/>
					<path class="st0" d="M4.8,2.9c-0.1,0-0.1,0-0.2,0C4.7,3,4.7,3,4.8,2.9z"/>
					<path class="st0" d="M81.3,11.4L81.3,11.4L81.3,11.4L81.3,11.4z"/>
					<path class="st0" d="M52.9,4.4c0.2-0.1,0.2-0.2,0.2-0.3C53,4.3,53,4.3,52.9,4.4z"/>
					<path class="st0" d="M46,3.8l-0.2,0C45.8,3.8,45.9,3.8,46,3.8z"/>
					<path class="st0" d="M57,5.8L57,5.8c-0.2-0.2-0.2-0.2-0.3-0.1C56.9,5.5,56.9,5.6,57,5.8z"/>
					<path class="st0" d="M60.3,6.3L60.3,6.3c0.2,0,0.2-0.1,0.2-0.1L60.3,6.3z"/>
					<path class="st0" d="M132,31.2c0,0.2-0.2,0.3-0.3,0.4C132.3,31.9,131.7,31.6,132,31.2z"/>
					<path class="st0" d="M4.5,2.9L4.5,2.9c0,0,0.1-0.1,0-0.2C4.4,2.8,4.5,2.8,4.5,2.9z"/>
					<path class="st0" d="M56.7,10.1L56.1,10C56.3,10,56.5,10.1,56.7,10.1z"/>
					<path class="st0" d="M105.8,22l-0.2,0C105.7,22.1,105.7,22.1,105.8,22z"/>
					<path class="st0" d="M58.9,10.3l-0.1-0.1c-0.1,0.1-0.3,0.1-0.4,0.3L58.9,10.3z"/>
					<path class="st0" d="M132,31.2L132,31.2L132,31.2z"/>
					<path class="st0" d="M135.4,33.4c0.5,0.5,0.2-0.1,0.9-0.3c0.2,0.6,0.6-0.1,0.4,0.9c0.5-0.5,0.3-0.3,0.8-0.6
						c-0.3,0.4,0.4,0.7,0.1,1.3c0.4-0.7-0.3-1.1,0.5-1.6c0.2,0.6,0.6,0.9,0.3,1.7c0.3-0.1,0.5-0.4,0.9-0.3c-0.1,0-0.1-0.1-0.1-0.2
						c0.5,0.8,1.6,0.8,1.5,1.8c0.4-1.1,1.4,0.6,1.3-0.6c0.2,0,0.5,0.7,0.5,0.9c0.3-0.8,0.7,0.1,1.2-0.2c0,0.5,0.5,0.5,0.7,0.9
						c-0.1-0.1-0.1-0.3,0-0.5c0.2,0.5,0.3,0.2,0.7-0.1c0.4,0.4-0.3,0.6-0.3,1.1c0.4-0.1,0.2-0.5,0.4-0.8l0.1,1.1
						c0.1-0.1,0.3-0.2,0.4-0.4c0.1,0.4,0.1,0.8,0.6,0.5l-0.5-0.2l0.4-0.3l0.3,0.7c1.1-0.1,1.3-1.2,1.6-2l-0.2-0.3
						c0.2-0.4,0.4-0.4,0.6-0.4c0.1-0.2-0.2-1.2-0.5-1.5c-1.1-0.4-0.6,1-1.4,0.8l-0.7-0.8l0,0.2c-0.2,0.1-0.2-0.2-0.2-0.3
						c-0.1,0.5-0.8-0.1-1.2-0.3l0.3-0.3c-0.6-1.3-2,0.3-2.6-0.5l-0.3-0.9l-0.3,0.5c-0.2-0.5-0.1-0.9-0.9-1.1c-2.3,0.2-3.9-1.8-6-2
						c0-0.1,0.1,0,0.2-0.1c-2.2,0.6-2.1-2.6-4-2.1l0,0.2c-0.7-0.4,0.1,0.3-0.6,0.4c0.1-0.8-0.8-0.9-1.1-1.4c0,0.2,0.2,0.3,0.3,0.4
						c-0.1,0.1-0.4,0.5-0.5,0.3c-0.1-1.1-1.2-1.5-1.9-2.1c-0.3,0.4-1.1,0.4-1.8,1.1c-0.1-0.1-0.1-0.5-0.1-0.9
						c-0.4,0.2-0.5-0.2-0.6-0.5c0.3,0.1,0.5,0.3,0.7,0.3l0-0.1c0,0.1,0.1,0.1,0.1,0.1c0.2,0,0.2,0.1,0.2,0.1
						c0.5-0.2,0.1-0.2,0.3-0.8c-0.2,0-0.7-0.4-0.9,0c-0.2,0-0.3,0-0.5,0c-0.1-0.2-0.2-0.2-0.3-0.2l0.1,0.1c0,0.1-0.1,0.2-0.1,0.2
						c-0.7,0-1.1-1-1.3-1.6c0.2,0.8-0.4,0.7-0.6,1.2c0.1-0.1,0.5,0.1,1.2,0.4c0,0-0.2,0.1-0.2,0.3c-0.8,0.3-0.9-0.8-1.8-0.8
						c0,0.1,0.1,0.2,0,0.4c-0.3,0.1-0.4-0.4-0.4-0.7c-0.2,0.4-1,0.6-1.2,0.2c-0.1-0.5,0-0.7-0.5-0.8l0.1,0.4
						c-0.6,0.1-0.3-0.7-0.9-0.5c0.2-0.1,0.1,0.3-0.1,0.4c-0.5-0.4-0.5-0.6-0.6-1.4l-0.1,0.6c-0.5-0.5-1.2-1.6-1.5-0.8
						c0.7-1.1-0.9-1-1.3-1.2c0.2,0,0.1,0.3,0.1,0.4c-0.8-1-1.9-0.8-2.9-1l-0.4,0.7c-0.4-0.1,0-1.8-0.6-1.9l0.1,0.4
						c-1-0.5-1.4-0.6-2.2-0.7l-0.1,0.6c-0.1-0.2-0.5-0.3-0.7-0.7c-1,1.1-2.3-1.5-4-0.5l0.3-1.1c-0.5-0.1-1-0.5-1.3,0.2l0.1,0
						c-0.2,0.8-0.5-0.1-0.8,0c-0.2-0.1-0.2-0.7,0-0.8c-1.4,0.1-3-1-4-0.3c-1.1-0.9-1.7-1.9-3.1-2.1l0,0.1c-0.5,0-1.5-0.1-1.7,0.8
						c-1-0.5-1.1-1.9-2.4-1.8l0.2,0.4c-0.3,0.1-0.7-0.4-0.8-0.5c-0.1,0-0.1,0.2-0.1,0.3c-0.4,0.3-0.4-0.3-0.6-0.4l0,0.3
						c-1,0.3-2.1-1.3-3.3-1.5c0.2,0.2,0,0.5-0.1,0.6c-0.2-1.2-1.6-1.3-2-1.6l0.2,0.5c-0.9-0.9-1.1,0.7-1.9-0.1l0.8-0.4
						c-0.5,0.1-0.8-0.2-0.6-0.6c-0.5,0.3-0.2,0.8-0.9,0.7c0,0.2,0.5,0.3,0.2,0.6l-1.1,0.5c-0.1,0-0.2,0.1-0.5-0.1
						c0.4-1.2-0.8-0.2,0-1.3c-1.4-0.4-2.7,0.2-3.7-0.7c-0.7,1-2.3-0.5-2.5,1c-0.7-0.1-1.2-0.6-1.3-1.3c0.2-0.1,0.3,0.1,0.4,0.2
						c-0.1-0.4-0.9-0.6-1.2-0.8c0.4,0.5,1,0.9,1,1.4c-0.5-0.2-1.3-1-1.4-1.3l-0.3,0.8c-0.3-0.7-0.4,0.5-0.8-0.3L71,9
						c-1-0.1-0.8-0.9-1.6-1.2l0,0.3c-0.3,0.1-0.6-0.7-1-0.1L69,8.2c-0.1,0.6-0.6,0.8-0.6,0.9c-0.6-0.2-0.1-0.8-0.4-1
						c-0.2,0.5-0.1,0.3,0,0.8c-0.6-0.3-1.5-0.8-1.7-1.5c0,0.1,0,0.2,0,0.2c-0.6,0.1-1.1-1-1.6-0.7L64.7,7c-0.7,0.6-1.3-1.1-1.6,0.2
						c-0.4,0.2,0.6,0,0,0.6c-0.9,0.3-0.3-1.1-1.2-1.1C62,6.6,62,6.7,62,6.8c-0.5-0.1-1.1-0.4-1.7-0.6c-0.8,1-2.1-0.7-3.1,0.4
						c0.3-0.5-0.1-0.6-0.1-0.8c0,0,0,0.1,0,0.2c-0.4,0-0.4-0.4-0.4-0.6c-0.3,0.4-0.8-0.5-1-0.2c0-0.2-0.2-0.1-0.5-0.2
						c0.4,0.4,0,0.6,0.1,1.1c-0.7,0-0.6-1.3-1.4-1.3l-0.5,0.5c0-0.8-0.8-0.6-0.7-0.9c-0.2,0.1-0.4,0.3-0.4,0.7
						c-0.3-0.2-0.8,0.1-0.9-0.3l0.3-0.1c-0.9,0.2-1.5-1.1-2.3-0.7L49.4,5c-0.6,0.4-0.8-0.8-1.4-0.2c0.2-0.3,0.3-0.2,0-0.6
						c0.2-0.1,0.5,0.2,0.8,0.3l-0.5-0.8l1,0.5c-0.5-0.6-0.4-0.4-0.2-0.9C48.6,3,48.4,4,47.9,3.4c-0.2,0.1,0,0.6-0.3,0.8
						C47,3.5,46.3,4.8,46,4.1c-0.3,0.1,0.2,0,0.1,0.3c-0.4-0.1-0.6-0.2-0.7-0.5l0.3-0.1c-0.3,0-0.3-0.5-0.9-0.2
						c-0.3-0.2-0.4-0.8-0.1-0.8c0-0.2-0.4,0.2-0.3,0.5c-0.8,0-0.1-1.3-1.1-0.9c0,0.1,0,0.1,0,0.2c-0.2,0.1-0.4,0.1-0.5,0
						c0.6,0.2-0.3,0.9,0.5,0.8c-0.1,0.6-0.6,0.1-0.9,0.3c-0.3-0.5,0-1,0-1.3c-0.1,0.2-0.2,0.2-0.4,0.2L42.2,2
						c-0.1,0.1-0.3,0-0.5-0.1l0.4,0.2c-0.4,0-1,0.8-1.6,0.1c0.1,0.2,0.5,0.6,0,0.8c-0.7-0.3-0.2,0.2-0.6,0.5c-0.7-0.2,0-0.8-1.1-0.8
						c-0.1,0,0-0.3,0.1-0.4c-0.8,0.2-1.1-0.3-1.8,0c0.2-0.1,0.4-0.2,0.1-0.5c0.1,0.3-0.6,0.3-0.9,0.5l0-0.2c-0.2,0.3,0,0.4,0.2,0.5
						c0-0.1,0.1-0.1,0.2-0.1c0.4,0.2,0.1,1-0.5,1.1c-0.5-0.2-0.5-0.8-0.2-1.1c-0.7,0.1-0.5-1.2-1.3-1c-0.1,0-0.8,0.8-1.3,0.8
						c-0.3-0.6,0.7-0.3,0.4-0.8c-1,1.3-1.7-1-2.9-0.3L31,2c-0.2,0.1-0.5,0.1-0.8,0l0.4-0.3c-0.2-0.2-0.9-0.2-0.7,0.4
						c-0.6-0.5-0.7-0.3-1.3-0.2c0.6,0,0-0.1,0.4,0.3c-0.7,0.3-0.7,0.1-1.1-0.2c0.1,0.2-0.1,0.5-0.3,0.5c-0.3-0.4-1-0.4-1.6-0.7
						l0,0.2c-0.9-0.2-2,0.5-2.9-0.1l0,0l0,0c-0.1,0-0.1,0-0.1,0l0.1-0.1c0.4-0.7-0.7-0.5-0.9-0.8c-0.1,0.1-0.1,0.4-0.3,0.4
						c0-0.6-0.4-0.4-0.5-0.6c-0.4,0.2,0,0.8-0.6,0.7c-0.2-0.1-0.2-0.4-0.2-0.6c-0.1,0.3-0.5,0.5-0.8,0.5c0.1,0.1,0.2,0,0.3,0
						C20.2,1.6,20,1.5,20,1.9c-0.3-0.1,0-0.6-0.4-0.4L19.9,2c-0.2,0.2-0.3-0.1-0.4-0.1c0.2,0.1,0.2,0.5,0.1,0.8
						c-0.9-0.4-0.1-1.3-0.1-1.8c-0.8,0.3-1.3-0.4-1.9-0.5l0.1,0.5c-0.3,0-0.5-0.2-0.5-0.4l-0.4,0C17,0.6,17,0.8,17,1.2
						c-0.4-0.2-1,0-1.1-0.9l0,0.1c-0.6,0.2-1.8,0.3-1.8,0.5c-0.7-0.3-1.5,0-1.5-0.7c-0.3-0.2-0.9,0.9-1.2-0.1
						c-0.5,0.6-0.1,0.2,0.1,0.8c-0.5,0.3-0.9-0.9-1.1,0.1c-0.5-0.3,0.2-0.2,0-0.7c-0.1,0.9-1,0.1-1.5,0.6C8.7,0.8,9.2,0.9,8.8,0.5
						c0,0.3-0.2,0.3-0.3,0.3l0-0.6L8,1.6C7.2,0.9,8.2,0.5,7.3,0.3l0.1,0C7,0.9,6.6-0.1,5.9,0.2C6.2,0.1,6,0.5,6,0.7L5.6,0.5
						c0,0,0,0,0,0.1C5.1,1,5.3,0.3,4.8,0.7C5.1,0.8,5,1.3,4.9,1.5L4.3,0.7l0.2,0.8C3.9,1.6,3.2,0.2,2.8,1.4l0.3,0.2
						c0,0.2-0.2,0.8-0.6,0.4C2.3,2,2.2,1.5,2.4,1.5L2.1,1.6c0.1,0.6,0.8,0.8,1.3,1C3.3,2.4,2.9,2.3,3,1.9c0.4,0.2,0.8,0.5,1.2,0.8
						C4.1,2.4,3.9,2,3.9,1.8c0.4-0.2,0.3,0.4,0.6,0.5C4.6,2.2,4.7,2,4.6,1.9c0.3,0.2,0.7,0.3,1.1,0.1c0,0-0.5-0.4-0.2-0.7
						c0.8,0.3,1,1,1.7,1.5C8,3.6,9.1,2.2,9.7,2.9c0,0.2-0.6,0.4-0.1,0.6C9.5,3,9.9,3.2,9.9,3c0.4,0.8,0.7-0.1,1,0.4
						c-0.1-0.1,0.3-0.3,0.4-0.5c0-0.6,0.6-0.2,0-1.1c0.7,0.9,1.3-0.1,1.7,1.3l-0.1,0.2l0.7-0.2l0,0c0.3,0,0.3,0.1,0.8-0.5
						c-0.1-0.3-0.4-0.3-0.6-0.4c0.3-0.5,0.8,0.5,1.2,0.6c-0.1-0.4-0.4-0.2-0.3-0.7c0.3,0,0.5,0.2,0.8,0.4l0-0.2
						c0.7-0.5,0.1,1.2,0.8,0.4c0,0.1,0,0.3,0,0.4c0.2-0.3,0.6-0.7,0.2-1c0.3,0,0.6,0.3,0.7,0.5C17,3,16.9,2.8,16.8,3.3l1.1,0.4
						c0.1,0-0.1-0.3-0.2-0.3c1.4-1.3,2.3,1.2,3.9-0.2c-0.2,0.5,0.1,0.5,0.2,0.7c0.4-0.1,1.1,0.1,1.6-0.1l-0.1-0.2
						c1,0.3,1.7,0.9,2.5,0.8c0.1,0.2,0-0.3-0.1-0.4C26.1,4.5,27.1,3,27,4l-0.2,0C27.9,3.8,29,4.7,30.1,5c0.4-0.5-0.6,0-0.3-0.8
						c0.7-0.1,1.5,0.5,2.3,0.4c0-0.1,0-0.2-0.1-0.2c0.8-0.4-0.1,0.6,0.6,0.6c-0.1-0.4,0-0.5,0.2-0.6L33,5.1c0.1-0.1,0.1-0.5,0-0.6
						c0.2,0.7,1.3,0.4,1.4,1.1c0.1-0.2-0.1-0.7,0.1-1c0.3-0.1,0.6,0.1,0.8,0.4l0,0c0.3-0.4,0.9-0.3,0.8-0.4c0.6-0.1,0,0.4,0.5,0.8
						l-0.6,0.3L36.8,6l-0.3-0.3c0.4-0.2,0.8,0.4,1.3,0.5l-0.3,0.3l0.6,0.2c0.1-0.8,0.7-0.1,0.5-1c1-0.2,1.6,1,2.5,1.1
						c-0.2,0.1,0-0.1-0.1-0.2c0.6-0.2,0.9,0.3,1.2,0.8C42.1,7,42,6.9,42,6.7c0.6,0.1,0.3,0.5,1,0.8c-0.2-0.4-0.1-0.6,0.1-0.6
						c0,0.3,0.1,0.5,0.2,0.6c-0.4-1.6,0.8-0.5,0.7-1.7c0,0.3,0.9,1.1,0.6,1.6l-0.2-0.1c0,0.4,0.2,0.3,0.4,0.3
						c-0.1,0-0.1-0.1-0.1-0.2c1,0.5,2.1,0.3,3.2,0.8c-0.1-0.2-0.5-0.5-0.2-0.6c1.2,0.1,1.7,0.9,2.7,1.4c0.2-1-1.1-0.4-1-1.2
						c1.1,0.5,2.3,1,3.5,1.7c0.7-1.4,1.2,0.8,2.2-0.2c-0.1,0.4,0.3,0.6,0.7,0.7c-0.1-0.5,0.4-0.4,0.3-0.7c0.4,0.4,1.5,0.9,1.6,0
						c-0.1,0.9,0.8,0.1,1,0.8c0.6-0.2,1,0.3,1.7,0.3c-0.3,0.5,0.6,0.3,0.8,0.6c0-0.1-0.1-0.1-0.1-0.2c0.4-0.4,0.7,0.5,1.1,0.4
						c0.2-0.1,0-0.5,0.3-0.5c-0.1,0.4,0.8,0.9,1.2,0.6c-0.2-0.1-0.1-0.3-0.2-0.4c1.5,1,3.4,0.6,4.9,1.7l-0.2-0.9
						c1.2-0.5,0.4,1.3,1.2,1.4c2.3,0.1,4.8-0.3,7,0.7c0.2,0.3-0.1,0.2-0.2,0.5c0.3-0.1,0.4-0.6,0.6-0.2l-0.1,0.4
						c1.2-0.7,2.7,1.3,3.8,0.1c0.8,0.8,1.6,0.1,2.7,1.1c0.4-0.2-0.3-0.7,0.2-0.7l1,0.8l-0.1,0c0.7,1.3,3-0.4,4.2,0.7l0-0.2
						c0.1-0.3,0.4-0.5,0.6-0.4c0.1,0.2-0.2,0.2-0.3,0.4c1.1,0.8,1.4,0.9,2.1,1.2c-0.3-0.4,0.5-0.2,0.6-0.7c0.1,0.4-0.3,0.5,0.2,0.9
						c0.8,0.3,1.6,0.1,2.3,0.1c0.1,0.5,0.5,0.4,0.4,1c0.8,0.3,1.2,0.7,2.3,1l0-0.2c0.1,0.9,1,0,1.1,0.5c0-0.2,0-0.3,0-0.5l0.4,0.3
						c-0.3-0.4-0.2-1,0.2-1c0.2,0.6-0.2,0.3-0.1,0.7l0.3-0.7c0.3,0.2,0.2,0.9-0.2,1c1,0.3,2,1,3,1.1l0-0.4c0.4,0.3,1.2,0.6,1.6,0.3
						c0.1,0.1,0.1,0.4,0,0.5c0.6,0.7,0.3-0.7,0.8,0.1c-0.2-0.3-0.3-0.4-0.3-0.6l1.1,0.9c0-0.3,1-0.7,1.5-0.2c0,0.1-0.3,0.3-0.4,0.3
						l0.3,0.2l0.5-0.6l0.3,0.8l0.1-0.6c0.4,0.3,0.3,1,0.5,1.1c1.2,0.1,1.1-0.1,2-0.5c-0.1,1,1.3,0.3,1.2,1.2
						c1.3-0.4,2.7,0.6,4.1,0.8l0-0.1c0.7-0.3,0.4,1,1.1,1l-0.1-0.2c1.1-0.3,2.2,0.7,2.8,1.4c-0.2-0.2,0-0.6,0.3-0.4
						c0.1,0.2-0.5,0.7,0,0.6c-0.1-0.2,0.1-0.4,0.2-0.4l0.2,0.7c1.3,0.1,2.7,0.2,3.5,1.2c0.2-0.2,0.1-0.4,0.1-0.6
						c0.8,0.4,1.5,1.2,2.3,1.6l0.3-0.7c0.4,0.1-0.1,1.1,0.7,0.7c0.1-0.1-0.4-0.2-0.4-0.5c1-0.2,0.3,0.8,1.1,1l0-0.8
						c0.8-0.2,0.6,0.6,0.6,1.1c0.4,1.1,1.2-1.1,2-0.1c0,0.3-0.3,0.5-0.2,0.9c0.9,0.1,0.8,0.6,1.7,0.8c0.9-0.9-0.3-0.2,0.5-1l-0.7,0
						c0.7-0.4-0.4-0.2-0.1-0.9c0.5,0,0.9,0.7,1.2,1.2c0.2-0.4-0.6-0.2-0.1-0.8l0.2,0.3c0-0.2,0.1-0.4-0.1-0.4c0.3-0.5,0.3,0,0.6,0.1
						c0,0.3-0.1,0.7-0.4,0.9c0-0.1,0.1-0.1,0.1-0.2c0.2,0.9,1.3,0.8,1.4,1.5c0-0.1,0.1-0.2,0.1-0.3c0.2,0.2,0.4,0.9,0.6,1.2
						c0.4-0.3,0.4-1.2,0.9-0.7c0,0.5-0.7,1.1-0.1,1.2C135.2,34,135,33.5,135.4,33.4z M123.4,27.6c-0.1-0.1-0.2-0.2-0.3-0.2l0,0
						C123.3,27.4,123.3,27.4,123.4,27.6z M122.7,26.7c0.1,0,0.1,0.2,0,0.4c-0.2,0-0.4-0.1-0.5-0.1C122.3,26.8,122.6,26.8,122.7,26.7
						z M125.8,24.5C125.8,24.4,125.8,24.4,125.8,24.5c-0.1-0.3-0.2-0.3-0.3-0.3c0.1,0,0.1-0.1,0.3,0
						C125.8,24.3,125.7,24.4,125.8,24.5z"/>
					<path class="st0" d="M125.8,24.9c-0.1,0.1-0.1,0.2,0,0.2C125.8,25,125.8,25,125.8,24.9C125.8,25,125.8,25,125.8,24.9
						C125.7,24.9,125.7,24.9,125.8,24.9z"/>
					<path class="st0" d="M23.3,1.7L23.3,1.7L23.3,1.7L23.3,1.7z"/>
					<polygon class="st0" points="106.8,22.7 106.7,22.5 106.7,22.7 					"/>
					<path class="st0" d="M16.5,3.3c0.1-0.1,0.1-0.1,0.1-0.2C16.6,3.2,16.6,3.2,16.5,3.3z"/>
					<path class="st0" d="M13.6,3.2L14,3C13.8,3.1,13.7,3.2,13.6,3.2z"/>
					<path class="st0" d="M11.8,3L11.8,3c0,0,0,0.1,0,0.2L11.8,3z"/>
					<path class="st0" d="M45.2,7.4L45.2,7.4C45.3,7.6,45.4,7.7,45.2,7.4z"/>
					<path class="st0" d="M35.7,5.1c-0.2-0.1-0.2-0.2-0.3-0.3C35.3,5.1,35.5,5.2,35.7,5.1z"/>
					<path class="st0" d="M56,10.1L56,10.1L56,10.1L56,10.1z"/>
					<path class="st0" d="M35.7,5.1c0.2,0,0.3,0,0.5,0C36,5,35.9,5,35.7,5.1z"/>
					<path class="st0" d="M2.6,3C2.5,2.9,2.5,2.9,2.6,3L2.6,3L2.6,3z"/>
					<path class="st0" d="M2.5,2.9L2.5,2.9C2.5,2.8,2.4,2.8,2.5,2.9z"/>
					<path class="st0" d="M2.4,2.9L2.1,2.7C2.2,2.9,2.3,2.9,2.4,2.9z"/>
					<path class="st0" d="M5.4,3.1l0-0.2C5.4,2.9,5.4,2.9,5.4,3.1z"/>
					<path class="st0" d="M5.5,3l0,0.2c0.3,0.1,0.6-0.3,0.8-0.3C6,2.5,5.6,3.3,5.5,3z"/>
					<path class="st0" d="M9.2,0.2c0.4,0,0.2,0.3,0.1,0.5L10,0.6C9,0.6,10.2-0.4,9.2,0.2z"/>
					<path class="st0" d="M12.3,0c0,0.1-0.4,0.3,0,0.4C12.6,0.3,12.5,0.1,12.3,0z"/>
					<path class="st0" d="M28.2,1.4l0,0.5C28.2,1.5,28.6,1.4,28.2,1.4z"/>
					<polygon class="st0" points="30.6,4.6 30.8,5.1 31.1,4.8 					"/>
					<polygon class="st0" points="33.5,1.5 33.1,1.3 33.2,1.3 					"/>
					<path class="st0" d="M59.8,6.3L60,5.7C59.7,5.5,59.5,6.2,59.8,6.3z"/>
					<path class="st0" d="M71.9,8.6c-0.2-0.3-0.5-0.2-0.7,0.1C71.3,8.9,71.6,8.6,71.9,8.6z"/>
					<polygon class="st0" points="105.5,16.9 105.2,16.5 105.3,16.8 					"/>
				</g>
			</g>
		</g>
	</g>
</g>
</svg>
