<?xml version="1.0" encoding="utf-8"?>
<!-- Generator: Adobe Illustrator 19.1.0, SVG Export Plug-In . SVG Version: 6.00 Build 0)  -->
<svg version="1.1" id="Layer_1" xmlns="http://www.w3.org/2000/svg" xmlns:xlink="http://www.w3.org/1999/xlink" x="0px" y="0px"
	 viewBox="-561.4 388.1 150 31.9" style="enable-background:new -561.4 388.1 150 31.9;" xml:space="preserve">
<style type="text/css">
	.st0{fill:#E14D4D;}
</style>
<g>
	<g>
		<g>
			<g>
				<g>
					<path class="st0" d="M-411.4,391c0.1-0.1,0.1-0.5-0.2-0.5l-0.1,0.7L-411.4,391z"/>
					<path class="st0" d="M-412.9,389.8c-0.2,0.3-0.6,0.9-0.5,1.5c0.2-0.7,0.3-0.4,0.7-1.1c0.2,0,0.4,0.2,0.3,0.4
						c0.1-0.1,0.3,0.1,0.5-0.2c-0.2-0.6-0.7-0.6-1.1-0.1C-413,390.2-412.9,390-412.9,389.8z"/>
					<path class="st0" d="M-434.7,389.3l0.1,0.1C-434.6,389.2-434.7,389.3-434.7,389.3z"/>
					<path class="st0" d="M-448.2,389.8c0.1,0,0.2-0.1,0.2-0.1C-448.1,389.7-448.2,389.7-448.2,389.8z"/>
					<path class="st0" d="M-450.6,389.3c0,0,0.1,0,0.1,0.1C-450.5,389.2-450.5,389.1-450.6,389.3z"/>
					<path class="st0" d="M-434.7,389.3l-0.4-0.2C-435.1,389.3-434.9,389.2-434.7,389.3z"/>
					<path class="st0" d="M-415.9,391.4c0.1,0,0.2-0.1,0.2-0.1C-415.8,391.3-415.8,391.3-415.9,391.4
						C-415.9,391.3-415.9,391.4-415.9,391.4z"/>
					<path class="st0" d="M-428.8,388.5L-428.8,388.5c0.1-0.1,0.2-0.1,0.1-0.2L-428.8,388.5z"/>
					<path class="st0" d="M-424.2,388.3c-0.1,0-0.2,0.6-0.2,0.8c0-0.2,0.1-0.3,0.2-0.4C-424.1,388.6-424.2,388.5-424.2,388.3z"/>
					<path class="st0" d="M-417,389.1L-417,389.1C-416.9,389.1-416.9,389.1-417,389.1z"/>
					<path class="st0" d="M-432,388.5c0-0.1,0-0.2,0-0.2C-432.1,388.3-432,388.4-432,388.5z"/>
					<path class="st0" d="M-555.2,418.5C-555.2,418.5-555.2,418.5-555.2,418.5C-555.2,418.5-555.2,418.5-555.2,418.5z"/>
					<path class="st0" d="M-561.1,417.9L-561.1,417.9c0.1-0.1,0-0.3-0.1-0.4L-561.1,417.9z"/>
					<path class="st0" d="M-454.9,388.9C-454.8,388.9-454.8,388.9-454.9,388.9C-454.7,388.9-454.8,388.9-454.9,388.9z"/>
					<path class="st0" d="M-493.2,395.1c0.5,0.4-0.5,0.8,0.2,1.2C-493.1,396.1-492.5,395.4-493.2,395.1z"/>
					<path class="st0" d="M-416,391.3c-0.1,0-0.1,0-0.2,0C-416.1,391.4-416.1,391.4-416,391.3z"/>
					<path class="st0" d="M-493,396.3L-493,396.3L-493,396.3L-493,396.3z"/>
					<path class="st0" d="M-464.5,390.3c0,0.1,0,0.2,0.2,0.3C-464.4,390.5-464.4,390.5-464.5,390.3z"/>
					<path class="st0" d="M-457.2,390.3l-0.2,0C-457.3,390.3-457.2,390.3-457.2,390.3z"/>
					<path class="st0" d="M-468.1,391.7c-0.1-0.1-0.1-0.1-0.3,0l0,0.1C-468.3,391.6-468.3,391.5-468.1,391.7z"/>
					<path class="st0" d="M-472,392.1c0,0,0,0.1,0.1,0.1l0.1,0L-472,392.1z"/>
					<path class="st0" d="M-544.2,414.1c-0.1-0.1-0.3-0.2-0.3-0.4C-544.3,414.1-544.9,414.4-544.2,414.1z"/>
					<path class="st0" d="M-415.9,391.1c-0.1,0.1,0,0.2-0.1,0.2l0.1,0C-415.9,391.2-415.8,391.2-415.9,391.1z"/>
					<path class="st0" d="M-467.7,396l-0.6,0.1C-468.1,396.1-467.9,396-467.7,396z"/>
					<path class="st0" d="M-517.7,405.7l-0.2,0C-517.8,405.8-517.8,405.8-517.7,405.7z"/>
					<path class="st0" d="M-470.1,396.4c-0.1-0.2-0.3-0.2-0.4-0.3l-0.1,0.1L-470.1,396.4z"/>
					<path class="st0" d="M-544.5,413.7L-544.5,413.7L-544.5,413.7z"/>
					<path class="st0" d="M-547.9,416.4c0.6-0.1,0-0.7,0-1.2c0.6-0.5,0.5,0.4,0.9,0.7c0.3-0.3,0.5-1,0.7-1.2c0,0.1,0.1,0.2,0.1,0.3
						c0.2-0.7,1.3-0.5,1.5-1.4c0,0.1,0.1,0.1,0.1,0.2c-0.3-0.2-0.4-0.6-0.4-0.9c0.3-0.1,0.3-0.6,0.6-0.1c-0.2,0-0.1,0.2-0.1,0.4
						l0.2-0.3c0.5,0.6-0.3,0.4-0.1,0.8c0.4-0.4,0.8-1.1,1.3-1.1c0.3,0.7-0.8,0.5-0.1,0.9l-0.7,0c0.8,0.8-0.4,0.1,0.5,1
						c0.9-0.1,0.8-0.6,1.7-0.7c0.1-0.4-0.2-0.6-0.2-0.9c0.9-1,1.5,1.3,2,0.2c0.1-0.5-0.1-1.3,0.7-1.1l0,0.8c0.8-0.2,0.1-1.2,1.1-1
						c0,0.3-0.5,0.4-0.4,0.5c0.7,0.4,0.3-0.6,0.7-0.7l0.3,0.7c0.8-0.4,1.6-1.1,2.4-1.5c0,0.2-0.1,0.4,0.1,0.6c0.9-0.9,2.3-1,3.6-1
						l0.2-0.7c0.1,0,0.3,0.2,0.2,0.4c0.5,0.1-0.1-0.4,0-0.6c0.3-0.2,0.5,0.2,0.3,0.4c0.7-0.7,1.8-1.7,2.9-1.3l-0.1,0.2
						c0.7,0,0.4-1.3,1.1-1l0,0.1c1.4-0.1,2.8-1.1,4.1-0.6c0-0.9,1.4-0.1,1.3-1.1c0.9,0.4,0.8,0.6,2,0.6c0.3-0.1,0.2-0.8,0.6-1.1
						l0.1,0.6l0.3-0.8l0.5,0.6l0.3-0.2c-0.1,0-0.4-0.2-0.4-0.3c0.5-0.4,1.5,0,1.5,0.3l1.1-0.9c0,0.2-0.1,0.3-0.3,0.6
						c0.5-0.8,0.2,0.6,0.8-0.1c-0.1-0.1-0.1-0.4,0-0.5c0.4,0.3,1.2,0.1,1.6-0.2l0,0.4c1-0.1,2-0.7,3-1c-0.4-0.1-0.5-0.8-0.2-1
						l0.3,0.7c0.1-0.4-0.3-0.1-0.1-0.7c0.4,0,0.5,0.6,0.2,1l0.4-0.3c0,0.2,0,0.3,0,0.5c0.1-0.4,1,0.5,1.1-0.4l0,0.2
						c1.1-0.3,1.5-0.6,2.3-0.9c-0.1-0.6,0.3-0.5,0.4-1c0.7,0,1.5,0.3,2.3,0c0.5-0.4,0.1-0.5,0.2-0.9c0.1,0.5,0.9,0.3,0.6,0.7
						c0.8-0.3,1.1-0.4,2.2-1.1c-0.1-0.2-0.4-0.2-0.3-0.4c0.2-0.1,0.5,0.1,0.6,0.4l0,0.2c1.2-1,3.4,0.8,4.2-0.5l-0.1,0l1-0.8
						c0.5,0-0.2,0.5,0.2,0.7c1.1-1,1.9-0.2,2.7-1c1,1.3,2.6-0.7,3.8,0.1l-0.1-0.4c0.2-0.4,0.3,0.1,0.6,0.2c-0.1-0.3-0.4-0.2-0.2-0.5
						c2.2-0.9,4.7-0.4,7-0.4c0.8,0,0.1-1.9,1.3-1.3l-0.2,0.9c1.6-1.1,3.5-0.6,5-1.5c-0.1,0.1,0,0.3-0.2,0.4c0.4,0.4,1.3-0.1,1.2-0.5
						c0.3,0,0.1,0.4,0.3,0.5c0.4,0.2,0.7-0.7,1.1-0.3c0,0.1-0.1,0.1-0.1,0.2c0.2-0.3,1.1-0.1,0.8-0.6c0.7,0.1,1.1-0.4,1.7-0.2
						c0.2-0.7,1.1,0.1,1-0.8c0.1,0.9,1.2,0.5,1.6,0.1c-0.1,0.3,0.4,0.2,0.3,0.7c0.4-0.1,0.8-0.3,0.7-0.7c1,1,1.6-1.1,2.2,0.3
						c1.3-0.6,2.5-1.1,3.6-1.5c0,0.9-1.3,0.2-1.1,1.2c1.1-0.5,1.6-1.3,2.8-1.3c0.3,0.1-0.1,0.4-0.2,0.6c1.1-0.5,2.2-0.2,3.2-0.7
						c0,0.1,0,0.2-0.1,0.2c0.2,0,0.4,0.1,0.4-0.3l-0.2,0.1c-0.3-0.5,0.7-1.3,0.7-1.6c-0.2,1.2,1.1,0.1,0.6,1.7
						c0.1-0.1,0.2-0.3,0.2-0.6c0.2,0,0.3,0.2,0.1,0.6c0.7-0.3,0.4-0.7,1-0.8c0,0.2-0.1,0.3-0.2,0.6c0.3-0.4,0.6-0.9,1.2-0.7
						c-0.1,0.1,0.1,0.3-0.1,0.2c0.9-0.1,1.5-1.2,2.5-1c-0.2,0.9,0.4,0.2,0.5,1l0.6-0.2l-0.3-0.3c0.5,0,0.9-0.6,1.3-0.4l-0.3,0.3
						l0.9-0.2l-0.6-0.3c0.5-0.4-0.1-0.9,0.5-0.8c-0.1,0.1,0.5,0,0.8,0.4l0,0c0.2-0.3,0.5-0.5,0.8-0.4c0.2,0.3,0,0.8,0.1,1
						c0.1-0.7,1.2-0.3,1.4-1c-0.1,0.1-0.1,0.5,0,0.6l0.2-0.6c0.2,0.1,0.3,0.2,0.2,0.6c0.7,0-0.2-1,0.6-0.6c-0.1,0-0.1,0.1-0.1,0.2
						c0.8,0.1,1.6-0.4,2.3-0.3c0.3,0.8-0.7,0.3-0.3,0.8c1.1-0.3,2.2-1.1,3.3-0.9l-0.2,0c0-1,0.9,0.5,1.3,0c-0.1,0.1-0.2,0.6-0.1,0.4
						c0.8,0.1,1.5-0.4,2.5-0.7l-0.1,0.2c0.5,0.2,1.2,0.1,1.6,0.2c0.1-0.2,0.4-0.2,0.2-0.7c1.5,1.5,2.6-1,3.9,0.4
						c-0.1,0-0.3,0.3-0.2,0.3l1.1-0.3c-0.1-0.5-0.2-0.3-0.4-0.6c0.1-0.2,0.4-0.5,0.7-0.5c-0.4,0.3,0,0.7,0.2,1c0-0.1,0-0.3,0-0.4
						c0.6,0.8,0.1-0.9,0.8-0.4l0,0.2c0.3-0.2,0.5-0.4,0.8-0.4c0.1,0.5-0.2,0.3-0.3,0.7c0.4,0,0.9-1,1.2-0.5
						c-0.2,0.1-0.5,0.1-0.6,0.4c0.5,0.6,0.5,0.5,0.8,0.5l0,0l0.7,0.2l-0.1-0.2c0.5-1.4,1.1-0.3,1.8-1.2c-0.7,0.9-0.1,0.5-0.1,1.1
						c0.1,0.2,0.5,0.4,0.4,0.5c0.3-0.5,0.6,0.4,1-0.4c0,0.2,0.4,0,0.3,0.5c0.5-0.2-0.1-0.4-0.1-0.6c0.7-0.7,1.7,0.8,2.5-0.1
						c0.8-0.4,1-1.1,1.8-1.4c0.3,0.3-0.2,0.7-0.2,0.7c0.4,0.3,0.8,0.2,1.1,0c-0.1,0.1,0,0.3,0.1,0.5c0.3-0.1,0.2-0.7,0.6-0.5
						c0,0.2-0.2,0.6-0.3,0.8c0.4-0.2,0.8-0.5,1.2-0.7c0.1,0.4-0.3,0.5-0.4,0.7c0.5-0.1,1.2-0.3,1.3-0.9l-0.3-0.2
						c0.2,0,0.1,0.5-0.1,0.5c-0.4,0.4-0.6-0.2-0.6-0.4l0.3-0.2c-0.3-1.2-1.1,0.2-1.7,0.1l0.2-0.8l-0.6,0.7c-0.1-0.2-0.2-0.7,0.1-0.8
						c-0.4-0.4-0.3,0.3-0.8-0.1c0-0.1,0-0.1,0-0.1l-0.4,0.2c0-0.2-0.1-0.6,0.2-0.5c-0.7-0.4-1.2,0.6-1.5,0l0.1,0
						c-1,0.2,0,0.6-0.8,1.3l-0.5-1.5l0,0.6c-0.1,0-0.3,0-0.3-0.3c-0.4,0.4,0.1,0.3-0.1,0.7c-0.5-0.6-1.4,0.2-1.5-0.7
						c-0.2,0.5,0.5,0.4,0,0.7c-0.2-1.1-0.6,0.1-1.1-0.2c0.2-0.6,0.6-0.2,0.1-0.8c-0.3,0.9-0.9-0.2-1.2,0c0,0.7-0.8,0.3-1.5,0.6
						c0-0.2-1.2-0.4-1.8-0.6l0-0.1c-0.1,0.8-0.7,0.6-1.1,0.8c0-0.4,0-0.6,0.3-0.8l-0.4,0c0,0.2-0.2,0.4-0.5,0.4l0.1-0.5
						c-0.6,0.1-1.1,0.7-1.9,0.4c0,0.5,0.7,1.4-0.2,1.8c-0.1-0.3-0.1-0.7,0.1-0.8c-0.1,0-0.2,0.3-0.4,0.1l0.3-0.5
						c-0.4-0.2-0.1,0.3-0.4,0.4c0-0.4-0.2-0.3-0.1-0.6c0.1,0,0.2,0.1,0.3,0c-0.3,0-0.7-0.2-0.8-0.5c0,0.2,0,0.5-0.2,0.6
						c-0.6,0.1-0.2-0.5-0.6-0.7c-0.1,0.2-0.5,0-0.5,0.6c-0.2,0-0.2-0.3-0.3-0.4c-0.2,0.3-1.3,0.1-0.9,0.8l0.1,0.1c0,0,0,0-0.1,0l0,0
						l0,0c-0.9,0.6-2-0.2-2.9,0l0-0.2c-0.6,0.2-1.3,0.2-1.6,0.6c-0.2,0-0.4-0.3-0.3-0.5c-0.4,0.2-0.4,0.4-1.1,0.1
						c0.4-0.4-0.2-0.3,0.4-0.3c-0.6-0.2-0.7-0.4-1.3,0.1c0.2-0.6-0.5-0.6-0.7-0.4l0.4,0.3c-0.3,0.1-0.6,0.1-0.8,0l0.1-0.7
						c-1.2-0.7-2,1.5-2.9,0.2c-0.3,0.5,0.7,0.2,0.4,0.8c-0.5-0.1-1.2-0.9-1.3-0.9c-0.7-0.3-0.6,1-1.3,0.9c0.2,0.3,0.2,0.9-0.3,1.1
						c-0.5-0.1-0.8-0.9-0.4-1.1c0.1,0,0.2,0,0.2,0.1c0.2-0.1,0.4-0.2,0.2-0.5l0,0.2c-0.3-0.2-1-0.2-0.9-0.5
						c-0.3,0.3-0.1,0.4,0.1,0.5c-0.7-0.3-1,0.1-1.8-0.1c0.1,0.1,0.2,0.4,0.1,0.4c-1.1-0.1-0.4,0.5-1.1,0.7c-0.4-0.3,0.1-0.8-0.6-0.5
						c-0.5-0.2-0.1-0.6,0-0.8c-0.6,0.6-1.2-0.2-1.6-0.2l0.4-0.2c-0.2,0.1-0.4,0.2-0.5,0.1l0.2,0.5c-0.2,0-0.3,0-0.4-0.2
						c-0.1,0.3,0.2,0.8-0.1,1.3c-0.3-0.2-0.8,0.3-0.9-0.3c0.8,0.1-0.1-0.6,0.5-0.8c-0.1,0.1-0.3,0.1-0.5,0c0-0.1,0-0.1,0-0.2
						c-0.9-0.5-0.3,0.8-1.1,0.8c0.1-0.3-0.3-0.7-0.3-0.5c0.3,0,0.2,0.6-0.1,0.8c-0.6-0.3-0.6,0.2-0.9,0.2l0.3,0.1
						c-0.1,0.3-0.3,0.4-0.7,0.5c-0.1-0.3,0.4-0.2,0.1-0.3c-0.3,0.7-1-0.6-1.5,0c-0.3-0.2-0.1-0.7-0.3-0.8c-0.6,0.6-0.7-0.4-1.3,0
						c0.2,0.5,0.3,0.3-0.2,0.9l1-0.5l-0.5,0.8c0.3-0.1,0.6-0.4,0.8-0.3c-0.3,0.4-0.2,0.3,0,0.6c-0.6-0.7-0.8,0.5-1.4,0.1l-0.1-1.2
						c-0.8-0.4-1.4,0.8-2.3,0.6l0.3,0.1c-0.1,0.4-0.6,0.1-0.9,0.3c0-0.4-0.2-0.6-0.4-0.7c0.1,0.3-0.7,0.1-0.7,0.9l-0.5-0.5
						c-0.8-0.1-0.8,1.2-1.5,1.2c0.2-0.5-0.2-0.7,0.2-1.1c-0.3,0.1-0.5,0-0.5,0.2c-0.2-0.3-0.7,0.6-1,0.2c0,0.2,0,0.6-0.4,0.6
						c0-0.1,0-0.2,0-0.2c0,0.2-0.4,0.3-0.1,0.8c-1-1.1-2.3,0.5-3.1-0.5c-0.6,0.2-1.2,0.4-1.7,0.5c0-0.1,0-0.2,0.1-0.1
						c-0.8-0.1-0.3,1.3-1.2,1c-0.6-0.6,0.4-0.4,0-0.6c-0.3-1.3-0.9,0.3-1.6-0.3l0.1-0.1c-0.5-0.4-1,0.7-1.6,0.6c0,0,0-0.1,0-0.2
						c-0.3,0.7-1.2,1.1-1.8,1.4c0.1-0.5,0.2-0.3,0-0.8c-0.3,0.2,0.2,0.8-0.4,1c0-0.1-0.5-0.3-0.6-0.9l0.6-0.1
						c-0.4-0.6-0.7,0.2-1,0.1l0-0.3c-0.9,0.2-0.7,1-1.7,1.1l0.1,0.2c-0.4,0.8-0.5-0.4-0.8,0.3l-0.3-0.8c-0.2,0.3-1,1-1.5,1.2
						c0.1-0.5,0.7-0.9,1.1-1.4c-0.3,0.1-1.1,0.3-1.2,0.7c0.1-0.1,0.2-0.3,0.4-0.2c-0.2,0.7-0.7,1.1-1.4,1.2
						c-0.2-1.5-1.8-0.1-2.5-1.1c-1,0.8-2.3,0.2-3.7,0.5c0.7,1.1-0.4,0.1-0.1,1.3c-0.3,0.2-0.4,0.1-0.5,0.1l-1.1-0.6
						c-0.3-0.3,0.2-0.4,0.2-0.6c-0.7,0.1-0.4-0.4-0.9-0.7c0.2,0.4-0.1,0.7-0.6,0.6l0.8,0.4c-0.8,0.8-1-0.9-1.9,0l0.2-0.5
						c-0.4,0.3-1.8,0.3-2.1,1.5c-0.1-0.1-0.3-0.4-0.1-0.6c-1.2,0.1-2.4,1.6-3.4,1.3l0-0.3c-0.2,0.1-0.2,0.7-0.6,0.4
						c0-0.1,0-0.3-0.1-0.3c-0.1,0.1-0.5,0.6-0.8,0.5l0.2-0.4c-1.3-0.1-1.5,1.2-2.5,1.7c-0.2-0.9-1.2-0.9-1.7-0.9l0-0.1
						c-1.4,0.2-2.1,1.2-3.2,2c-1-0.8-2.6,0.3-4,0.1c0.2,0.1,0.2,0.7,0,0.8c-0.3-0.1-0.6,0.8-0.8,0l0.1,0c-0.3-0.8-0.8-0.4-1.3-0.3
						l0.2,1.1c-1.6-1.1-3,1.4-4,0.3c-0.2,0.4-0.6,0.5-0.7,0.7l-0.1-0.6c-0.8,0.1-1.2,0.1-2.2,0.6l0.1-0.4c-0.6,0.1-0.3,1.8-0.7,1.9
						l-0.4-0.7c-1,0.2-2.1-0.1-2.9,0.9c0-0.1-0.1-0.4,0.1-0.4c-0.5,0.1-2,0-1.4,1.1c-0.2-0.8-1,0.2-1.5,0.7l-0.1-0.6
						c-0.2,0.8-0.2,1-0.7,1.4c-0.2-0.1-0.3-0.5-0.1-0.4c-0.6-0.2-0.3,0.6-0.9,0.5l0.1-0.4c-0.5,0.1-0.4,0.3-0.5,0.8
						c-0.2,0.3-1,0.1-1.2-0.3c0,0.3-0.1,0.8-0.4,0.7c-0.1-0.2,0-0.3,0-0.4c-0.9-0.1-1,1-1.8,0.7c0-0.2-0.2-0.3-0.2-0.3
						c0.7-0.2,1.1-0.4,1.2-0.3c-0.1-0.5-0.7-0.4-0.5-1.2c-0.3,0.5-0.7,1.5-1.4,1.5c0,0-0.1-0.1-0.1-0.2l0.1-0.1
						c-0.1,0-0.2,0-0.3,0.2c-0.2,0-0.3,0-0.5,0c-0.2-0.4-0.7,0-0.9,0c0.2,0.6-0.2,0.6,0.3,0.8c0,0,0-0.1,0.2-0.1c0,0,0.1,0,0.1-0.1
						l0,0.1c0.2,0,0.4-0.2,0.7-0.3c-0.1,0.3-0.2,0.7-0.6,0.5c0,0.4,0,0.8-0.1,0.9c-0.6-0.7-1.4-0.8-1.7-1.2c-0.7,0.6-1.8,0.9-2,2
						c-0.1,0.2-0.4-0.2-0.5-0.3c0.1-0.1,0.3-0.2,0.3-0.4c-0.4,0.4-1.3,0.5-1.2,1.3c-0.7-0.1,0.1-0.8-0.6-0.4l0-0.2
						c-1.9-0.6-1.9,2.6-4.1,1.9c0.1,0.1,0.2,0,0.2,0.1c-2.1,0.1-3.8,2-6.1,1.7c-0.9,0.2-0.8,0.6-1,1.1l-0.3-0.5l-0.3,0.9
						c-0.6,0.8-1.9-0.9-2.6,0.4l0.3,0.3c-0.4,0.1-1.1,0.7-1.2,0.2c0,0.1,0,0.4-0.2,0.3l0-0.2l-0.7,0.8c-0.8,0.1-0.3-1.2-1.4-0.9
						c-0.3,0.3-0.7,1.3-0.6,1.5c0.2,0,0.4,0,0.6,0.4l-0.2,0.3c0.3,0.8,0.4,1.9,1.5,2.1l0.3-0.7l0.4,0.3l-0.5,0.2
						c0.5,0.3,0.5-0.1,0.6-0.5c0.1,0.2,0.3,0.3,0.4,0.4l0.2-1.1c0.2,0.3,0,0.7,0.4,0.8c0.1-0.5-0.6-0.7-0.2-1.1
						c0.4,0.3,0.5,0.6,0.7,0.1c0.1,0.2,0.1,0.4,0,0.5c0.2-0.4,0.7-0.4,0.7-0.9c0.5,0.4,0.9-0.5,1.2,0.3c0-0.2,0.3-0.9,0.5-0.9
						c-0.1,1.2,1-0.4,1.3,0.7c0-1,1.1-0.9,1.6-1.7c0,0.1,0,0.2-0.1,0.2c0.4-0.1,0.6,0.2,0.9,0.3c-0.2-0.8,0.2-1.1,0.4-1.7
						c0.8,0.5,0,0.9,0.4,1.6c-0.2-0.6,0.5-0.9,0.2-1.3c0.5,0.3,0.3,0.1,0.8,0.6c-0.2-1,0.2-0.3,0.4-0.9c0.7,0.2,0.4,0.8,0.9,0.3
						C-547.6,415.9-547.9,416.4-547.9,416.4z M-535.5,410.3L-535.5,410.3c-0.1,0-0.2,0.1-0.3,0.2
						C-535.7,410.3-535.7,410.3-535.5,410.3z M-534.5,409.9c-0.1,0-0.3,0.1-0.5,0.1c-0.1-0.2-0.1-0.4,0-0.4
						C-534.9,409.7-534.7,409.8-534.5,409.9z M-538,407c0.2-0.1,0.2,0,0.3,0c-0.1,0-0.2,0-0.3,0.2c0,0,0,0,0,0.1
						C-537.9,407.2-538,407.1-538,407z"/>
					<path class="st0" d="M-538.1,407.7C-538.1,407.8-538.1,407.8-538.1,407.7c0,0.1,0,0.1,0,0.2C-538,407.9-538,407.8-538.1,407.7
						C-538,407.7-538,407.7-538.1,407.7z"/>
					<path class="st0" d="M-434.6,389.3L-434.6,389.3L-434.6,389.3L-434.6,389.3z"/>
					<polygon class="st0" points="-518.9,406.4 -518.9,406.2 -519,406.4 					"/>
					<path class="st0" d="M-428,391c0,0.1,0,0.1,0.1,0.2C-428,391.1-428,391.1-428,391z"/>
					<path class="st0" d="M-425.4,391l0.4,0.2C-425.1,391.2-425.2,391.1-425.4,391z"/>
					<path class="st0" d="M-423.2,391.3c0-0.1,0-0.2,0-0.2l0,0L-423.2,391.3z"/>
					<path class="st0" d="M-456.7,394L-456.7,394C-456.9,394.2-456.8,394.1-456.7,394z"/>
					<path class="st0" d="M-446.8,391.8c-0.1,0.1-0.1,0.2-0.3,0.3C-446.9,392.2-446.7,392.1-446.8,391.8z"/>
					<path class="st0" d="M-467.6,396.1L-467.6,396.1L-467.6,396.1L-467.6,396.1z"/>
					<path class="st0" d="M-447.6,392.1c0.2,0,0.3,0,0.5,0C-447.3,392-447.4,392-447.6,392.1z"/>
					<path class="st0" d="M-414,391.5L-414,391.5C-413.9,391.4-413.9,391.4-414,391.5L-414,391.5z"/>
					<path class="st0" d="M-413.9,391.4L-413.9,391.4C-413.8,391.3-413.9,391.3-413.9,391.4z"/>
					<path class="st0" d="M-413.5,391.2l-0.3,0.2C-413.7,391.4-413.6,391.4-413.5,391.2z"/>
					<path class="st0" d="M-416.8,391.3l0,0.2C-416.8,391.3-416.8,391.3-416.8,391.3z"/>
					<path class="st0" d="M-417.7,391.3c0.2,0,0.5,0.4,0.8,0.3l0-0.2C-417,391.7-417.4,390.9-417.7,391.3z"/>
					<path class="st0" d="M-421.3,388.8l0.8,0.1c-0.1-0.2-0.3-0.5,0.1-0.5C-421.4,387.8-420.3,388.8-421.3,388.8z"/>
					<path class="st0" d="M-423.5,388.5c0.4-0.1,0-0.3,0-0.4C-423.7,388.2-423.8,388.4-423.5,388.5z"/>
					<path class="st0" d="M-439.5,389.2l0-0.5C-439.9,388.7-439.5,388.8-439.5,389.2z"/>
					<polygon class="st0" points="-442.5,392 -442.2,392.3 -442,391.8 					"/>
					<polygon class="st0" points="-444.5,388.4 -444.4,388.4 -444.8,388.6 					"/>
					<path class="st0" d="M-471.4,391.6l0.1,0.6C-471,392.1-471.1,391.4-471.4,391.6z"/>
					<path class="st0" d="M-482.8,394c-0.2-0.3-0.5-0.4-0.7-0.1C-483.2,393.9-482.9,394.2-482.8,394z"/>
					<polygon class="st0" points="-517.2,400.6 -517.1,400.3 -517.4,400.6 					"/>
				</g>
			</g>
		</g>
	</g>
</g>
</svg>
