<?xml version="1.0" encoding="utf-8"?>
<!-- Generator: Adobe Illustrator 19.1.0, SVG Export Plug-In . SVG Version: 6.00 Build 0)  -->
<svg version="1.1" xmlns="http://www.w3.org/2000/svg" xmlns:xlink="http://www.w3.org/1999/xlink" x="0px" y="0px"
	 viewBox="0 0 980 100" style="enable-background:new 0 0 980 100;" xml:space="preserve">
<style type="text/css">
	.st0{fill:#FFFFFF;}
</style>
<g id="Layer_2">
	<g>
		<g>
			<g>
				<g>
					<g>
						<path d="M970.8,67.7c0.5-0.1,0.2-0.3-1.2-0.3l-1,0.3L970.8,67.7z"/>
						<path d="M961.4,66.7c-1.6,0.1-3.5,0.3-2.5,0.7c1.6-0.3,2-0.1,3.8-0.4c1.4,0,2.4,0.2,2.2,0.3c0.5-0.1,2.2,0.1,2.9,0
							c-1.8-0.3-4.1-0.4-6.5-0.3C960.8,66.9,961.3,66.8,961.4,66.7z"/>
						<path d="M825,62.2l0.9,0.1C825.7,62.2,825.4,62.2,825,62.2z"/>
						<path d="M740.5,60.5c0.6,0,0.9,0,0.9-0.1C740.9,60.4,740.4,60.5,740.5,60.5z"/>
						<path d="M726.1,59.9c0.3,0,0.6,0,0.9,0C726.6,59.9,726.3,59.9,726.1,59.9z"/>
						<path d="M825,62.2l-2.3-0.2C822.6,62.1,823.9,62.1,825,62.2z"/>
						<path d="M942.6,66.9c0.5,0,0.9,0,1.2,0C943.4,66.8,943,66.8,942.6,66.9C942.6,66.8,942.6,66.9,942.6,66.9z"/>
						<path d="M862.3,62.8l0.7,0c0.2,0,0.4-0.1,0.6-0.1L862.3,62.8z"/>
						<path d="M890.9,63.6c-0.6,0-0.9,0.2-1.1,0.4c0.4-0.1,0.8-0.1,1.4-0.2C891.2,63.7,891.1,63.6,890.9,63.6z"/>
						<path d="M936.2,65.5l0.8,0C936.8,65.5,936.4,65.5,936.2,65.5z"/>
						<path d="M841.8,62.2c0,0-0.1-0.1-0.3-0.1C841.6,62.1,841.7,62.2,841.8,62.2z"/>
						<path d="M42.4,80.7C42.4,80.6,42.4,80.6,42.4,80.7C42.2,80.6,42.2,80.7,42.4,80.7z"/>
						<path d="M9.2,81.4l0.5,0c0-0.1,0.1-0.1,0.1-0.2L9.2,81.4z"/>
						<path d="M699.7,59.4c0.1,0,0.1,0,0.1,0C700.5,59.3,700.1,59.3,699.7,59.4z"/>
						<path d="M457.1,60.8c2.8,0.2-4.5,0.4-0.3,0.6C456.4,61.3,460.6,60.9,457.1,60.8z"/>
						<path d="M941.8,66.8c-0.4,0-0.8,0-1.2,0C941.2,66.8,941.6,66.8,941.8,66.8z"/>
						<path d="M456.8,61.4L456.8,61.4l0.4,0C457.1,61.4,457,61.4,456.8,61.4z"/>
						<path d="M638.8,59.2c0.1,0,0.4,0.1,0.6,0.1C639.4,59.3,639.2,59.3,638.8,59.2z"/>
						<path d="M684.1,59.8l-1.1,0C683.5,59.8,683.8,59.8,684.1,59.8z"/>
						<path d="M615.2,59.6c-0.6,0-0.8-0.1-1.7,0c0.1,0,0.2,0,0.3,0C614.1,59.6,614.5,59.5,615.2,59.6z"/>
						<path d="M590.7,59.7c0.1,0,0.3,0,0.5,0.1c0.2,0,0.5,0,0.8,0L590.7,59.7z"/>
						<path d="M116.7,76c-0.5,0-0.9-0.1-1.1-0.2C115.9,76,112.3,76.3,116.7,76z"/>
						<path d="M942.6,66.7c-0.1,0.1-0.4,0.1-0.7,0.1c0.3,0,0.6,0,0.8,0C942.7,66.8,942.7,66.7,942.6,66.7z"/>
						<path d="M614.2,61.8l-3.9,0C611.4,61.8,612.9,61.8,614.2,61.8z"/>
						<path d="M292.3,67.7l-0.9,0.1C291.7,67.8,292,67.8,292.3,67.7z"/>
						<path d="M598.8,61.8c-0.7-0.1-1.4-0.1-2.2-0.2c-0.2,0-0.3,0-0.5,0.1L598.8,61.8z"/>
						<path d="M115.5,75.8C115.6,75.8,115.6,75.8,115.5,75.8C115.6,75.8,115.6,75.8,115.5,75.8z"/>
						<path d="M90,78c3.7-0.2,1.7-0.5,2.5-0.7c4.4-0.4,2.1,0.2,3.6,0.3c2.8-0.3,4.9-0.7,6.9-0.8c0.2,0.1,0.6,0.1,0.1,0.2
							c2.9-0.5,8.7-0.5,12-1.1c0.3,0,0.4,0,0.4,0.1c-0.6-0.2-0.7-0.3-0.6-0.5c1.7-0.1,3.1-0.4,3.7-0.2c-1,0.1-1.1,0.2-1.6,0.3
							l1.7-0.2c1.6,0.3-2.4,0.3-2.4,0.5c3.4-0.3,7.3-0.8,9.9-0.9c0.6,0.3-6.1,0.5-2.6,0.6l-4,0.1c3.1,0.4-2.4,0.1,0.4,0.5
							c5.3-0.2,5.9-0.5,11.2-0.7c1.2-0.3-0.4-0.3,0.8-0.5c7.5-0.7,6,0.5,11.4-0.2c1.4-0.3,1.9-0.8,5.9-0.7l-1.3,0.5
							c5.1-0.2,2.9-0.7,8.3-0.7c-0.9,0.2-4,0.3-3.2,0.3c3.5,0.1,2.4-0.3,5.1-0.5l0.6,0.3c5.5-0.4,11.5-0.8,17.5-1.3
							c-0.3,0.1-1.4,0.3,0.1,0.3c3.8-0.3,7.9-0.5,11.9-0.6c4-0.1,8-0.2,11.7-0.3l2.8-0.4c0.7,0,1.2,0.1,0.5,0.2
							c2.9,0,0.1-0.2,1.5-0.4c1.6-0.1,2.2,0.1,1.1,0.2c5-0.5,14.4-1.2,19.7-1.1l-1,0.1c4.2-0.1,4.7-0.8,8.5-0.7l-0.7,0.1
							c9-0.3,19-1,25.8-0.8c1.3-0.5,8.9-0.2,9.5-0.8c5.2,0.1,3.7,0.3,10.9,0.2c1.9,0,2.9-0.5,5.3-0.6l0.1,0.3l3.2-0.4l1.7,0.3
							l2.2-0.2c-0.9,0-1.9-0.1-1.8-0.2c3.5-0.3,8.6-0.1,8.6,0l8.3-0.6c-0.2,0.1-1.6,0.2-2.7,0.3c4.4-0.5,0.8,0.3,4.9-0.2
							c-0.5,0,0.3-0.2,0.4-0.3c2,0.1,6.6,0,10-0.2l-0.6,0.2c6.2-0.1,13-0.5,19.9-0.7c-2.5,0-1.9-0.4,0.1-0.5l0.8,0.3
							c1.3-0.2-2.1-0.1,0.6-0.4c2.6,0,1.7,0.3,0.3,0.5l3.1-0.2c0.2,0.1-0.5,0.2-0.7,0.3c1.3-0.2,5.4,0.2,7.3-0.3l0.2,0.1
							c6.9-0.2,10-0.4,15.7-0.6c0.1-0.3,2.3-0.3,4-0.6c4.1,0,8.7,0.1,13.7-0.1c3.5-0.2,1-0.3,2.6-0.5c0.3,0.2,5.2,0.1,2.7,0.3
							c6-0.2,7.6-0.2,15.2-0.6c-0.8-0.1-1.7-0.1-1.3-0.2c1.4-0.1,3.1,0,2.9,0.2l-0.4,0c8.5-0.6,19.6,0.2,26.3-0.4l-0.4,0l7-0.4
							c3.2,0-1.9,0.2,0.5,0.3c7.5-0.6,11.9-0.2,18.2-0.6c4.8,0.7,17.1-0.4,23.6,0l-0.4-0.2c1.7-0.2,2,0.1,3.3,0.1
							c-0.2-0.1-1.8-0.1-0.8-0.2c14.2-0.5,29.4-0.1,44-0.1c5.3,0,3-1,9.8-0.6l-1.9,0.4c5.4-0.3,10.9-0.3,16.4-0.4
							c5.5,0,10.9,0,16.2-0.2c-0.6,0.1-0.6,0.2-1.7,0.2c2.2,0.2,8.2,0,8.3-0.2c1.6,0,0.4,0.2,1.4,0.3c2.2,0.1,5.6-0.3,6.8-0.1
							c0.2,0-0.6,0.1-1,0.1c1.5-0.1,6.8,0,5.4-0.3c4,0.1,7.6-0.2,10.7,0c2.1-0.3,6.8,0.1,7.4-0.3c-0.3,0.5,6.9,0.3,9.4,0.1
							c-0.8,0.1,2.2,0.1,1.2,0.3c2.9,0,5.5-0.1,5-0.3c5.3,0.6,10.6-0.4,13.5,0.3c8.5-0.2,16.3-0.4,24-0.5c-0.3,0.5-8.4,0-8.1,0.5
							c7.2-0.2,11.4-0.6,18.6-0.4c1.9,0.1-1.1,0.2-1.7,0.3c7.2-0.2,14,0.1,20.4-0.1c0,0-0.7,0.1-1.4,0.1c1.3,0,3,0.1,2.8-0.1l-1.2,0
							c-2-0.3,5-0.6,5.3-0.7c-2.2,0.6,6.4,0.2,2.9,0.9c0.8,0,1.9-0.1,1.7-0.3c1.2,0.1,1.6,0.1,0.4,0.3c4.5-0.1,2.9-0.3,7.1-0.3
							c0,0.1-0.8,0.1-1.3,0.2c2.1-0.2,4.2-0.4,7.7-0.2c-0.2,0.1,0.2,0.1-0.8,0.1c6,0,10.2-0.4,16.7-0.2c-1.9,0.4,2.2,0.2,2.6,0.5
							l3.5-0.1l-1.4-0.2c3.1,0.1,5.8-0.2,8.5,0l-2.3,0.1l5.8,0l-3.3-0.2c3.1-0.1-0.3-0.5,3.8-0.3c-0.8,0,3.1,0.1,4.7,0.3l0,0
							c1.5-0.1,3.1-0.2,5.4-0.1c0.6,0.1-0.5,0.4-0.1,0.5c1.5-0.3,7.2,0,9.1-0.3c-0.6,0.1-0.7,0.3-0.5,0.3l1.3-0.2
							c1.4,0.1,1.6,0.1,1.4,0.3c4.3,0.1-1.4-0.5,3.7-0.2c-0.4,0-0.2,0.1-1,0.1c5.1,0.2,9.9,0,14.6,0.2c1.4,0.4-4.1,0-2.5,0.4
							c6.8,0,14.1-0.2,20.7,0l-1.2-0.1c0.9-0.5,4.9,0.4,8.2,0.2c-0.8,0-1.1,0.3-0.9,0.2c4.5,0.2,9.2,0.1,16,0.1l-0.8,0.1
							c2.7,0.2,7,0.2,9.9,0.3c0.9-0.1,2.5-0.1,1.5-0.3c8.8,1,16.9-0.1,24.7,0.8c-0.9,0-2.2,0.1-1.5,0.1l6.7,0.1
							c-0.5-0.2-0.9-0.2-2.3-0.4c0.8-0.1,2.7-0.2,4.4-0.1c-3,0.1,0,0.4,1.3,0.5c-0.2-0.1,0.2-0.1,0.1-0.2c3.5,0.5,0.6-0.4,5.4,0
							l-0.3,0.1c1.8,0,3.4-0.1,5.4,0c0.8,0.3-1.9,0.1-2,0.3c2.7,0.1,5.3-0.4,7.8,0c-1.1,0-2.8,0-3.9,0c2.7,0.4,3,0.3,4.9,0.4l-0.2,0
							l4.6,0.3l-1.2-0.1c3.4-0.6,6.9,0.1,11.4-0.3c-4.4,0.3-0.7,0.2-1.1,0.5c1.2,0.1,2.9,0.3,2.4,0.3c2.2-0.2,3.6,0.3,6.6,0
							c0.1,0.1,2.3,0.1,1.8,0.3c2.8,0-0.7-0.2-0.4-0.3c4.3-0.2,10.1,0.7,16.3,0.5c5.4,0,6.4-0.3,11.3-0.3c1.7,0.2-1.4,0.3-1.4,0.3
							c2.7,0.2,4.7,0.3,7.3,0.3c-0.5,0.1,0,0.2,0.8,0.3c2,0,1.4-0.3,4.1-0.1c-0.5,0.1-1.1,0.2-2.1,0.3c2.4,0,4.8-0.1,7.3-0.1
							c0.7,0.2-1.5,0.2-2.4,0.3c2.8,0,7.3,0.1,8.1-0.1l-1.8-0.2c1,0,0.5,0.2-0.2,0.3c-2.4,0.1-3.5-0.2-3.6-0.3l1.8,0
							c-1.8-0.6-7.1-0.2-10.7-0.3l1.5-0.4l-3.7,0.2c-0.8-0.1-1.3-0.4,0.5-0.4c-2.6-0.3-2.3,0.1-4.5-0.2c-0.2,0-0.1-0.1,0.1-0.1
							l-2.5,0c0.5-0.1-0.4-0.3,1.1-0.2c-4.5-0.4-7.3,0.1-8.9-0.3l0.4,0c-6.2-0.1-0.6,0.3-5.3,0.5l-3.1-0.9l-0.6,0.3
							c-0.6,0-1.9-0.1-1.7-0.2c-2.4,0.1,0.4,0.1-1,0.3c-3.1-0.4-8.5-0.1-9.2-0.6c-1.1,0.2,3,0.3-0.4,0.3c-0.9-0.5-3.8,0-6.6-0.3
							c0.9-0.2,3.6,0,0.7-0.3c-1.7,0.4-5.5-0.3-7.9-0.2c-0.1,0.4-5.2,0-9.2,0c0.3-0.1-7.5-0.4-11.2-0.7l0.1-0.1
							c-0.7,0.3-4.6,0.2-7.4,0.2c0.1-0.2,0.6-0.3,2.1-0.3l-2.6-0.1c-0.6,0.1-1.4,0.1-3.2,0.1l0.7-0.3c-3.5-0.1-7.1,0.1-11.6-0.2
							c-0.3,0.3,3.6,0.8-1.2,0.9c-0.2-0.1-0.3-0.4,0.9-0.4c-0.4,0-1.5,0.1-2.3,0l1.9-0.2c-2-0.1-1.1,0.2-2.7,0.1
							c0-0.2-1.2-0.2-1-0.3c0.4,0,1.4,0.1,2.1,0c-1.8-0.1-4.1-0.2-4.8-0.4c0.2,0.1,0,0.3-1.4,0.3c-3.5-0.1-1.2-0.3-3.2-0.4
							c-0.9,0.1-3.1-0.1-3.1,0.2c-1,0-1.2-0.2-1.6-0.3c-1.8,0.1-8.5-0.1-6.4,0.2l0.5,0c-0.1,0-0.2,0-0.3,0c0,0,0,0,0,0l0,0
							c-5.9,0.2-12.3-0.4-18.2-0.4l0-0.1c-3.5,0-7.8-0.1-10.3,0.1c-1,0-2.5-0.2-2-0.3c-2.7,0-3,0.1-6.9-0.1c2.7-0.1-0.9-0.2,2.8-0.1
							c-3.5-0.2-4.3-0.3-8-0.1c1.3-0.2-2.6-0.4-4.3-0.3l2.4,0.2c-1.9,0-3.5,0-5.2-0.1l0.9-0.3c-7.1-0.5-12.9,0.5-18.3-0.3
							c-1.9,0.2,3.9,0.2,2.2,0.5c-3.3-0.1-6.7-0.6-7.7-0.6c-4.5-0.3-4.2,0.4-8.9,0.2c0.6,0.1,1.2,0.5-2.4,0.5c-3.3-0.1-4-0.6-2-0.6
							c0.8,0,1.2,0,1.1,0.1c1.1,0,2.5-0.1,1.2-0.2l-0.4,0.1c-1.6-0.1-6.2-0.2-5.1-0.4c-2.5,0.1-1.1,0.2,0.8,0.3
							c-4.2-0.2-6.6-0.1-10.9-0.3c0.7,0.1,1.3,0.2,0.6,0.2c-6.4-0.2-2.8,0.2-7.1,0.2c-2.5-0.2,0.9-0.4-3.5-0.3
							c-2.7-0.1-0.6-0.3,0.5-0.4c-4,0.2-7.4-0.2-9.7-0.3l2.1-0.1c-1.2,0-2.3,0-3.3,0l1.2,0.2c-1.2-0.1-2.3-0.1-2.2-0.2
							c-1.3,0.1,1,0.4-1.5,0.6c-1.6-0.1-5,0.1-5.5-0.2c5.1,0.1-0.6-0.3,3.8-0.3c-0.8,0-1.9,0-3.1,0c-0.2,0,0.2-0.1,0.5-0.1
							c-4.9-0.3-2.3,0.3-7.4,0.3c0.6-0.2-1.2-0.3-2-0.3c2.1,0,1,0.3-0.9,0.4c-3.3-0.2-3.5,0.1-5.3,0l2,0.1c-0.7,0.2-2.3,0.1-4.6,0.2
							c-0.2-0.1,2.1-0.1,1.3-0.1c-2.5,0.3-5.7-0.4-9.2-0.2c-1.6-0.1-0.2-0.3-1.6-0.4c-4,0.2-4.3-0.3-8.4-0.1
							c1.2,0.2,1.4,0.2-1.5,0.4l6.8-0.2l-4.4,0.3c2.1,0,4.3-0.1,5.6-0.1c-2.1,0.2-1.9,0.1-0.9,0.3c-2.8-0.4-5.6,0.2-8.8,0l0.1-0.6
							c-4.9-0.3-8.7,0.3-15.1,0.1l2,0.1c-0.9,0.2-3.9,0-6,0.1c0.2-0.2-1.1-0.3-2-0.4c0.1,0.1-4.7,0-5.2,0.4l-2.8-0.3
							c-5.1-0.1-5.9,0.6-10.8,0.5c1.5-0.2-0.8-0.4,2.6-0.5c-1.6,0-3.1,0-3.2,0.1c-1-0.1-4.6,0.3-6.1,0.1c-0.7,0.1-0.9,0.3-2.8,0.3
							c-0.2,0,0-0.1,0-0.1c0,0.1-2.9,0.1-1.3,0.4c-5.1-0.6-14.2,0.1-18.6-0.4c-3.6,0.1-7.9,0.2-11.2,0.2c0.2-0.1,0-0.1,0.6-0.1
							c-4.5-0.2-2.8,0.6-7.9,0.4c-2.6-0.3,2.7-0.2,1.1-0.3c-0.7-0.6-6.2,0.1-9.6-0.2l0.8,0c-2.6-0.2-6.4,0.3-10.7,0.3
							c0,0,0.2-0.1,0-0.1c-2.9,0.3-8.5,0.5-12.7,0.7c1.3-0.3,1.9-0.2,1.1-0.4c-1.9,0.1,0.5,0.4-3.2,0.5c-1.2-0.1-3.9-0.2-4.2-0.5
							l3.5-0.1c-1.8-0.3-4.5,0.1-6.4,0l0.2-0.2c-5.4,0.1-5.4,0.5-11.2,0.5l0.6,0.1c-3.1,0.4-2.6-0.2-5.8,0.1l-1-0.4
							c-2.1,0.1-7.3,0.5-11,0.6c2.1-0.3,6.5-0.5,9.2-0.7c-2.1,0-7,0.1-8.1,0.3c0.8,0,1.9-0.2,2.7-0.1c-2.5,0.3-5.8,0.5-9.9,0.6
							c0.7-0.8-10.7-0.1-13.7-0.6c-7.3,0.4-14.4,0.1-22.9,0.3c3,0.5-2.5,0.1-1.9,0.7c-2,0.1-2.7,0.1-2.9,0l-6-0.3
							c-1.4-0.2,1.9-0.2,1.7-0.3c-4.3,0-1.8-0.2-4.7-0.3c0.6,0.2-1.5,0.3-4,0.3l3.5,0.2c-6,0.4-5.2-0.4-11.3,0l1.9-0.2
							c-3.1,0.2-11.5,0.2-14.5,0.8c-0.6-0.1-1.3-0.2,0.1-0.3c-7.5,0.1-16.6,0.9-22.4,0.8l0.6-0.2c-1.4,0.1-2.4,0.3-4.2,0.2
							c0.1-0.1,0.6-0.2-0.1-0.2c-0.7,0.1-3.7,0.4-5.5,0.3l1.6-0.2c-7.3,0-11.1,0.7-17.2,0.9c0-0.4-5.7-0.5-8.6-0.4l0.1-0.1
							c-8.5,0.2-14.4,0.8-22.2,1.2c-4.9-0.3-16.5,0.3-24.3,0.3c1.2,0-0.2,0.3-1.6,0.4c-1.8,0-5.1,0.5-4.8,0.1l0.7,0
							c-1.4-0.3-5.2-0.1-8.1,0l-0.5,0.5c-7.7-0.5-20.2,1.1-24.4,0.5c-1.9,0.2-4.2,0.3-6,0.5l0.1-0.3c-5.1,0.1-7.7,0.2-14.1,0.5
							l1.3-0.3c-3.6,0.1-4.5,1-7.8,1.1l-1-0.4c-6.3,0.2-12.6,0.2-18.8,0.8c0.1-0.1,0.3-0.2,1.3-0.3c-2.9,0.1-11.4,0.2-10.3,0.8
							c-0.1-0.4-6.5,0.3-9.8,0.6l0.5-0.3c-2.8,0.5-2.9,0.6-6.9,0.9c-0.9,0-0.8-0.2,0.4-0.2c-3.2,0-2.4,0.4-6.3,0.4l1.4-0.2
							c-3.2,0.1-3,0.2-4.7,0.5c-2,0.2-6.1,0.2-6.6,0c-0.4,0.2-2.2,0.5-4.1,0.5c-0.3-0.1,0.4-0.2,0.8-0.2c-5.4,0.1-8,0.7-11.8,0.6
							c-0.1-0.1-0.3-0.1-0.6-0.1c4.3-0.2,7.8-0.4,7.4-0.3c0-0.3-3.5-0.1-0.7-0.6c-2.8,0.3-7.5,1-10.9,1.1c-0.2,0-0.3,0-0.5-0.1
							l0.3,0c-0.8,0-1.5,0.1-2.1,0.2c-1.1,0-1.8,0-2.8,0.1c-0.4-0.2-4,0.1-5.7,0.2c0.2,0.3-2.1,0.3,0,0.5c-0.3,0,0.3-0.1,1.5-0.1
							c0.3,0,0.6,0,0.7-0.1c0,0-0.1,0-0.1,0c1.1-0.1,2.6-0.1,4.3-0.2c-1.4,0.2-2.8,0.4-4.7,0.4c-0.9,0.2-1.8,0.5-2.4,0.6
							c-2.4-0.3-7-0.2-7.6-0.5c-5.3,0.4-12.4,0.8-15.7,1.5c-1.5,0.1-1.7-0.1-2.3-0.1c0.9-0.1,1.9-0.1,2.4-0.2
							c-3,0.3-8.9,0.5-9.6,0.9c-3.8,0,2.1-0.5-3.1-0.1l0.7-0.2c-10.3,0-16.6,1.9-28,1.8c0.8,0,1.2,0,1.3,0.1
							c-13,0.4-26.6,1.8-39.4,2.1c-3.6,0.1-4,0.4-6.2,0.7l-0.8-0.3l-3.8,0.6c-5.3,0.6-9.3-0.1-16.1,0.8l0.9,0.1
							c-2.4,0.1-7.7,0.6-7.3,0.4c-0.2,0.1-0.8,0.3-1.7,0.2l-0.1-0.2l-6,0.7c-4.7,0.2,0.7-0.7-6.1-0.3c-2.5,0.2-7.1,0.9-6.2,1
							c1-0.1,2.6-0.1,2.7,0.1l-2.3,0.2c-0.4,0.5-2.1,1.1,3.6,1l3.9-0.5l1.3,0.1l-3.3,0.2c1.9,0.1,3.1-0.2,4.4-0.4
							c0.3,0.1,0.9,0.1,1.7,0.1l3.8-0.7c0.5,0.2-1.7,0.5,0.9,0.4c1.8-0.3-1.8-0.3,1.2-0.6c1.9,0.1,1.4,0.3,3.6,0
							c0.3,0.1-0.1,0.2-1,0.3c2-0.3,5.2-0.4,6.2-0.7c2,0.1,6.6-0.5,6.5-0.1c0.6-0.1,3.4-0.6,5.3-0.7c-3.3,0.7,6.8-0.4,5.9,0.2
							c2.4-0.6,8.8-0.8,13.1-1.3c-0.2,0.1-0.7,0.2-1.1,0.2c2.4-0.1,3.2,0,4.7,0c0.3-0.4,4.1-0.7,6.1-1.1c3,0.2-1.8,0.6-0.8,0.9
							c-0.2-0.3,5.2-0.6,4.1-0.8c2.3,0.1,2,0,3.2,0.3c0.4-0.5,2.1-0.2,4-0.6c3.3,0,0.9,0.4,4.5,0C93.2,77.6,90,78,90,78z
							 M176.4,72.4L176.4,72.4c-0.7,0.1-1.4,0.1-1.8,0.1C175,72.4,175.5,72.4,176.4,72.4z M183.7,72c-0.9,0-2,0.1-3.2,0.2
							c-0.3-0.1,0-0.2,0.7-0.2C180.9,72,182.6,71.9,183.7,72z M168.2,70.8c1.1-0.1,1.5-0.1,1.7,0c-0.5,0-1.2,0.1-2,0.1
							c0,0-0.1,0-0.1,0C167.9,70.9,168,70.9,168.2,70.8z"/>
						<path d="M166.2,71.3c-0.2,0-0.3,0-0.5,0c0.2,0,0.5,0,0.7,0c0.1,0,0.3-0.1,0.4-0.1C166.6,71.3,166.4,71.3,166.2,71.3z"/>
						<path d="M826.1,62.2l-0.2,0c0.1,0,0.2,0,0.3,0C826.1,62.3,826.1,62.3,826.1,62.2z"/>
						<polygon points="284.2,68.2 284.2,68.1 283.5,68.2 						"/>
						<path d="M866.1,64.2c0.1,0,0.2,0.1,0.5,0.1C866.6,64.3,866.4,64.2,866.1,64.2z"/>
						<path d="M883.4,64.7l2.4,0.2C884.8,64.8,884.1,64.8,883.4,64.7z"/>
						<path d="M896.8,65.3c0.2,0,0.2-0.1,0.3-0.1c0,0,0,0,0,0L896.8,65.3z"/>
						<path d="M685,61.7c-0.2,0-0.4,0-0.5,0C683.3,61.7,684.1,61.7,685,61.7z"/>
						<path d="M748.1,61.7c-0.7,0-1.3,0.1-2,0.1C747.2,61.8,748,61.8,748.1,61.7z"/>
						<path d="M614.7,61.8C614.7,61.8,614.7,61.8,614.7,61.8c-0.1,0-0.3,0-0.4,0L614.7,61.8z"/>
						<path d="M743.1,61.7c1.1,0.1,2.1,0.1,2.9,0C745.1,61.7,744,61.7,743.1,61.7z"/>
						<path d="M954.4,67.3l0.6,0c0,0,0,0,0.1,0L954.4,67.3z"/>
						<path d="M955.2,67.3l0.7,0C955.5,67.3,955.3,67.3,955.2,67.3z"/>
						<path d="M957.4,67.3l-1.5,0C956.4,67.3,957,67.4,957.4,67.3z"/>
						<path d="M936.8,66.6l-0.2,0.1C936.7,66.6,936.8,66.6,936.8,66.6z"/>
						<path d="M931.5,66.4c1.3,0.1,3.2,0.3,5,0.3l0.2-0.1C935.8,66.8,932.7,66.3,931.5,66.4z"/>
						<path d="M909.2,64.4l4.5,0.2c-0.8-0.1-1.8-0.3,0.2-0.3C908.2,63.8,915,64.6,909.2,64.4z"/>
						<path d="M895.2,63.8c2.4,0,0-0.2,0.1-0.2C893.8,63.7,893.4,63.7,895.2,63.8z"/>
						<path d="M794.7,61.3l0.2-0.3C793,61.1,794.9,61.2,794.7,61.3z"/>
						<polygon points="775.4,62.3 777.2,62.5 778.1,62.3 						"/>
						<polygon points="764.1,60.3 764.9,60.3 761.8,60.4 						"/>
						<path d="M595.1,59.4l0.6,0.3C596.9,59.6,597.2,59.3,595.1,59.4z"/>
						<path d="M522.1,60.3c-0.8-0.1-2.8-0.2-4.1-0.1C519.7,60.2,521.3,60.3,522.1,60.3z"/>
						<polygon points="303.4,64.9 304.9,64.7 302.1,64.9 						"/>
					</g>
				</g>
			</g>
		</g>
	</g>
</g>
<g id="Layer_1">
	<g id="IRd79L_1_">
		<g>
			<path class="st0" d="M443.5,0c31,0,62,0,93,0c0,33.3,0,66.7,0,100c-31,0-62,0-93,0C443.5,66.7,443.5,33.3,443.5,0z M509.7,55.8
				c0.3-0.4,0.5-0.7,0.7-1c3.1-4.4,6.4-8.7,9.4-13.2c3.4-5.1,3.7-10.5,0.3-15.8c-1.8-2.9-3.7-5.8-5.7-8.6c-0.7-1-1.1-2-1-3.3
				c0.3-4.3-1.2-7.9-4.9-10.3c-3.4-2.3-6.9-2.4-10.6-0.5c-0.6,0.3-1.5,0.4-2,0.2c-4.3-1.9-8.6-1.6-13-0.1c-0.7,0.2-1.7,0.1-2.3-0.2
				c-3.7-2-7.3-1.8-10.7,0.4c-3.6,2.3-5.1,5.8-5,9.9c0,1.2-0.2,2.1-0.9,3c-1.9,2.7-3.8,5.5-5.4,8.4c-3.7,6.4-3.6,12.8,0.8,18.9
				c2.8,3.9,5.7,7.6,8.8,11.3c0.9,1.1,1,1.9-0.1,2.7c-0.9,0.7-1.8,1.5-2.7,2.2c-6,4.2-11.9,8.5-18.8,11.3c8.5,4,16.6,1.7,25.2-1.4
				c-3.5,7.9-6.7,15.4-10,22.8c0.2,0.2,0.3,0.4,0.5,0.5c8.8-2.5,14.7-9.1,20.7-16c1.3,7.9,3.2,15.2,7.1,22.4
				c4.1-7.1,5.8-14.5,7-22.6c0.8,0.9,1.5,1.6,2,2.3c4.2,5.1,9.1,9.4,15.2,12.1c1.3,0.6,2.8,0.9,4.4,1.4c-3.8-7.9-7.3-15.3-11.1-23.1
				c1.1,0.3,1.8,0.5,2.4,0.6c5.5,1.4,11,2.8,16.7,1.8c2.1-0.3,4.3-0.3,6.2-2C524.3,66.6,516.2,62.5,509.7,55.8z"/>
			<g>
				<path d="M510.1,55.5c2.2,2.2,4.1,4.5,6.6,6.3c2.5,1.7,5.1,3.4,7.8,4.8c2.7,1.4,5.5,2.4,8.4,3.5c-1.9,1.8-3.9,2.4-6,2.7
					c-2.9,0.5-5.8-0.1-8.6-0.6c-2.8-0.4-5.7-0.6-8.4-1.3c-0.6-0.2-0.3-1-1.4-1.3c1.3,2.6,1.9,5.1,3.1,7.7c1.2,2.6,2.1,5.3,3.4,7.9
					c1.2,2.5,3.2,5.1,4.4,7.7c-1.7-0.5-4-0.1-5.3-0.7c-3.1-1.4-6-3.3-8.5-5.3c-2.5-2.1-5-4.4-7.1-7c-0.6-0.7-1.1-2.4-1.9-3.3
					c-0.4,2.7,0.6,5.9,0,8.4c-0.6,2.6-1.8,5.1-2.7,7.5c-0.9,2.4-2.3,4.5-3.7,6.8c-1.3-2.4-2.2-4.6-3.1-7c-0.9-2.5-2.5-4.8-3.1-7.3
					c-0.6-2.5-0.6-4.5-1-7.2c-2,2.3-3.9,3.7-5.9,5.7c-2.1,2.1-3.9,4.7-6.3,6.3c-2.4,1.6-5.6,1.4-8.6,2.2c-0.2-0.2,0.3,0.7,0.1,0.5
					c1.1-2.5,1.9-5.2,3-7.7c1.1-2.5,1.7-5.3,2.9-7.8c1.1-2.5,3.2-5.4,4.4-8c-2.8,1-6,2.8-8.8,3.5c-2.9,0.7-5.8,1.1-8.7,0.9
					c-2.8-0.1-5-1.2-7.8-2.5c2.3-0.9,4-1.6,6.1-2.8c2.1-1.2,4-2.8,6.1-4.1c2-1.4,4.6-2,6.6-3.4c1-0.7,1.8-1.6,2.7-2.3
					c1.1-0.9,0.2-1.9-0.7-3.1c-1.5-1.8-3.1-3.7-4.5-5.6c-1.5-1.9-2.1-4.4-3.5-6.3c-1.4-2-2.7-3.7-3.3-5.7c-0.6-2.2-0.4-4.4,0-6.6
					c0.4-2.1,1.4-3.9,2.6-6c1.7-2.9,3.5-5.6,5.4-8.3c0.7-1,0.9-2.1,0.8-3.4c-0.1-4.2,1.5-6.8,5.1-9.1c3.4-2.2,6.3-2.8,10-0.8
					c0.6,0.3,2,0.4,2.7,0.2c2.2-0.7,4.2-0.7,6.4-0.7c2.2,0,4.1-0.1,6.3,0.9c0.5,0.2,1.5-0.6,2-0.9c3.6-1.9,7-1,10.4,1.3
					c1.8,1.2,3.2,2.3,4,4.1c0.8,1.7,0.9,3.6,0.8,5.7c-0.1,1.4,0.2,2.6,0.9,3.7c2,2.8,4.4,5.3,6.2,8.2c1.7,2.6,1.6,5.3,1.6,8
					c-0.1,2.7-0.2,5.3-1.9,7.9c-1.5,2.3-2.4,4.9-4,7.1c-1.6,2.2-3.3,4.3-4.9,6.5C510.7,55.5,510.3,55.1,510.1,55.5z M495,4.9
					c-1.7-1.1-3.4-2-5.6-2c-2.1,0-4.5,0.5-6.2,1.5c0.3,0.3,0.6,1,0.9,1.3c1.9,2.3,2.8,3.8,1.3,6.3c-1.1,1.8-2.9,3.2-4.5,4.4
					c-1.6,1.2-3.4,2.6-5.5,3.1c-3.4,0.8-7.8,1.7-10.5-2.1c-0.5,0.5-0.2,0.4-0.5,0.9c-2,3.4-4.5,6.5-6,10.1c-0.9,1.9-0.4,3.9-0.3,5.9
					c0.1,1.9,0.9,3.5,1.9,5.3c1.4,2.5,2.8,4.9,4.4,7.1c1.7,2.3,3.5,4.3,5.4,6.4c1.9,2.1,2.8,5.2,5,7c2.1,1.8,5.3,2.3,7.7,3.8
					c1.9,1.2,3.6,2.7,5.7,3.4c4.3,1.4,7.7-0.3,10.8-2.8c2-1.6,3.8-3.3,5.6-5.1c1.8-1.8,2.9-4.1,4.5-6.1c1.6-1.9,3.1-3.9,4.6-6
					c1.5-2,3.6-3.6,4.9-5.8c1.7-2.7,1.9-5.5,2-8.2c0.1-2.7,0.8-5.9-1-8.6c-1.6-2.5-3.8-4.6-5.5-7c-0.2-0.3-0.9-0.3-1.2-0.6
					c-1.3,2.5-3.5,3-5.7,2.7c-0.4-0.1-0.6-1.4-1.1-1.5c-2.5-0.5-5.2-0.4-7.2-1.7c-2-1.3-3.8-3.1-5.2-5.4c-1.1-1.7-0.5-3.1,0.9-4.7
					C494.9,6.2,494.5,5.5,495,4.9z M496,73.4c1.9,2.4,3.8,5.2,5.9,7.4c2.1,2.2,4.2,4.3,6.6,6.1c2.4,1.7,5.2,3.1,8.1,4.2
					c-1.2-2.5-3.1-4.8-4.2-7.3c-1.2-2.5-1.9-5.2-3.1-7.7c-1.2-2.5-2.8-4.9-4-7.4c0.1-0.1,1.1-1.3,1.2-1.4c2.6,0.7,5.1,2,7.8,2.6
					c2.6,0.6,5.3,1.4,8,1.4c2.6,0,4.7-0.4,7.5-1.3c-2.7-1.1-5.1-1.5-7.6-2.8c-2.6-1.3-5-2.9-7.4-4.5c-2.3-1.6-4.6-3.3-6.7-5.2
					c-0.3,0.4-0.4-0.6-0.6-0.4c-1.8,1.6-2.4,4.3-4.2,5.9c-1.7,1.6-3.9,2.8-5.7,4.3c-2,1.6-4.4,2-6.5,2.1c-2.2,0.1-4.3-0.4-6.6-1.6
					c-2.4-1.3-5.1-2.1-7.3-3.7c-2.2-1.6-4.3-3.3-6.3-5.2c-1-0.9-1.1-1.5-2.2-0.7c-2,1.5-3.5,3.5-5.5,4.9c-2,1.4-4.9,1.5-6.9,2.8
					c-2.3,1.6-4.7,3.5-7.3,5c2,0.7,4.4,1.1,6.5,1.2c2.1,0,4-0.8,6-1.3c2-0.5,4.4,0.2,6.5-0.5c1.9-0.6,4-2.1,6.1-2.8
					c-1.2,2.7-2.3,5.6-3.4,8.2c-1.1,2.6-3.1,4.9-4.3,7.6c-1.1,2.6-1.9,5.7-3.1,8.4c2.9-1.2,5.6-2.9,7.9-4.7c2.4-1.8,5.2-3.2,7.3-5.4
					c2-2.1,3.1-4.3,5-6.6c0.4,2.7,1.4,4.4,1.9,7c0.6,2.6,1.3,5.2,2.1,7.7c0.8,2.5,1.3,5.6,2.4,8.1c1.1-2.5,2.2-5.5,3-8
					c0.8-2.6,1.7-5.1,2.2-7.8C495.8,79.4,495.8,76.2,496,73.4z M471.7,18c2.6-0.3,5.2-0.5,7.4-1.9c2-1.3,4-3.2,5.3-5.7
					c0.4-0.7,0.3-2.3-0.2-3c-1.5-2.4-3.9-3.4-6.7-4.1c-3.2-0.8-6.1-0.1-8.4,2.1c-2.2,2.2-3,5.1-2.4,8.3
					C467.4,17.7,467.4,18,471.7,18z M512,13c0-2.3,0-4.4-1.1-6.1c-1.2-1.8-2.9-3.3-5-4.1c-3.4-1.2-8.2,0.5-10.8,3.6
					c-1.5,1.8-0.9,2.7,0.5,4.6c1.4,1.9,2.6,3.7,4.5,4.9c1.9,1.2,4,1.4,6.4,1.8c4.5,0.7,4.7,0.5,5.2-4C511.7,13.4,512,13.1,512,13z"
					/>
			</g>
			<path class="st0" d="M495.3,4.6c-0.5,0.6-0.9,1.3-1.4,1.8c-1.3,1.6-1.2,3.2-0.2,4.9c2.8,4.4,6.9,7,11.9,8
				c0.4,0.1,0.9,0.2,1.3,0.2c2.2,0.3,4.4,0.3,5.7-2.2c0.3,0.3,0.7,0.5,0.9,0.8c1.7,2.4,3.4,4.8,5,7.3c3.5,5.4,3.1,10.8-0.2,16.2
				c-5.4,8.6-11.7,16.4-19.7,22.8c-3.1,2.5-6.5,4.7-10.8,3.3c-2.1-0.7-4.2-1.8-6.1-3c-9.6-6.4-17.2-14.6-22.7-24.7
				c-2.1-3.7-2.4-7.7-0.8-11.5c1.6-3.6,3.8-6.9,5.7-10.3c0.3-0.5,0.8-0.9,1.3-1.4c2.7,3.7,6.4,2.8,9.8,2c4.1-1,7.4-3.5,9.6-7.2
				c1.5-2.5,1.4-3.7-0.6-6c-0.3-0.3-0.5-0.7-0.8-1C486.8,2.6,492.1,2.5,495.3,4.6z M460.9,35.5c0.1-0.1,0.2-0.2,0.3-0.3
				c1.4,0.9,2.9,1.8,4.2,2.9c0.7,0.5,1.4,1.2,1.6,2c2.7,9.2,7.9,16.5,15.6,22.1c6.7,4.9,10.1,4.3,15.3-0.5c6.6-6,11-13.3,14-21.5
				c1-2.8,3.5-3.4,5.7-5.3c-0.2,1.1-0.4,1.7-0.5,2.3c0.2,0.1,0.3,0.1,0.5,0.2c1-1.3,2-2.7,1.6-4.5c-0.3-1.6-1.4-2.9-3.1-3.7
				c1.7,2.6,1,4.4-1.3,5.9c-7.6,5.2-15.8,8.6-25.1,8.7c-6.4,0-12.4-1.9-18.1-4.5c-3.3-1.5-6.3-3.5-9.3-5.3c-1.1-0.7-1.2-1.7-0.8-2.9
				c0.3-0.8,0.5-1.6,0.7-2.3c-0.2-0.1-0.4-0.1-0.6-0.2c-1.2,1.5-2.7,2.9-2.5,5c0.1,1.4,0.7,2.9,1.8,3.8c0.1-0.1,0.3-0.1,0.4-0.2
				C461.3,36.6,461.1,36.1,460.9,35.5z"/>
			<path class="st0" d="M496.1,73.9c-0.7,8.3-2.5,15.8-6,23.4c-3.4-7.5-5.2-15-6.3-23.2c-5.9,7.1-11.6,13.7-20.2,17.3
				c3.5-8,6.8-15.7,10.3-23.7c-4.4,1.3-8.2,2.6-12.2,3.6c-4,1-8.1,1.2-12.2-0.3c2.5-1.4,5.1-2.7,7.4-4.3c4.1-2.7,8-5.6,11.9-8.5
				c1.1-0.8,1.7-0.8,2.6,0.1c3.9,3.7,8.2,7,13,9.5c4.5,2.4,8.9,2.3,12.9-0.9c3.6-3,7.1-6.2,10.6-9.4c0.2-0.2,0.3-0.4,0.6-0.9
				c6.3,5.9,13.5,10.1,21.8,13.4c-8.6,2.5-16.3,0-24-2c-0.1,0.1-0.3,0.3-0.4,0.4c3.5,7.4,7,14.9,10.6,22.6
				C507.9,87.6,501.9,81.2,496.1,73.9z"/>
			<path class="st0" d="M471.7,18.5c-4.2,0-5-0.6-5.7-4.6c-1.2-6.5,5.3-12.8,11.7-11.2c2.8,0.7,5,2.4,6.5,4.9c0.4,0.7,0.4,2,0,2.8
				C481.4,15.5,476.8,18,471.7,18.5z M475,6.7c-0.1-0.2-0.2-0.4-0.3-0.5c-0.7,0.6-1.9,1-2.1,1.8c-0.4,1.7-1,3.3-2.1,4.7
				c-0.2,0.3-0.2,1.2,0.1,1.4c0.3,0.3,1,0.2,1.5,0.1c0.3-0.1,0.7-0.4,0.9-0.7c0.7-0.9,1.4-1.5,2.7-1.6c0.6,0,1.2-0.8,1.8-1.3
				c0.6-0.5,1.3-1.1,1.8-1.7c0.4-0.5,0.8-1.1,1.1-1.7c-0.6-0.3-1.2-0.8-1.7-0.8C477.4,6.3,476.2,6.6,475,6.7z"/>
			<path class="st0" d="M512.5,13c0,0.2,0,0.5,0,0.8c-0.5,4.5-1.6,5.3-6.1,4.6c-4.7-0.7-8.5-3.1-11.3-7c-1.4-1.9-1.3-3.1,0.1-4.9
				c2.5-3.1,7.1-4.7,10.6-3.5C509.9,4.4,512.5,8.3,512.5,13z M499.4,7c0-0.1-0.1-0.3-0.1-0.4c-0.4,0.3-1.1,0.5-1.2,0.8
				c-0.2,0.4,0,1.4,0.2,1.5c1.6,0.6,2.5,1.9,3.4,3.1c0.2,0.3,0.7,0.5,1,0.5c1.2,0,2,0.7,2.8,1.5c0.5,0.5,1.5,0.5,2.3,0.7
				c-0.1-0.8,0-1.8-0.4-2.3c-0.7-1-1.2-1.8-1.3-3.1c-0.1-1.3-1-2.2-2.3-2.2C502.3,6.9,500.8,7,499.4,7z"/>
			<g>
				<path d="M461,35.5c0.2,0.6,0.6,1.1,0.8,1.6c-0.1,0.1-0.4-0.2-0.5-0.1c-1.2-0.9-2.5-1.9-2.7-3.3c-0.2-2.2,1.6-3.9,2.8-5.3
					c0.2,0.1,0.7,0.4,0.9,0.5c-0.2,0.8-0.5,1.6-0.8,2.3c-0.5,1.2-0.3,2.1,0.8,2.8c3.1,1.8,5.9,4.3,9.1,5.7c2.9,1.3,5.8,2.5,8.8,3.4
					c3,0.8,6.2,0.3,9.4,0.3c3.1,0,5.9-0.4,8.8-1.1c2.9-0.7,5.7-1.6,8.4-2.9c2.7-1.3,5.6-2.2,8.1-3.9c2.2-1.5,3.3-3.6,1.5-6.1
					c1.7,0.8,2.2,2.1,2.6,3.7c0.4,1.8-0.6,3.1-1.6,4.5c-0.2-0.1-0.5,0-0.7-0.1c0.1-0.6,0.4-1.5,0.6-2.6c-2.2,1.8-5.1,2.6-6.1,5.4
					c-1,2.7-1.8,5.5-3.2,8c-1.4,2.5-2.8,5-4.6,7.3c-1.7,2.3-3.4,4.6-5.6,6.6c-2.8,2.5-5.2,3.8-7.7,3.8c-2.2,0-4.8-1.1-7.9-3.4
					c-2.5-1.9-4.5-4.2-6.5-6.5c-2.1-2.3-3.8-4.7-5.3-7.4c-1.4-2.6-2.3-5.5-3.2-8.5c-0.2-0.8-1.3-1.4-2-1.9c-1.4-1-2.7-2.2-4.1-3.2
					C461.3,34.9,461.1,35.4,461,35.5z M497.1,44.6c-2.8,0.6-5.4,1.2-8,1c-2.7-0.1-5.8-1.1-8.5-1.8c1.5,3.8,4.2,6.2,7.6,7.7
					c0.8,0.4,1.7,0.7,2.5,0.4C494.1,50.6,496,48.4,497.1,44.6z"/>
			</g>
			<g>
				<path d="M475,6.7c1.2-0.1,2.5-0.4,3.7-0.4c0.6,0,1.2,0.5,1.8,0.8c-0.4,0.6-0.7,1.3-1.1,1.8c-0.5,0.6-1.2,1.2-1.8,1.7
					c-0.6,0.5-1.2,1.1-1.8,1.1c-1.3,0.1-2,0.8-2.7,1.7c-0.2,0.3-0.6,0.7-0.9,0.7c-0.5,0.1-1.2,0.1-1.5-0.2c-0.3-0.2-0.5-1.1-0.2-1.4
					c1.1-1.4,1.8-2.9,2.2-4.6c0.2-0.7,1.4-1.1,2.1-1.7C474.8,6.4,474.9,6.5,475,6.7z"/>
			</g>
			<g>
				<path d="M499.4,7.1c1.5,0,2.9-0.1,4.4,0c1.3,0.1,2.1,1,2.2,2.2c0.1,1.3,0.7,2.2,1.3,3.1c0.4,0.6,0.3,1.5,0.4,2.3
					c-0.8-0.2-1.7-0.3-2.2-0.8c-0.8-0.8-1.6-1.4-2.8-1.4c-0.4,0-0.8-0.3-1-0.6c-0.9-1.2-1.8-2.6-3.4-3.1c-0.2-0.1-0.4-1-0.2-1.4
					c0.2-0.4,0.8-0.6,1.2-0.9C499.3,6.7,499.3,6.9,499.4,7.1z"/>
			</g>
			<path class="st0" d="M497.3,44.6c-1.2,3.8-3.1,6.4-6.4,7.6c-0.8,0.3-2,0.2-2.9-0.2c-3.4-1.5-5.5-4.3-7-8
				C486.5,45.5,491.7,45.8,497.3,44.6z"/>
		</g>
	</g>
</g>
</svg>
