<svg xmlns="http://www.w3.org/2000/svg" viewBox="0 0 26 28"><defs><style>.cls-1{fill:#9ea8bd;}</style></defs><title>calendar</title><g id="Layer_2" data-name="Layer 2"><g id="Layer_1-2" data-name="Layer 1"><path class="cls-1" d="M26,26a2,2,0,0,1-2,2H2a2,2,0,0,1-2-2V6A2,2,0,0,1,2,4H4V2.5A2.51,2.51,0,0,1,6.5,0h1A2.51,2.51,0,0,1,10,2.5V4h6V2.5A2.51,2.51,0,0,1,18.5,0h1A2.51,2.51,0,0,1,22,2.5V4h2a2,2,0,0,1,2,2Zm-2,0V10H2V26ZM8,2.5A.49.49,0,0,0,7.5,2h-1a.49.49,0,0,0-.5.5V7a.49.49,0,0,0,.5.5h1A.49.49,0,0,0,8,7Zm12,0a.49.49,0,0,0-.5-.5h-1a.49.49,0,0,0-.5.5V7a.49.49,0,0,0,.5.5h1A.49.49,0,0,0,20,7Z"/></g></g></svg>