<svg xmlns="http://www.w3.org/2000/svg" viewBox="0 0 23.67 23.67"><defs><style>.cls-1{fill:#9ea8bd;}</style></defs><title>edit</title><g id="Layer_2" data-name="Layer 2"><g id="Layer_1-2" data-name="Layer 1"><path class="cls-1" d="M19.5,10.67l-13,13H0v-6.5l13-13ZM7.09,20.25,3.42,16.58,2,18v1.67H4v2H5.67ZM13.5,6.83a.37.37,0,0,0-.27.11L4.77,15.41a.37.37,0,0,0-.11.27A.33.33,0,0,0,5,16a.37.37,0,0,0,.27-.11l8.47-8.47a.37.37,0,0,0,.11-.27A.33.33,0,0,0,13.5,6.83Zm9.59.25L20.5,9.67,14,3.17,16.59.59A2,2,0,0,1,18,0a2,2,0,0,1,1.42.59l3.67,3.66a2.08,2.08,0,0,1,.58,1.42A2,2,0,0,1,23.09,7.08Z"/></g></g></svg>