<svg xmlns="http://www.w3.org/2000/svg" viewBox="0 0 28 24"><defs><style>.cls-1{fill:#9ea8bd;}</style></defs><title>external</title><g id="Layer_2" data-name="Layer 2"><g id="Layer_1-2" data-name="Layer 1"><path class="cls-1" d="M22,19.5A4.5,4.5,0,0,1,17.5,24H4.5A4.5,4.5,0,0,1,0,19.5V6.5A4.5,4.5,0,0,1,4.5,2h11a.49.49,0,0,1,.5.5v1a.49.49,0,0,1-.5.5H4.5A2.51,2.51,0,0,0,2,6.5v13A2.51,2.51,0,0,0,4.5,22h13A2.51,2.51,0,0,0,20,19.5v-5a.49.49,0,0,1,.5-.5h1a.49.49,0,0,1,.5.5ZM28,9a1,1,0,0,1-1,1,1,1,0,0,1-.7-.3L23.55,7,13.36,17.14a.49.49,0,0,1-.72,0l-1.78-1.78a.49.49,0,0,1,0-.72L21,4.45,18.3,1.7A1,1,0,0,1,18,1a1,1,0,0,1,1-1h8a1,1,0,0,1,1,1Z"/></g></g></svg>