<svg xmlns="http://www.w3.org/2000/svg" viewBox="0 0 28 25"><defs><style>.cls-1{fill:#9ea8bd;}</style></defs><title>reply</title><g id="Layer_2" data-name="Layer 2"><g id="Layer_1-2" data-name="Layer 1"><path class="cls-1" d="M26,23.55a8.33,8.33,0,0,1-.58,1.19A.49.49,0,0,1,25,25a.51.51,0,0,1-.5-.55c0-.25.06-.53.08-.78,0-.64.08-1.28.08-1.92C24.66,14.3,20.23,13,13.5,13H10v4a1,1,0,0,1-1,1,1,1,0,0,1-.7-.3l-8-8A1,1,0,0,1,.3,8.3l8-8A1,1,0,0,1,9,0a1,1,0,0,1,1,1V5h3.5c5.13,0,11.5.91,13.67,6.3A14.08,14.08,0,0,1,28,16.5C28,18.69,26.91,21.55,26,23.55Z"/></g></g></svg>