<svg xmlns="http://www.w3.org/2000/svg" viewBox="0 0 28 20"><defs><style>.cls-1{fill:#9ea8bd;}</style></defs><title>youtube</title><g id="Layer_2" data-name="Layer 2"><g id="Layer_1-2" data-name="Layer 1"><path class="cls-1" d="M27.5,16.78a3.55,3.55,0,0,1-3,2.83A93.79,93.79,0,0,1,14,20a93.79,93.79,0,0,1-10.48-.39,3.58,3.58,0,0,1-3-2.83A31.69,31.69,0,0,1,0,10,30.72,30.72,0,0,1,.5,3.22a3.56,3.56,0,0,1,3-2.83A93.79,93.79,0,0,1,14,0,93.79,93.79,0,0,1,24.48.39a3.58,3.58,0,0,1,3,2.83A31.69,31.69,0,0,1,28,10,30.72,30.72,0,0,1,27.5,16.78Zm-8-7.62-8-5a1,1,0,0,0-1,0A1,1,0,0,0,10,5V15a1,1,0,0,0,.52.88A1.06,1.06,0,0,0,11,16a.92.92,0,0,0,.53-.16l8-5a1,1,0,0,0,0-1.69Z"/></g></g></svg>