<?xml version="1.0" encoding="utf-8"?>
<!-- Generator: Adobe Illustrator 19.1.0, SVG Export Plug-In . SVG Version: 6.00 Build 0)  -->
<svg version="1.1" id="Ebene_1" xmlns="http://www.w3.org/2000/svg" xmlns:xlink="http://www.w3.org/1999/xlink" x="0px" y="0px"
	 viewBox="0 0 708.9 137.4" style="enable-background:new 0 0 708.9 137.4;" xml:space="preserve">
<g>
	<g>
		<path d="M113,93.4v-0.2l-0.1-0.2c-4.2,1.1-6.3,4-6.3,8.6v0.2c0,0.9,0.2,2.9,0.7,6.2v0.4l-0.2,0.5c-1.8,1.8-2.9,3.1-3.4,3.8
			c-1.7,2.4-2.5,5.4-2.5,8.8c0,2.2,0.2,3.9,0.5,5.2c1.2,5.2,3.9,7.9,8,8.3h0.1c2.3,0,3.4-0.6,3.4-1.9l0.4,0.9l2.3-1.4v-0.2l-0.3-1.4
			c0.2,0,0.4-0.5,0.6-1.4l-0.4,0.1v-0.3l0.1-0.4h0.1l0.7,1.4l-0.3,0.8l0.2,0.7l0.7-0.4c0.3,0,0.6,0.3,1,1c0,0.7,0.7,1.1,2.2,1.1h0.6
			l0.6-0.2l0.9,0.4l0.1-0.2l0.9,0.2h1.6c0.8,0,1.3-0.3,1.6-0.9v-0.2l-0.1-0.2c-2.3-4.6-3.5-7.3-3.5-8.1l0.2-1.4
			c1.5-2.3,2.6-4.1,3.1-5.5v-0.3l-2.5-5.7c-0.4,0-0.8,0.4-1.3,1.1c-1.6,2.9-2.6,4.3-2.9,4.3h-0.5c-1-1.6-1.5-2.8-1.6-3.6l0.1-0.9
			c3.1-2.7,4.6-5.8,4.6-9.5c0-6.8-2.6-10.2-7.7-10.2h-1.6L113,93.4L113,93.4z M113.1,93.5v0.3H113v-0.3H113.1L113.1,93.5z
			 M111.9,95.9h0.2l0.1,0.5h-0.4v-0.2L111.9,95.9L111.9,95.9z M112.8,96.1l0.1,0.2c-0.1,0.7-0.1,1-0.2,1h-0.1v-0.5h0.2v-0.2
			l-0.1-0.1v-0.2L112.8,96.1L112.8,96.1L112.8,96.1z M113.2,96.5l0.1,0.3v0.4h-0.1l-0.1-0.4L113.2,96.5L113.2,96.5L113.2,96.5z
			 M115.3,101h0.2c0.9,0,1.4,0.7,1.4,2.2c0,1.5-0.6,2.6-1.9,3.3c-0.6-0.9-0.9-1.7-0.9-2.4V103C114,101.9,114.4,101.2,115.3,101
			L115.3,101L115.3,101z M111.4,103.4h0.2v0.5h-0.2l-0.1-0.2L111.4,103.4L111.4,103.4z M113,105.9v0.5h-0.3l-0.1-0.2l0.2-0.5
			L113,105.9L113,105.9z M114.2,106.3l0.1,0.2c0.2,0,0.4,0.6,0.5,1.9h-0.1l-0.1,0.2l-0.4-0.5l0.1-0.2v-0.2c-0.4,0-0.6-0.4-0.6-1.2
			L114.2,106.3L114.2,106.3z M111.1,108l0.2,0.4l-0.6,0.3h-0.2V108H111.1L111.1,108z M111.6,108.7v0.4c0.2,0.2,0.3,0.4,0.3,0.5v0.2
			l-0.1,0.2l0.4,0.5l-0.2,0.4h-0.2l-0.1-0.2l0.1-0.5l-0.4-0.7L111.6,108.7L111.6,108.7L111.6,108.7z M113.4,108.9L113.4,108.9
			c0.1,0.7-0.1,1.1-0.4,1.4v-0.1l-0.1-0.2L113.4,108.9L113.4,108.9z M114.7,109.6v0.2h-0.1v-0.2H114.7L114.7,109.6z M110.3,111.5
			l0.1-0.5l0.1-0.2h0.1v0.4l-0.3,1h-0.1l-0.1-0.2l-0.3,0.4l-0.2-0.8v-0.2L110.3,111.5L110.3,111.5L110.3,111.5z M111.9,111.5v0.3
			c0,0.4-0.2,0.6-0.7,0.9H111C111,112.3,111.3,111.9,111.9,111.5L111.9,111.5L111.9,111.5z M108,112.3L108,112.3l0.1,0.2l-0.1,0.4
			h-0.1v-0.2L108,112.3L108,112.3z M110,112.9h0.3v0.2l-0.2,0.3h-0.1l-0.1-0.2L110,112.9L110,112.9z M111.1,113.7v0.2l0.1,0.2v0.5
			l-0.1,0.1l0.3,0.4c0,0.9-0.1,1.4-0.2,1.4H111v-1l-0.3-0.7h-0.6l0.1-0.9h0.5L111.1,113.7L111.1,113.7z M108.9,113.9L108.9,113.9
			c0.2,0,0.3,0.4,0.4,1.2h-0.4l-0.2-0.8L108.9,113.9L108.9,113.9z M107.7,114.7h0.2l0.2,1.4h-0.4l-0.1-0.2l-0.2,0.3l-0.2-0.3
			C107.2,115.4,107.4,115,107.7,114.7L107.7,114.7L107.7,114.7z M103.4,115.3l0.1,0.4l-0.1,0.5l-0.2-0.4v-0.2L103.4,115.3
			L103.4,115.3z M111.9,116v0.2h-0.1V116H111.9L111.9,116z M112.2,116c0,0.7,0.1,1,0.2,1c0,0.9,0.1,1.4,0.4,1.4v0.7h-0.3v-0.4h-0.2
			l-0.1,0.4v0.1l0.5,1.1h0.1l-0.1-0.2c0-0.6,0.1-0.9,0.2-0.9h0.3v0.7c0,0.4-0.1,0.5-0.4,0.5c0.2,0.7,0.5,1.3,0.9,2.1l0.3-0.4h0.1
			l0.2,0.4l-0.3,0.7l0.1,1c0,0.8-0.5,1.3-1.6,1.6c-0.4,0-0.6,0.3-0.6,0.9l-0.2-0.4l-2.1-1.4c-0.7-1-1.2-2.1-1.3-3.5v-1.2
			c0.2-2.5,0.8-3.8,1.8-3.8h0.3l1.3,2.1l0.1-0.2l-0.1-1.7V116H112.2L112.2,116z M117.9,117.2h0.2v0.5c-0.3,0-0.4,0.2-0.4,0.7h-0.2
			l-0.1-0.4v-0.2L117.9,117.2L117.9,117.2z M103.3,117.5L103.3,117.5c0.3,0,0.4,0.6,0.5,1.9l-0.1,0.2c-0.4-0.2-0.6-0.6-0.7-1.2V118
			L103.3,117.5L103.3,117.5z M106.4,118.4v0.2l-0.2,0.4h-0.1l-0.1-0.7L106.4,118.4L106.4,118.4z M119.5,118.5L119.5,118.5l0.2,0.2
			l-0.1,0.8l-0.3-0.5v-0.2L119.5,118.5L119.5,118.5z M120,118.5l0.1,0.2l-0.2,0.4l-0.1-0.4v-0.2H120L120,118.5z M102.9,118.9
			l0.2,0.5v0.2l-0.1,0.2l0.7,2.1h-0.1v0.3h-0.2c-0.2-0.8-0.4-1.2-0.6-1.2v-0.3l0.1-0.2l-0.1-0.2L102.9,118.9L102.9,118.9
			L102.9,118.9z M118.1,118.9l-0.2,0.3v-0.3H118.1L118.1,118.9z M102.2,119.1l0.2,0.3v0.2h-0.2l-0.2-0.4v-0.1H102.2L102.2,119.1z
			 M105.6,119.1v0.3c0.2,0,0.3,0.1,0.3,0.4l-0.2,0.4l-0.3-0.7v-0.3H105.6L105.6,119.1z M120.8,119.9v0.5h-0.1v-0.5H120.8
			L120.8,119.9z M105.2,121.1v0.5H105v-0.2L105.2,121.1L105.2,121.1z M104.7,121.5h0.1v1l-0.1,0.2c-0.2,0-0.3,0.1-0.3,0.4v0.8h0.3
			c0,0.7,0.4,1.2,1.2,1.6l0.5-0.3l0.2,1.9v0.2l-0.6,0.4l-0.3-0.2c0-1.2-0.3-1.7-0.6-1.7l-0.4,0.2l-0.1-0.5l0.1-0.1v-0.4h-0.2
			l-0.1,0.2l-0.2-0.7c-0.4-0.3-0.6-0.8-0.6-1.6l0.2-1l0.3,0.4h0.1L104.7,121.5L104.7,121.5z M106.3,121.8l0.1,1.2h-0.2l0.1-0.2
			l-0.1-0.5c-0.2,0.1-0.3,0.4-0.3,0.7l0.1,0.7h-0.2v-0.3h-0.3l-0.1,0.2v-0.2l-0.1-0.2C105.6,122.3,105.9,121.8,106.3,121.8
			L106.3,121.8L106.3,121.8z M107.2,122v0.1l0.1,0.2l-0.2,0.4h-0.3C106.9,122.4,107,122.2,107.2,122L107.2,122L107.2,122z
			 M107.8,122.1l0.1,0.2l-0.2,0.4h-0.1v-0.4L107.8,122.1L107.8,122.1L107.8,122.1z M121.7,122.5v0.7l-0.1,0.4h-0.1v-1.1H121.7
			L121.7,122.5z M118.1,123L118.1,123l0.3,0.4v0.5l-0.3,0.2l-0.4-0.4L118.1,123L118.1,123z M120.5,123l0.2,0.4l-0.4,0.5h-0.1
			l-0.1-0.2C120.2,123.4,120.3,123.1,120.5,123L120.5,123L120.5,123z M121.8,124.2c0.1,0,0.2,0.3,0.3,0.9l-0.4,1.4
			c-0.2,0-0.2,0.2-0.2,0.5h-0.2l-0.2-0.9v-0.2C121.1,124.8,121.3,124.2,121.8,124.2L121.8,124.2L121.8,124.2z M119.3,124.4h0.2v1.2
			h-0.1c-0.1,0-0.2-0.3-0.3-0.8L119.3,124.4L119.3,124.4z M102.9,124.6l0.1,0.5l-0.1,0.3h-0.1l-0.1-0.2L102.9,124.6L102.9,124.6
			L102.9,124.6z M120.1,125.8l0.1,0.2v0.2l-0.1,0.2l-0.2-0.4v-0.2H120.1L120.1,125.8z M115.5,126.1l0.3-0.2c0.3,0.6,0.6,0.8,0.7,0.8
			l-0.2,0.5h-0.2c-0.1,0-0.2-0.3-0.2-0.8l-0.6,0.2l-0.3-0.4v-0.2l0.1-0.2L115.5,126.1L115.5,126.1z M119.4,126.7v0.7l-0.1,0.2
			l-0.1-0.4v-0.5H119.4L119.4,126.7z M120.7,126.7c0,0.3,0.1,0.5,0.4,0.5v0.2l-0.3,0.5h-0.1v-0.7l-0.1,0.2l-0.1-0.4v-0.3H120.7
			L120.7,126.7z M115.3,127.3l-0.1,0.5l0.1,0.7H115v-1.2H115.3L115.3,127.3z M120.1,127.7l0.1,0.5H120L120.1,127.7L120.1,127.7
			L120.1,127.7z M113.5,128.4v0.2l-0.4,0.2l-0.3-0.4l0.2-0.5C113.2,127.9,113.4,128,113.5,128.4L113.5,128.4L113.5,128.4z
			 M118.9,127.9v0.3l-0.1,0.4h-0.1l-0.2-0.4V128L118.9,127.9L118.9,127.9z M115.3,129.2v0.2l-0.1,0.2l-0.1-0.4H115.3L115.3,129.2z
			 M117.1,129.6v0.1h-0.1l-0.1-0.1v-0.2l0.1-0.2L117.1,129.6L117.1,129.6z M120.2,129.9c0,0.5,0,1,0.1,1.2l-0.1,0.3h-0.6v-0.3
			c0.2-0.4,0.3-0.9,0.3-1.2H120.2L120.2,129.9z M104.8,130.1v0.5h-0.2v-0.5H104.8L104.8,130.1z M112.9,131.1l-0.1,0.3h-0.3l-0.1-0.2
			v-0.1l0.1-0.2L112.9,131.1L112.9,131.1z M120.7,131.6v0.4h-0.1v-0.4H120.7L120.7,131.6z M114.9,132.3v0.3h-0.2v-0.3H114.9
			L114.9,132.3z M150.2,103.5c-0.9,0-1.3,0.6-1.3,1.9l0.3,0.7l0.5-0.1l0.2,0.3v0.1l-0.6,0.1v0.1l0.2,0.4l0.1-0.1
			c0.5,0,0.7,0.4,0.6,1.2c-0.1,0.8-0.3,1.2-0.6,1.2v-0.4l0.1-0.1l-0.6-0.6l-0.3,0.7c-2,0.4-3,0.7-3,1l0.1,0.7l-0.1,0.8v4l0.1,0.6
			c1.8,0.6,2.8,1.1,2.9,1.6l0.2,9.6l-0.1,0.6l0.2,1l-0.1,0.7l0.4,2c0.9,3,3,4.5,6.2,4.5h0.8c2.9-0.3,4.3-1,4.3-2.2v-3.6
			c0-0.5-0.2-0.9-0.7-1.3c-0.9,0-1.3-1.3-1.3-4l0.1-0.6l-0.1-0.7l0.1-1.4l-0.1-0.8l0.1-2.6l-0.1-1.6l2.5-0.9
			c0.8-0.3,1.1-0.7,1.1-1.3V110c0-0.7-1.2-1.2-3.5-1.3c-0.1-0.8-0.2-1.1-0.4-1.1h-0.1l0.4-1.6v-0.6c0-2.8-0.4-4.2-1.1-4.2
			C156.8,101.2,154.3,102,150.2,103.5L150.2,103.5L150.2,103.5z M155.1,102.8c0,0.2,0.1,0.5,0.4,0.7v0.3h-0.4l-0.2-0.8v-0.1H155.1
			L155.1,102.8z M152.9,103.1v0.3h-0.2v-0.3H152.9L152.9,103.1z M153.2,103.7h0.3v0.4l-0.2,0.4l-0.4-0.1v-0.4L153.2,103.7
			L153.2,103.7z M152.3,104.1h0.2l0.3,0.3c0,0.2-0.1,0.3-0.4,0.3h-0.1L151,105v-0.1C151,104.6,151.5,104.3,152.3,104.1L152.3,104.1
			L152.3,104.1z M156.1,106v0.3c0,0.2-0.1,0.3-0.4,0.1C155.8,106.1,155.9,106,156.1,106L156.1,106L156.1,106z M149.2,109.4h0.2v0.1
			h-0.1l-0.7,0.7v-0.1l-0.1-0.1v-0.1C148.6,109.6,148.8,109.5,149.2,109.4L149.2,109.4L149.2,109.4z M148.6,112c0.1,0,0.3,0.3,0.5,1
			v0.1h-0.2c0-0.5-0.6-0.7-1.8-0.8v-0.4L148.6,112L148.6,112z M158.4,114.9v0.3h-0.2v-0.3H158.4L158.4,114.9z M158.4,115.5v0.3h-0.1
			v-0.3H158.4L158.4,115.5z M155.6,115.6l0.2,0.3v0.1h-0.4l-0.1-0.1L155.6,115.6L155.6,115.6z M158.6,116.6v0.3h-0.1l-0.2-0.3v-0.1
			l0.1-0.1L158.6,116.6L158.6,116.6z M158.4,121.2l0.1,0.1l-0.3,0.4l-0.1-0.4L158.4,121.2L158.4,121.2z M156.2,121.6L156.2,121.6
			l0.1,0.4h-0.4v-0.3L156.2,121.6L156.2,121.6z M157.8,123.5h0.2v0.3l-0.2,0.3h-0.2v-0.3L157.8,123.5L157.8,123.5z M170.6,90.4
			l-0.1,0.7c-0.4,0-0.6,0.1-0.6,0.3l-0.6-0.1V91h0.1l0.6,0.1l0.2-0.7H170l-1,0.1l-1-0.1h-0.2c-0.5,0-1,0.4-1.3,1.1
			c0,0.3,0.2,0.4,0.6,0.4v0.3c-0.4,0-0.6,0.1-0.6,0.4l0.1,1.6l-0.1,1.3v0.3l0.1,0.1l-0.1,0.1v0.4l0.1,0.7l-0.1,0.1v0.2l0.1,0.1
			l-0.1,2.2l-0.2,9.3l-0.1,1.6v4.2c0,0.3,0.1,0.7,0.4,1l-0.4,0.6v3.7l0.1,1.3l-0.1,1.5v10.5c0,1.1,0.4,1.6,1.3,1.6h6.6
			c1.7,0,2.6-0.5,2.6-1.6v-0.1l-0.1-0.1l0.1-3.9v-2.5l-0.1-1h0.1v-0.3l-0.1-1.1l0.1-1.9v-1.8c0.3-1.9,0.7-2.8,1.1-2.8
			c0-0.8,0.2-1.3,0.7-1.5h0.3v0.4c1.4-0.5,2.6-0.7,3.6-0.7c1.5,0,2.4,0.4,2.9,1.1c0.8,0,1.4,1.8,1.8,5.5l-0.1,0.9l0.1,0.1l-0.1,0.1
			v0.3c0.6,0,0.9,0.4,0.9,1.2v0.2h-0.1c-0.2,0-0.3-0.3-0.4-0.8H187v0.8l0.2,0.3h0.6v0.4H187l-0.3,1.5l0.3,2.2l0.6-0.3v-0.1l-0.1-0.1
			l0.3-0.3h0.2l0.2,0.9v1.2l-0.7-0.1l-0.6,0.3l0.1,0.1l-0.3,1.2l0.5,1.6l-0.1,0.6l0.5,0.3h0.1l0.1-0.1l0.1,0.1h2.1l0.7-0.3l1.1,0.3
			h3.7l0.6-0.1c0-0.5,0.1-0.7,0.4-0.7c0.4,0,0.6-0.7,0.6-2.1v-0.9l-0.1-1.2l0.1-1.6v-10.1c0-4-1.3-7-4-8.9H193
			c-0.2,0-0.3,0.2-0.4,0.6h-0.7l-0.6,0.1l-0.4-1l0.1-0.1v-0.1l-0.1-0.1l-0.6,0.1h-0.2c-0.2,0-0.4-0.4-0.5-1.1h-0.4v0.1
			c0,0.2,0.1,0.3,0.4,0.3l-0.2,0.3H189v-0.5l-1-0.6h-0.1l-0.1,0.1l-1.3-0.3l-0.6,0.3c0-0.2-0.3-0.3-1-0.4v0.1
			c-1.5,0-2.2,0.3-2.2,0.9l-0.4-0.3h-0.1c-0.4,0-0.8,0.3-1,0.8l-1.5,0.6h-0.2l-0.7-0.3l-1.6,0.6c-0.6,0-0.7-3.7-0.5-11v-0.1l0.1-0.1
			l-0.1-0.1v-1.3l0.1-0.1l-0.3-0.7l0.3-0.7c-0.1-0.8-0.3-1.2-0.6-1.2V94l0.1-0.1l-0.1-0.1v-0.3c0.4,0,0.6-0.1,0.6-0.3v-1.8
			c0-0.8-0.4-1.2-1.2-1.2h-2.2l-0.9,0.1v-0.1h-0.2L170.6,90.4L170.6,90.4z M168.2,91.1h0.1l-0.1,0.5h-0.1l-0.1-0.1L168.2,91.1
			L168.2,91.1z M173,92.6l-0.1,0.6v0.2l0.1,0.1l-0.1,0.4l-0.4-0.1v-0.9l0.2-0.3H173L173,92.6z M169.6,92.8v0.6l-0.2,0.3h-0.2
			l-0.1-0.1l0.1-0.8H169.6L169.6,92.8z M169.8,93.7l0.1,0.1V94h-0.1l-0.1-0.1v-0.1H169.8L169.8,93.7z M167.3,94.1l0.2,0.3h-0.4v-0.3
			H167.3L167.3,94.1z M169.5,94.2v0.4h-0.4v-0.4H169.5L169.5,94.2z M171.5,95l0.1,0.1l-0.2,0.3h-0.3l-0.6-0.1V95H171.5L171.5,95z
			 M168.9,95.3h0.3l0.2,0.3v0.1l-0.6,0.1h-0.1v-0.3L168.9,95.3L168.9,95.3z M167,96l0.1,0.4l-0.1,0.1l-0.3-0.3V96H167L167,96z
			 M169.7,97.4c0,0.5,0.1,0.8,0.4,0.8l-0.5,0.7h-0.1c0-0.4-0.1-0.6-0.4-0.6l0.1-0.9H169.7L169.7,97.4z M168.9,97.8V98h-0.2v-0.1
			H168.9L168.9,97.8z M190.8,110.3l0.1,0.1v0.1l-0.1,0.1h-0.1l-0.1-0.1v-0.1l0.1-0.1H190.8L190.8,110.3z M178.5,113.3v0.1l0.1,0.1
			l-0.3,0.3l-0.2-0.3v-0.1L178.5,113.3L178.5,113.3z M175.6,115.5v0.4h-0.4v-0.6l0.1-0.1L175.6,115.5L175.6,115.5z M177.9,115.5h0.2
			v0.1c-0.2,0.3-0.5,0.6-1,0.7H177l-0.1-0.1L177.9,115.5L177.9,115.5z M169.5,116.1v0.3l-0.5,0.1v-0.4H169.5L169.5,116.1z
			 M169.4,117l0.1,0.1v0.1l-0.4-0.1V117H169.4L169.4,117z M168.9,117.6l0.1,0.1v0.1l-0.1,0.1l-0.3-0.3v-0.1H168.9L168.9,117.6z
			 M170.5,118v0.3h-0.1V118H170.5L170.5,118z M170,123v0.1h-0.2V123H170L170,123z M167.5,123.8v0.3h-0.2v-0.3H167.5L167.5,123.8z
			 M175.8,124.5v0.4h-0.1l-0.3-0.3v-0.1H175.8L175.8,124.5z M188.2,134.3v0.2H188v-0.2H188.2L188.2,134.3z M205.2,103.9
			c-2.9,3.4-4.4,7.6-4.4,12.7l0.1,0.9l-0.1,1.1c0,1.5,0.3,3.6,0.9,6.2c1.9,7.4,6.4,11.1,13.7,11.1h1.3c3.7,0,6.7-0.8,9.1-2.3
			c2.8-2.5,4.2-5.2,4.2-8.1c0-0.5-0.1-0.7-0.3-0.7L229,125l-0.6-0.2h-0.1l-0.5,0.2l-0.6-0.2h-1.5l-0.1,0.2l-0.1-0.2h-5
			c-0.4,0-1.8,0.8-4.2,2.3c-3.2-0.5-4.8-1.8-4.8-3.8v-0.5c1.2-0.4,2.2-0.5,3.2-0.5h4l1-0.2c0.2,0,0.3-0.2,0.3-0.7h0.1l0.2,0.4v0.2
			l-0.1,0.2h0.1l0.1,0.2h0.3l0.1-0.2l0.1,0.2h0.8l0.6-0.2l0.1,0.2v-0.2l0.8,0.2l0.3-0.2l1.2,0.2h3.8l0.5-0.2l0.1,0.2
			c0.9-0.2,1.4-0.7,1.4-1.6l-0.1-1.4l0.1-0.5h-0.1l0.1-0.9c0-3.6-0.8-7.1-2.5-10.3c-1.5-3-3.8-5.1-6.7-6.3l-0.4,0.4
			c0-0.5-0.9-0.9-2.7-1.1h-2.9C211,100.5,207.7,101.7,205.2,103.9L205.2,103.9L205.2,103.9z M209.9,106.4v0.2l-0.2,0.4v-0.5H209.9
			L209.9,106.4z M224.8,107.3h0.1l0.2,0.4l-0.2,0.4l-0.3-0.4L224.8,107.3L224.8,107.3z M222.8,107.8v0.4h-0.3v-0.4H222.8
			L222.8,107.8z M225.2,108.2v0.4H225v-0.4H225.2L225.2,108.2z M215.4,109.3h0.4c2.9,0.6,4.4,1.8,4.4,3.6c0,0.6-1.9,0.9-5.6,0.9H212
			c-0.4,0-0.8-0.2-1.1-0.7C211,111.3,212.4,110,215.4,109.3L215.4,109.3L215.4,109.3z M208.2,109.5h0.2l-0.6,0.9h-0.1v-0.7
			L208.2,109.5L208.2,109.5z M225.1,110.2l-0.2,0.4h-0.1v-0.4H225.1L225.1,110.2z M227.3,111.2h-0.2v-0.4L227.3,111.2L227.3,111.2z
			 M209.6,111.6L209.6,111.6l0.1,0.5h-0.3v-0.2L209.6,111.6L209.6,111.6z M225.7,112.1v0.4h-0.3v-0.4H225.7L225.7,112.1z
			 M227.5,113.2l0.6,0.2l-0.4,0.9h-0.2l-0.1-0.2L227.5,113.2L227.5,113.2L227.5,113.2z M221.6,115.2l0.1,0.2l-0.2,1.3h-0.2v-1.4
			H221.6L221.6,115.2z M209,115.5v0.4h-0.1L209,115.5L209,115.5L209,115.5z M229.3,115.9l0.2,0.4v0.2h-0.3l-0.6-0.2v-0.4H229.3
			L229.3,115.9z M222.3,116.4v0.5l-0.3-0.2v-0.6l0.1-0.2L222.3,116.4L222.3,116.4z M227.2,116.2h0.2l0.2,0.4v0.2l-0.3,0.2
			c-0.2,0-0.3-0.1-0.3-0.4L227.2,116.2L227.2,116.2z M212.9,117v0.2h-0.2V117H212.9L212.9,117z M222.7,117.5v0.5l-0.3,0.2V118
			l-0.1-0.2v-0.4H222.7L222.7,117.5z M219.8,119.4h0.1c0.1,0,0.2-0.2,0.2-0.5h0.2v-0.2h-0.2v-0.2h0.3c0,1.4-0.1,2.1-0.3,2.1H220
			l-0.2-0.7h-0.1l-0.1,0.2l-0.3-0.4l0.2-1.4C219.7,118.5,219.8,118.8,219.8,119.4L219.8,119.4L219.8,119.4z M222.5,118.4v0.4h-0.2
			v-0.4H222.5L222.5,118.4z M220.6,119.6l0.1-0.2h0.7l0.1,0.2l0.1-0.2h0.2l0.1,0.2v0.2l-0.1,0.2l-0.3-0.2l-0.9,0.6L220.6,119.6
			L220.6,119.6L220.6,119.6z M222.1,120.5v0.2h-0.2v-0.2H222.1L222.1,120.5z M260.6,96.7l-0.2-0.2c-1.2,0.2-2,0.5-2.5,0.8
			c-2.2,0.7-4.2,2.9-6.2,6.7c-1.4,4.2-2.1,8.3-2.1,12.3v0.5c0,2.6,0.2,4.8,0.5,6.7l0.5-0.2v0.3c0,0.2-0.1,0.3-0.4,0.5
			c0,0.6,0.1,1,0.2,1c0.2,1.9,0.8,3.8,1.8,5.7h0.1l-0.1-0.9l0.2-0.5h0.1c0,0.3,0.1,0.5,0.3,0.8c0,0.3,0.1,0.5,0.3,0.5v0.5l-0.1,0.1
			h0.1l0.1,0.2l-0.1,0.8c0.1,0.3,0.3,0.6,0.6,0.9l0.2-0.3c0.4,2.1,2.9,3.4,7.5,4h1c0.9,0,1.4-0.1,1.7-0.3v0.1
			c1.2-0.3,1.9-0.7,2.1-1.1l0.1,0.3c0.2,0,1.4-0.9,3.5-2.8c0,1.8,0.3,2.7,0.6,2.7h0.6l1.9-0.1l0.7,0.1h0.1c0.4,0,0.6-0.3,0.6-0.9
			l-0.3-9.9v-2.1l0.1-4l-0.1-0.5l-0.1,2.4c0-0.8-0.1-1.3-0.2-1.3l0.1-0.8c-0.2-0.6-0.4-0.9-0.6-0.9h-1.9l-0.9,0.1l-0.3-0.1h-0.1
			l-0.1,0.1v-0.1l-0.4,0.3c0-0.2-0.4-0.3-1.1-0.3H266l-0.4,0.1l-0.4-0.1h-1.2c-0.5,0.2-0.7,0.8-0.7,2.1l0.1,1.2
			c0,1.6,0.2,2.4,0.6,2.4h1.9l0.2,0.5v0.3c-0.3,1.9-1.5,2.8-3.7,2.8c-1,0-1.8-0.3-2.5-0.9c-1.7-1.6-2.6-4.4-2.6-8.5v-0.3l0.1-2.5
			c0.7-5.3,2.2-7.9,4.4-7.9c1.5,0,2.6,0.9,3.3,2.8c0.3,1.2,1.2,1.7,2.7,1.7l0.4-0.1l0.2,0.1l0.8-0.1h0.1l0.1,0.1h0.1l0.1-0.1
			l0.5,0.1l0.2-0.1c0-0.4,0-0.6,0.1-0.6h0.1c0.1,0.5,0.4,0.8,0.6,0.8h1.6c0.4,0,0.8-0.2,1.1-0.6l-0.1-0.6l0.1-0.5
			c0-1.3-0.5-3.3-1.6-6c-1.3-2.9-3.3-5-5.9-6.2l-0.2,0.2c0-0.2-0.2-0.4-0.7-0.5h-0.1l-0.1,0.1l-0.6-0.5h-0.5l-0.2,0.3H264l-0.6-0.6
			l-0.4,0.3l-0.7-0.3l-0.4,0.3l-0.7-0.3L260.6,96.7L260.6,96.7z M262.6,97l0.1,0.3v0.5l-0.1,0.1l-0.2-0.5v-0.2L262.6,97L262.6,97z
			 M261.8,97.3h0.1v0.3c0,0.2-0.1,0.4-0.4,0.6l-0.2-0.2C261.4,97.6,261.5,97.3,261.8,97.3L261.8,97.3L261.8,97.3z M264,97.5
			L264,97.5L264,98h-0.1l-0.1-0.1L264,97.5L264,97.5z M265.1,98.1v0.5h-0.1v-0.2L265.1,98.1L265.1,98.1z M258.1,99.6l-0.1,0.3h-0.1
			v-0.5l0.1-0.2L258.1,99.6L258.1,99.6z M262.2,99.7v0.3h-0.1L262.2,99.7L262.2,99.7L262.2,99.7z M257.1,103.2l0.1-0.1l0.3,0.8
			l0.4-0.8v0.5l-0.4,0.8h-0.1C257.2,104.3,257.1,103.9,257.1,103.2L257.1,103.2L257.1,103.2z M258.3,103.5v0.1h-0.1v-0.5
			L258.3,103.5L258.3,103.5z M258.6,103.2v0.3l-0.1-0.3H258.6L258.6,103.2z M259.1,103.5v0.3H259L259.1,103.5L259.1,103.5
			L259.1,103.5z M267.9,105.7v0.6h-0.1v-0.6H267.9L267.9,105.7z M269,105.7l0.1,0.3v0.2H269l-0.1-0.3v-0.2H269L269,105.7z
			 M269.8,106v0.3h-0.1V106H269.8L269.8,106z M270.4,107.5l-0.1,0.9h-0.1l-0.1-0.1l-0.2,0.3h-0.3l0.1-1.1l0.4,0.1l0.1-0.6
			L270.4,107.5L270.4,107.5z M269.4,108.3l0.1,0.5c0,0.3,0,0.5-0.1,0.5h-0.1l-0.1-0.1L269.4,108.3L269.4,108.3L269.4,108.3z
			 M270,108.7l0.1,0.1h0.1v0.6l-0.1,0.1l-0.3-0.5V109L270,108.7L270,108.7z M269.9,119.2v0.1l-0.1,0.3v-0.1L269.9,119.2L269.9,119.2
			z M253.9,123.4v0.5h-0.1v-0.1L253.9,123.4L253.9,123.4z M256.4,123.6l0.2,0.3l-0.1,1.1c-0.1,0-0.2-0.3-0.3-1l0.1-0.5H256.4
			L256.4,123.6z M251.8,124l0.1,0.3v0.6h-0.1l-0.1-0.3V124H251.8L251.8,124z M253.9,124l0.1,0.3v0.2h-0.1l-0.1-0.3L253.9,124
			L253.9,124L253.9,124z M252.9,125.9h0.4v0.1l-0.1,0.3h-0.3l-0.1-0.1L252.9,125.9L252.9,125.9z M251.9,126.7v0.1l-0.1,0.3h-0.1
			v-0.5H251.9L251.9,126.7z M253.6,130.7v0.3h-0.1v-0.3H253.6L253.6,130.7z M282.2,103.9c-2.9,3.4-4.4,7.6-4.4,12.7l0.1,0.9
			l-0.1,1.1c0,1.5,0.3,3.6,0.8,6.2c1.9,7.4,6.4,11.1,13.7,11.1h1.3c3.7,0,6.7-0.8,9.1-2.3c2.8-2.5,4.2-5.2,4.2-8.1
			c0-0.5-0.1-0.7-0.3-0.7L306,125l-0.6-0.2h-0.1l-0.5,0.2l-0.6-0.2h-1.5l-0.1,0.2l-0.1-0.2h-5c-0.4,0-1.8,0.8-4.2,2.3
			c-3.2-0.5-4.8-1.8-4.8-3.8v-0.5c1.2-0.4,2.2-0.5,3.2-0.5h4l1-0.2c0.2,0,0.3-0.2,0.3-0.7h0.1l0.2,0.4v0.2l-0.1,0.2h0.1l0.1,0.2h0.3
			l0.1-0.2l0.1,0.2h0.9l0.6-0.2l0.1,0.2v-0.2l0.8,0.2l0.3-0.2l1.2,0.2h3.8l0.5-0.2l0.1,0.2c0.9-0.2,1.4-0.7,1.4-1.6l-0.1-1.4
			l0.1-0.5h-0.1l0.1-0.9c0-3.6-0.8-7.1-2.5-10.3c-1.5-3-3.8-5.1-6.7-6.3l-0.4,0.4c0-0.5-0.9-0.9-2.7-1.1h-2.9
			C288.1,100.5,284.8,101.7,282.2,103.9L282.2,103.9L282.2,103.9z M286.9,106.4v0.2l-0.2,0.4v-0.5H286.9L286.9,106.4z M301.9,107.3
			h0.1l0.2,0.4L302,108l-0.3-0.4L301.9,107.3L301.9,107.3z M299.8,107.8v0.4h-0.3v-0.4H299.8L299.8,107.8z M302.3,108.2v0.4h-0.2
			v-0.4H302.3L302.3,108.2z M292.5,109.3h0.4c2.9,0.6,4.4,1.8,4.4,3.6c0,0.6-1.9,0.9-5.6,0.9h-2.7c-0.4,0-0.8-0.2-1.1-0.7
			C288,111.3,289.5,110,292.5,109.3L292.5,109.3L292.5,109.3z M285.2,109.5h0.2l-0.6,0.9h-0.1v-0.7L285.2,109.5L285.2,109.5z
			 M302.2,110.2l-0.2,0.4h-0.1v-0.4H302.2L302.2,110.2z M304.3,111.2h-0.2v-0.4L304.3,111.2L304.3,111.2z M286.6,111.6L286.6,111.6
			l0.1,0.5h-0.3v-0.2L286.6,111.6L286.6,111.6z M302.7,112.1v0.4h-0.3v-0.4H302.7L302.7,112.1z M304.5,113.2l0.6,0.2l-0.4,0.9h-0.2
			l-0.1-0.2L304.5,113.2L304.5,113.2L304.5,113.2z M298.7,115.2l0.1,0.2l-0.2,1.3h-0.2v-1.4H298.7L298.7,115.2z M286.1,115.5v0.4
			H286L286.1,115.5L286.1,115.5L286.1,115.5z M306.3,115.9l0.2,0.4v0.2h-0.3l-0.6-0.2v-0.4H306.3L306.3,115.9z M299.3,116.4v0.5
			l-0.3-0.2v-0.6l0.1-0.2L299.3,116.4L299.3,116.4z M304.2,116.2h0.2l0.2,0.4v0.2l-0.3,0.2c-0.2,0-0.3-0.1-0.3-0.4L304.2,116.2
			L304.2,116.2z M289.9,117v0.2h-0.2V117H289.9L289.9,117z M299.7,117.5v0.5l-0.3,0.2V118l-0.1-0.2v-0.4H299.7L299.7,117.5z
			 M296.9,119.4h0.1c0.1,0,0.2-0.2,0.2-0.5h0.2v-0.2h-0.2v-0.2h0.3c0,1.4-0.1,2.1-0.3,2.1h-0.1l-0.2-0.7h-0.1l-0.1,0.2l-0.3-0.4
			l0.2-1.4C296.7,118.5,296.9,118.8,296.9,119.4L296.9,119.4L296.9,119.4z M299.5,118.4v0.4h-0.2v-0.4H299.5L299.5,118.4z
			 M297.7,119.6l0.1-0.2h0.7l0.1,0.2l0.1-0.2h0.2l0.1,0.2v0.2L299,120l-0.3-0.2l-0.9,0.6L297.7,119.6L297.7,119.6L297.7,119.6z
			 M299.1,120.5v0.2h-0.2v-0.2H299.1L299.1,120.5z M315.1,103.5c-0.9,0-1.3,0.6-1.3,1.9l0.3,0.7l0.5-0.1l0.2,0.3v0.1l-0.6,0.1v0.1
			l0.2,0.4l0.1-0.1c0.5,0,0.7,0.4,0.6,1.2c-0.1,0.8-0.3,1.2-0.6,1.2v-0.4l0.1-0.1l-0.6-0.6l-0.3,0.7c-2,0.4-3,0.7-3,1l0.1,0.7
			l-0.1,0.8v4l0.1,0.6c1.8,0.6,2.8,1.1,2.9,1.6l0.2,9.6l-0.1,0.6l0.2,1l-0.1,0.7l0.4,2c0.9,3,3,4.5,6.2,4.5h0.8
			c2.9-0.3,4.3-1,4.3-2.2v-3.6c0-0.5-0.2-0.9-0.7-1.3c-0.9,0-1.3-1.3-1.3-4l0.1-0.6l-0.1-0.7l0.1-1.4l-0.1-0.8l0.1-2.6l-0.1-1.6
			l2.5-0.9c0.8-0.3,1.1-0.7,1.1-1.3V110c0-0.7-1.2-1.2-3.5-1.3c-0.1-0.8-0.2-1.1-0.4-1.1h-0.1l0.4-1.6v-0.6c0-2.8-0.4-4.2-1.1-4.2
			C321.7,101.2,319.2,102,315.1,103.5L315.1,103.5L315.1,103.5z M320,102.8c0,0.2,0.1,0.5,0.4,0.7v0.3H320l-0.2-0.8v-0.1H320
			L320,102.8z M317.8,103.1v0.3h-0.2v-0.3H317.8L317.8,103.1z M318.1,103.7h0.3v0.4l-0.2,0.4l-0.4-0.1v-0.4L318.1,103.7L318.1,103.7
			z M317.2,104.1h0.2l0.3,0.3c0,0.2-0.1,0.3-0.4,0.3h-0.1l-1.2,0.3v-0.1C315.9,104.6,316.3,104.3,317.2,104.1L317.2,104.1
			L317.2,104.1z M321,106v0.3c0,0.2-0.1,0.3-0.4,0.1C320.6,106.1,320.8,106,321,106L321,106L321,106z M314.1,109.4h0.2v0.1h-0.1
			l-0.7,0.7v-0.1l-0.1-0.1v-0.1C313.4,109.6,313.7,109.5,314.1,109.4L314.1,109.4L314.1,109.4z M313.4,112c0.1,0,0.3,0.3,0.5,1v0.1
			h-0.2c0-0.5-0.6-0.7-1.8-0.8v-0.4L313.4,112L313.4,112z M323.2,114.9v0.3H323v-0.3H323.2L323.2,114.9z M323.2,115.5v0.3h-0.1v-0.3
			H323.2L323.2,115.5z M320.5,115.6l0.2,0.3v0.1h-0.4l-0.1-0.1L320.5,115.6L320.5,115.6z M323.5,116.6v0.3h-0.1l-0.2-0.3v-0.1
			l0.1-0.1L323.5,116.6L323.5,116.6z M323.2,121.2l0.1,0.1l-0.3,0.4l-0.1-0.4L323.2,121.2L323.2,121.2z M321.1,121.6L321.1,121.6
			l0.1,0.4h-0.4v-0.3L321.1,121.6L321.1,121.6z M322.7,123.5h0.2v0.3l-0.2,0.3h-0.2v-0.3L322.7,123.5L322.7,123.5z M335.3,103.9
			c-2.9,3.4-4.4,7.6-4.4,12.7l0.1,0.9l-0.1,1.1c0,1.5,0.3,3.6,0.8,6.2c1.9,7.4,6.4,11.1,13.7,11.1h1.3c3.7,0,6.7-0.8,9.1-2.3
			c2.8-2.5,4.2-5.2,4.2-8.1c0-0.5-0.1-0.7-0.3-0.7l-0.6,0.2l-0.6-0.2h-0.1l-0.5,0.2l-0.6-0.2h-1.5l-0.1,0.2l-0.1-0.2h-5
			c-0.4,0-1.8,0.8-4.2,2.3c-3.2-0.5-4.8-1.8-4.8-3.8v-0.5c1.2-0.4,2.2-0.5,3.2-0.5h4l1-0.2c0.2,0,0.3-0.2,0.3-0.7h0.1l0.2,0.4v0.2
			l-0.1,0.2h0.1l0.1,0.2h0.3l0.1-0.2l0.1,0.2h0.8l0.6-0.2l0.1,0.2v-0.2l0.8,0.2l0.3-0.2l1.2,0.2h3.8l0.5-0.2l0.1,0.2
			c0.9-0.2,1.4-0.7,1.4-1.6l-0.1-1.4l0.1-0.5h-0.1l0.1-0.9c0-3.6-0.8-7.1-2.5-10.3c-1.5-3-3.8-5.1-6.7-6.3l-0.4,0.4
			c0-0.5-0.9-0.9-2.7-1.1h-2.9C341.2,100.5,337.9,101.7,335.3,103.9L335.3,103.9L335.3,103.9z M340,106.4v0.2l-0.2,0.4v-0.5H340
			L340,106.4z M354.9,107.3h0.1l0.2,0.4l-0.2,0.4l-0.3-0.4L354.9,107.3L354.9,107.3z M352.9,107.8v0.4h-0.3v-0.4H352.9L352.9,107.8z
			 M355.4,108.2v0.4h-0.2v-0.4H355.4L355.4,108.2z M345.6,109.3h0.4c2.9,0.6,4.4,1.8,4.4,3.6c0,0.6-1.9,0.9-5.6,0.9h-2.7
			c-0.4,0-0.8-0.2-1.1-0.7C341.1,111.3,342.6,110,345.6,109.3L345.6,109.3L345.6,109.3z M338.3,109.5h0.2l-0.6,0.9h-0.1v-0.7
			L338.3,109.5L338.3,109.5z M355.3,110.2l-0.2,0.4h-0.1v-0.4H355.3L355.3,110.2z M357.4,111.2h-0.2v-0.4L357.4,111.2L357.4,111.2z
			 M339.7,111.6L339.7,111.6l0.1,0.5h-0.3v-0.2L339.7,111.6L339.7,111.6z M355.8,112.1v0.4h-0.3v-0.4H355.8L355.8,112.1z
			 M357.6,113.2l0.6,0.2l-0.4,0.9h-0.2l-0.1-0.2L357.6,113.2L357.6,113.2L357.6,113.2z M351.8,115.2l0.1,0.2l-0.2,1.3h-0.2v-1.4
			H351.8L351.8,115.2z M339.2,115.5v0.4h-0.1L339.2,115.5L339.2,115.5L339.2,115.5z M359.4,115.9l0.2,0.4v0.2h-0.3l-0.6-0.2v-0.4
			H359.4L359.4,115.9z M352.4,116.4v0.5l-0.3-0.2v-0.6l0.1-0.2L352.4,116.4L352.4,116.4z M357.3,116.2h0.2l0.2,0.4v0.2l-0.3,0.2
			c-0.2,0-0.3-0.1-0.3-0.4L357.3,116.2L357.3,116.2z M343,117v0.2h-0.2V117H343L343,117z M352.8,117.5v0.5l-0.3,0.2V118l-0.1-0.2
			v-0.4H352.8L352.8,117.5z M349.9,119.4h0.1c0.1,0,0.2-0.2,0.2-0.5h0.2v-0.2h-0.2v-0.2h0.3c0,1.4-0.1,2.1-0.3,2.1h-0.1l-0.2-0.7
			h-0.1l-0.1,0.2l-0.3-0.4l0.2-1.4C349.8,118.5,349.9,118.8,349.9,119.4L349.9,119.4L349.9,119.4z M352.6,118.4v0.4h-0.2v-0.4H352.6
			L352.6,118.4z M350.8,119.6l0.1-0.2h0.7l0.1,0.2l0.1-0.2h0.2l0.1,0.2v0.2l-0.1,0.2l-0.3-0.2l-0.9,0.6L350.8,119.6L350.8,119.6
			L350.8,119.6z M352.2,120.5v0.2H352v-0.2H352.2L352.2,120.5z M365.5,100.9c-0.7,0.3-1.1,1.1-1.1,2.4l0.2,2l-0.1,0.7
			c0,0.7,0.2,1.1,0.7,1.1l0.7-0.3l0.3,0.3h0.4l1,0.1l0.5-0.1l0.3,0.1l0.6-0.3l0.1,0.1l0.4-0.1c0.4,0.3,1.5,0.4,3.2,0.4l0.4-0.1v0.1
			c0.6,0,0.9-0.9,0.9-2.7v-2.3c0-1.1-0.8-1.7-2.3-1.7h-1.6L365.5,100.9L365.5,100.9z M364.3,104.1v0.3H364v-0.3H364.3L364.3,104.1z
			 M370.6,104.9l-0.1,0.6v0.1l0.1,0.1l-0.1,0.4l-0.4-0.1v-0.8l0.3-0.3H370.6L370.6,104.9z M366.6,105l0.6,0.1
			c-0.3,0.6-0.5,0.8-0.6,0.8l-0.3-0.4V105H366.6L366.6,105z M364.8,106.4v0.1h-0.3v-0.1H364.8L364.8,106.4z M366.5,106.4l0.6,0.1
			l0,0.1l-0.4,0.1c-0.3,0-0.4-0.1-0.4-0.3v-0.1H366.5L366.5,106.4z M364.1,113.3l0.2,1.9c-0.1,0-0.2,0.3-0.2,0.9v0.5l-0.1,14.7
			l0.1,1l-0.1,0.4v0.1l0.1,0.1L364,133v0.7l0.1,0.8c0,0.5,2.9,0.8,8.8,0.8h0.4c0.8,0,1.2-2,1.2-5.9v-4.8c0-1.8-0.1-3.2-0.2-4
			l0.2-1.3l-0.1-0.7v-5.4c0-0.8-1.1-1.3-3.2-1.3L371,112v-0.1l-0.5,0.1l-1.1-0.1h-1.1l-0.1,0.1l-0.1-0.1h-0.2l-0.1,0.1v-0.1
			l-0.5,0.1l-1.3-0.1h-0.8C364.5,111.9,364.2,112.3,364.1,113.3L364.1,113.3L364.1,113.3z M378.4,91.8v2.9l0.1,1.3
			c-0.1,0-0.2,1.3-0.2,3.9v1c0,0.8,0.1,1.2,0.4,1.2c-0.3,0.6-0.4,1.1-0.4,1.6v0.8l0.1,1.2l-0.1,1h-0.1l0.1,1.1
			c-0.2,0.7-0.2,2.7-0.2,6v5l0.1,2.1l-0.1,1.6v1.1l0.2,1.2l-0.1,1.7v0.2c0,0.4,0.2,0.6,0.6,0.6v0.4c0,0.2-0.2,0.4-0.6,0.6l0.1,0.8
			l-0.1,1.8v3.9c0,0.9,1.4,1.3,4.3,1.3h4.4c0.8,0,1.1-1.9,1.1-5.8v-7.9l-0.1-2.9l0.1-0.6l-0.1-2.3l0.1-2.5l-0.1-1.2l0.1-2.5l0.1-4
			l-0.1-2.3l0.1-0.6l-0.1-1.1l0.1-1.6v-1l-0.2-1.2l0.1-0.8v-0.2l-0.1-0.2l0.1-1.6c0-1.9-0.1-3.6-0.3-5c0-0.6-1.9-1-5.7-1h-1.7
			C379.1,89.6,378.4,90.3,378.4,91.8L378.4,91.8L378.4,91.8z M386.8,92.3h0.2v0.2h-0.1l-0.5,0.8H386v-0.2
			C386,92.8,386.3,92.5,386.8,92.3L386.8,92.3L386.8,92.3z M383.6,93.9v0.4h-0.2v-0.4H383.6L383.6,93.9z M386.4,96.8l-0.1,1H386V97
			l0.1-0.2l-0.7-0.8l0.2-1.2C386.1,95,386.4,95.6,386.4,96.8L386.4,96.8L386.4,96.8z M385.9,97v0.6h-0.4V97H385.9L385.9,97z
			 M379.5,97.2v0.4l-0.2,0.4h-0.1v-0.8H379.5L379.5,97.2z M387.6,97.9l0.2,0.4v0.2h-0.3l-0.6-0.2v-0.4H387.6L387.6,97.9z
			 M385.3,98.3h0.2l0.2,0.4v0.2l-0.6,0.2h-0.1v-0.4L385.3,98.3L385.3,98.3z M379.2,102v0.6h-0.4V102H379.2L379.2,102z M386.8,105.1
			v0.2h-0.4v-0.2H386.8L386.8,105.1z M386.6,111.3v0.4h-0.1v-0.4H386.6L386.6,111.3z M387.4,114.4v0.6h-0.2v-0.6H387.4L387.4,114.4z
			 M378.9,120.2c0,0.5,0.2,0.8,0.4,0.8v0.2l-0.1,0.2l-0.4-0.2v-1H378.9L378.9,120.2z M378.9,123.9v0.6h-0.4l0.1-0.6H378.9
			L378.9,123.9z M381.3,129.3v0.4l-0.2-0.4H381.3L381.3,129.3z M379.4,131.6v0.4h-0.1v-0.4H379.4L379.4,131.6z M396.1,103.5
			c-0.9,0-1.3,0.6-1.3,1.9l0.3,0.7l0.5-0.1l0.2,0.3v0.1l-0.6,0.1v0.1l0.2,0.4l0.1-0.1c0.5,0,0.7,0.4,0.6,1.2
			c-0.1,0.8-0.3,1.2-0.6,1.2v-0.4l0.1-0.1l-0.6-0.6l-0.3,0.7c-2,0.4-3,0.7-3,1l0.1,0.7l-0.1,0.8v4l0.1,0.6c1.8,0.6,2.8,1.1,2.9,1.6
			l0.2,9.6l-0.1,0.6l0.2,1l-0.1,0.7l0.4,2c0.9,3,3,4.5,6.2,4.5h0.8c2.9-0.3,4.3-1,4.3-2.2v-3.6c0-0.5-0.2-0.9-0.7-1.3
			c-0.9,0-1.3-1.3-1.3-4l0.1-0.6l-0.1-0.7l0.1-1.4l-0.1-0.8l0.1-2.6l-0.1-1.6l2.5-0.9c0.8-0.3,1.1-0.7,1.1-1.3V110
			c0-0.7-1.2-1.2-3.5-1.3c-0.1-0.8-0.2-1.1-0.4-1.1h-0.1l0.4-1.6v-0.6c0-2.8-0.4-4.2-1.1-4.2C402.6,101.2,400.2,102,396.1,103.5
			L396.1,103.5L396.1,103.5z M400.9,102.8c0,0.2,0.1,0.5,0.4,0.7v0.3h-0.4l-0.2-0.8v-0.1H400.9L400.9,102.8z M398.8,103.1v0.3h-0.2
			v-0.3H398.8L398.8,103.1z M399,103.7h0.3v0.4l-0.2,0.4l-0.4-0.1v-0.4L399,103.7L399,103.7z M398.1,104.1h0.2l0.3,0.3
			c0,0.2-0.1,0.3-0.4,0.3h-0.1l-1.2,0.3v-0.1C396.9,104.6,397.3,104.3,398.1,104.1L398.1,104.1L398.1,104.1z M402,106v0.3
			c0,0.2-0.1,0.3-0.4,0.1C401.6,106.1,401.7,106,402,106L402,106L402,106z M395.1,109.4h0.2v0.1h-0.1l-0.7,0.7v-0.1l-0.1-0.1v-0.1
			C394.4,109.6,394.6,109.5,395.1,109.4L395.1,109.4L395.1,109.4z M394.4,112c0.1,0,0.3,0.3,0.5,1v0.1h-0.2c0-0.5-0.6-0.7-1.8-0.8
			v-0.4L394.4,112L394.4,112z M404.2,114.9v0.3H404v-0.3H404.2L404.2,114.9z M404.2,115.5v0.3h-0.1v-0.3H404.2L404.2,115.5z
			 M401.5,115.6l0.2,0.3v0.1h-0.4l-0.1-0.1L401.5,115.6L401.5,115.6z M404.4,116.6v0.3h-0.1l-0.2-0.3v-0.1l0.1-0.1L404.4,116.6
			L404.4,116.6z M404.2,121.2l0.1,0.1l-0.3,0.4l-0.1-0.4L404.2,121.2L404.2,121.2z M402.1,121.6L402.1,121.6l0.1,0.4h-0.4v-0.3
			L402.1,121.6L402.1,121.6z M403.6,123.5h0.2v0.3l-0.2,0.3h-0.2v-0.3L403.6,123.5L403.6,123.5z M413.3,95c-0.6,0-0.9,1.1-1,3.2v0.2
			l0.1,0.2l-0.1,0.5l0.1,0.7l-0.1,2.9v8.3l0.1,0.8h-0.1l-0.1,0.2c0,1-0.1,1.6-0.2,1.8l0.3,2.2l-0.1,1v4c0,1.5,0.1,2.2,0.4,2.2v0.4
			l-0.1,0.2l-0.3,0.5v0.8l0.1,0.1l-0.1,0.2v0.4l0.1,1.8l-0.1,2.2v4.6c0,1,0.3,1.5,1,1.5h1.8l0.1-0.2l0.1,0.2h2.3l0.1-0.2l0.1,0.2
			c0.3,0,0.4-0.2,0.5-0.5c0.2,0.3,0.5,0.5,0.8,0.5h0.7c0-0.7,0.2-1,0.5-1v1h2.1l6.4-0.4c0.2,0,0.2-0.2,0.2-0.7h0.2l0.4,0.5h0.1
			l0.1-0.2l0.3,0.2v-0.2c1.9,0,3.6-1,5.1-2.9c1.6-1.8,2.8-5.4,3.5-10.8v-0.7l-0.1-0.1l0.1-0.2V120l-0.3-0.2l0.4-1l-0.1-0.8l0.2-1.2
			l-0.1-2l0.2-1v-1.3c0-4-0.7-7.5-2.2-10.3l-0.5,1c-0.3,0-0.4-0.2-0.5-0.5v-0.2l0.2-1c0-1.7-1.3-3.5-4-5.4v0.2l-2.6-1.3l-0.4,0.2
			l-1-0.4H423l-1,0.2l-0.2-0.2l-0.3,0.2l-0.3-0.2L413.3,95L413.3,95z M412.7,96.5L412.7,96.5l0.1,0.4h-0.3L412.7,96.5L412.7,96.5z
			 M416.8,97.9l0.2,0.3v0.5l-0.2,0.4h-0.2L416.8,97.9L416.8,97.9L416.8,97.9z M418.2,99.4h0.1v0.3l-0.1,0.4h-0.2v-0.4L418.2,99.4
			L418.2,99.4z M417.6,100.7h-0.2v-0.4L417.6,100.7L417.6,100.7z M417.2,101.2v0.2l-0.1,0.3c-0.3-0.3-0.4-0.6-0.4-1v-0.2
			C417,100.7,417.2,100.9,417.2,101.2L417.2,101.2L417.2,101.2z M418.1,102.2l0.3,1v0.4h-0.2l-0.2-0.7L418.1,102.2L418.1,102.2
			L418.1,102.2z M419.7,103.4v0.4l-0.1,0.1l-0.1-0.3v-0.4l0.1-0.1L419.7,103.4L419.7,103.4z M435.8,103.6v0.5h-0.3v-0.5H435.8
			L435.8,103.6z M420.7,105.6h5.8c0.7,0,1.6,1.1,2.6,3.2c0.5,1.3,0.8,3.5,1.1,6.6l-0.3,0.8c0.2,0.4,0.4,0.7,0.7,0.7v0.5h-0.5
			c-0.4,2.1-0.7,3.3-0.9,3.5c-0.4,2.8-2.7,4.2-7,4.2h-0.9c-0.4,0-0.7-0.3-1-0.8l-0.1-4.9v-0.2l-0.1-0.1c0.1,0,0.2-0.6,0.2-1.7v-3.5
			l-0.1-4.2l0.1-0.2h-0.1C420.4,106.9,420.5,105.6,420.7,105.6L420.7,105.6L420.7,105.6z M436.7,106.3l0.1,0.2v0.2l-0.1,0.1h-0.1
			l-0.1-0.1v-0.2L436.7,106.3L436.7,106.3L436.7,106.3z M436.8,107.5l0.1,0.5l-0.1,0.5h0.1l0.1,0.2l-0.2,0.3c0-0.4-0.1-0.7-0.3-0.7
			V108L436.8,107.5L436.8,107.5z M413.5,108.8v0.1c0,0.4,0.2,0.7,0.6,0.8l-0.1,0.9c0,0.2,0.1,0.4,0.3,0.4c0,0.3-0.1,0.4-0.4,0.5v0.2
			c0.2,0,0.3,0.4,0.4,1.2h-0.1l0.2,0.5h-0.1c-0.2-0.1-0.3-0.5-0.5-1.2v-0.3l0.1-0.2l-0.1-0.2l-0.1,0.2h-0.1l-0.1-0.2h-0.2l-0.4,0.2
			l-0.1-0.4c0.1-0.4,0.2-0.6,0.3-0.7l0.1,0.2h0.1l0.3-0.8v-0.3l-0.1-0.2c-0.2,0-0.3-0.1-0.3-0.4V109L413.5,108.8L413.5,108.8z
			 M437.3,109.7v0.3l-0.2-0.3H437.3L437.3,109.7z M432,110.7v0.2h-0.2v-0.2H432L432,110.7z M416.1,111.4c-0.1,0.4-0.2,0.7-0.2,0.7
			l-0.2-0.3v-0.4H416.1L416.1,111.4z M415,115.1l0.5,0.4c0,0.2-0.2,0.4-0.5,0.5l-0.3-0.2v-0.5L415,115.1L415,115.1z M413.5,115.3
			v0.2h-0.2v-0.2H413.5L413.5,115.3z M436.7,115.4L436.7,115.4l0.8,1.2h0.1l-0.1-0.9h0.4c0,0.4,0.2,1,0.5,1.7v0.2l-0.4,1
			c-0.3,0-0.4,0.1-0.4,0.4c-0.2-0.2-0.3-0.6-0.4-1l0.2-0.8V117c0-0.3-0.2-0.4-0.5-0.5l-0.1,0.8h-0.1l-0.1-0.3v-0.4h0.1v-0.3h-0.1
			v-0.4L436.7,115.4L436.7,115.4z M418.5,116.3v0.3h-0.1v-0.3H418.5L418.5,116.3z M417.5,117.1L417.5,117.1l0.2,0.5
			c0,0.3-0.1,0.6-0.4,0.9h-0.2v-0.7L417.5,117.1L417.5,117.1z M419,117.3l-0.1,1.2h-0.2C418.8,117.7,418.9,117.3,419,117.3
			L419,117.3L419,117.3z M415.1,117.5l0.1,0.4v0.1l-0.1,0.5l-0.2-0.4v-0.7H415.1L415.1,117.5z M436.7,117.5v0.4h-0.1L436.7,117.5
			L436.7,117.5L436.7,117.5z M432.2,117.9l0.1,0.4v0.5h-0.1l-0.1-0.3L432.2,117.9L432.2,117.9L432.2,117.9z M417.8,118.8v0.4
			l-0.1,0.1l-0.1-0.3v-0.4l0.1-0.1L417.8,118.8L417.8,118.8z M434.7,118.5h0.2v0.5c0.3,0.4,0.5,0.7,0.5,0.8l-0.3,1.3H435l-1-0.8
			l0.6-1v-0.1l-0.1-0.2L434.7,118.5L434.7,118.5z M415.2,123.7c0-0.5,0.1-0.7,0.4-0.7c0-1,0.1-1.5,0.4-1.5c0-0.7,0.2-1,0.5-1
			c0.1-1.1,0.3-1.7,0.5-1.7l0.1,0.5c0.4,0,0.7,0.4,0.7,1.2v0.2h-0.2l-0.2-0.4h-0.1c0,0.4-0.1,0.7-0.3,0.7l-0.1,0.7
			c-0.4,1.3-0.9,2.2-1.6,2.7v-0.2c-0.3,0.2-0.4,0.4-0.4,0.7l-0.3-0.2v-0.2C414.8,124,415,123.7,415.2,123.7L415.2,123.7L415.2,123.7
			z M415.9,119.6L415.9,119.6l0.1,0.4h-0.2L415.9,119.6L415.9,119.6z M418.5,119.6l0.3,0.5v0.5c-0.4-0.1-0.6-0.3-0.6-0.5
			L418.5,119.6L418.5,119.6z M431.1,119.6l0.2,0.4H431l-0.2-0.4H431.1L431.1,119.6z M414.2,120.3v0.4H414v-0.4H414.2L414.2,120.3z
			 M432.6,121.7v0.2c-0.1,0-0.2-0.3-0.3-0.8C432.4,121.1,432.5,121.3,432.6,121.7L432.6,121.7L432.6,121.7z M417.9,122.2l0.2,1.3
			h-0.3L417.9,122.2L417.9,122.2L417.9,122.2z M414.7,122.7l0.1,0.2l-0.1,0.7h-0.1l-0.1-0.2l0.1-0.7H414.7L414.7,122.7z
			 M419.2,124.2v0.3l-0.2,0.4H419v-0.7H419.2L419.2,124.2z M413.1,124.5h0.2v0.7l-0.4-0.1v-0.2L413.1,124.5L413.1,124.5z
			 M434.4,125.7v0.3l-0.2,0.4l-0.2-0.5v-0.2H434.4L434.4,125.7z M414.4,125.9v0.5l-0.2,0.3l-0.1-0.8H414.4L414.4,125.9z
			 M420.1,129.3v0.2c0,0.7-0.2,1-0.6,1v-0.1c0.2-0.4,0.2-0.8,0.2-1.2L420.1,129.3L420.1,129.3z M418.2,133.5l0.1,0.2l-0.2,0.4h-0.1
			v-0.5H418.2L418.2,133.5z M419.7,133.7v0.4h-0.2L419.7,133.7L419.7,133.7z M412.8,134.4v0.7h-0.1l-0.2-0.3v-0.4H412.8L412.8,134.4
			z M443.1,104.5c-0.4,0-0.6,0.5-0.7,1.4v8.3l0.1,2.1l-0.1,2.1v7.8l0.3,2.6c1.4,5.7,4.2,8.5,8.3,8.5l0.5-0.2l1,0.2h0.6l0.6-0.4
			l-0.1-0.2c0.1-0.8,0.3-1.2,0.4-1.2h0.3v0.4H454v0.5c0.3,0,0.4,0.1,0.4,0.4c2.3-1,3.7-1.6,4.2-1.6h0.4c0,1,0.5,1.6,1.4,1.6h5.9
			l0.1-0.2v0.2c0.7-0.3,1.1-0.8,1.1-1.7v-1.8l-0.1-1.9l0.1-1.1c0-0.4-0.1-0.6-0.2-0.6l-0.3,0.4l-0.2-0.4v-0.4c0.5,0,0.7-0.6,0.7-1.8
			v-1.8l-0.1-1.1l0.1-0.9v-3.7l-0.1-1.2l0.1-0.7v-0.4l-0.3-0.9c0.2-0.3,0.3-0.7,0.3-1.3v-0.9l-0.1-2.5l0.1-0.5l-0.2-2l0.1-0.2v-3.7
			c0-0.7-0.2-1.2-0.7-1.6h-0.1l-0.1,0.2l-1.1-0.2h-1l-1.2,0.2l-0.1-0.2l-0.6,0.2h-0.4l-0.7-0.2l-0.1,0.2h-0.1l-0.1-0.2l-0.4,0.2
			h-0.8l-0.2,0.4l0.1,0.9h0.9c0,0.5,0.1,0.7,0.3,0.7c0,0.2-0.2,0.4-0.5,0.5l0.2,0.7c-0.3,0.6-0.5,1.2-0.5,1.8H460l-0.2-0.4l-0.2,0.4
			c0.2,0,0.3,0.2,0.3,0.5h-0.1l-0.5-0.2l-0.1,0.2l0.1,0.5l-0.4,1.3l0.2,1.8v0.2l0.3-0.2l0.5,0.2l-0.2,0.4h-0.5l-0.1-0.2l-0.2,2.1
			v0.2l0.1,0.2l-0.1,1.1l0.1,1.2c-0.1,2.3-0.2,3.5-0.3,3.7c-0.8,3.1-2.2,4.6-4.2,4.6h-0.5c-1.1,0-2-0.7-2.7-2.1h-0.1
			c-0.1,2.2-0.3,3.5-0.6,3.7h-0.1l-0.3-0.4l-0.2,0.4l-0.6-0.4l0.2-0.4h0.6l0.1,0.2l-0.1-0.7v-0.2h0.1l0.1,0.2h0.4l-0.1-0.5
			c0.2-1.4,0.3-2.1,0.4-2.1c-0.2-4.8-0.5-7.2-0.7-7.2h-0.1l-0.1,0.2v-0.2h-0.1l-0.1,0.2v-0.7h0.5l0.2-0.4v-2.8l-0.1-1.9l0.1-0.7
			l-0.3-1.4l0.3-0.4l-0.1-0.9v-0.9c0-2.4-0.3-3.5-0.9-3.5L443.1,104.5L443.1,104.5z M461.3,105L461.3,105l-0.2,0.7h-0.2v-0.4
			L461.3,105L461.3,105z M459,107v0.2l0.1,0.2c0.2,0,0.3-0.7,0.4-2h-0.1l-0.1-0.2C459.2,105.2,459.1,105.8,459,107L459,107L459,107z
			 M459.5,107.9l-0.5-0.2v0.2l0.2,0.4h0.3l0.7-0.9c-0.1-0.3-0.2-0.7-0.2-1.3h-0.2L459.5,107.9L459.5,107.9z M449.6,108.2v0.4
			c0,0.4-0.1,0.5-0.2,0.5L449.6,108.2L449.6,108.2L449.6,108.2z M450.1,109.1v0.4h-0.2v-0.4H450.1L450.1,109.1z M463.6,111.4v0.2
			l-0.4,0.9v0.2l0.1,0.2c-0.2,0-0.3,0.2-0.3,0.7h-0.5v-0.2c0-0.2,0.1-0.4,0.4-0.5l-0.1-0.9c0-0.2-0.4-0.4-1.1-0.5l-0.1,0.2h-0.2
			v-0.4h0.8c0.5-0.4,0.7-0.7,0.7-0.9C463.3,110.6,463.5,110.9,463.6,111.4L463.6,111.4L463.6,111.4z M459.9,110.9v0.6l-0.1,0.2
			l-0.2-0.4v-0.4H459.9L459.9,110.9z M463.8,113.4v0.4l-0.1,0.2l-0.3-0.2v-0.5L463.8,113.4L463.8,113.4z M463.5,114.1v0.5h-0.3v-0.7
			L463.5,114.1L463.5,114.1z M462.8,114.1v0.4h-0.3v-0.4H462.8L462.8,114.1z M462.5,115.1v0.4h-0.2v-0.4H462.5L462.5,115.1z
			 M459.7,115.6h0.2v0.6h-0.4V116L459.7,115.6L459.7,115.6z M461.8,116.2l0.1-0.2h0.2l0.1,0.2l-0.1,0.2l0.1,0.9h-0.4V116.2
			L461.8,116.2L461.8,116.2z M443.2,116.4v0.5h-0.1L443.2,116.4L443.2,116.4L443.2,116.4z M467.1,116.5v0.4h-0.2L467.1,116.5
			L467.1,116.5z M462,117.9v1.1l0.1,0.2l-0.3,0.4l-0.3-0.4l0.3-0.5v-0.2l-0.1-0.2v-0.4H462L462,117.9z M445.4,121.7L445.4,121.7
			l-0.2,0.9l0.1,0.5v0.2l-0.1,0.2c-0.4-0.1-0.6-0.3-0.6-0.5v-0.7C444.7,122,444.9,121.8,445.4,121.7L445.4,121.7L445.4,121.7z
			 M450.2,122.9v0.5l-0.3,0.2h-0.2v-0.2C449.9,123.4,450,123.3,450.2,122.9L450.2,122.9L450.2,122.9z M466.2,125.4l0.2,0.4v0.2h-0.3
			L466.2,125.4L466.2,125.4L466.2,125.4z M446.6,127.3v0.5h-0.2v-0.5H446.6L446.6,127.3z M459.4,127.7v0.5h-0.3v-0.5H459.4
			L459.4,127.7z M448.1,127.9c0.2,0,0.4,0.6,0.5,1.8v0.2h-0.3c0-0.4-0.1-0.8-0.4-1.4v-0.5H448.1L448.1,127.9z M460.3,128L460.3,128
			l0.1,0.4l-0.2,0.4h-0.1v-0.4L460.3,128L460.3,128z M466.8,131.2v0.2h-0.3v-0.7h-0.2l-0.1,0.7c-0.3,0-0.4-0.4-0.5-1.1h0.1V130h0.1
			c0.1,0,0.2,0.2,0.2,0.6h0.1l0.1-1.4C466.5,129.1,466.7,129.8,466.8,131.2L466.8,131.2L466.8,131.2z M464.5,130.3v0.4h-0.2v-0.4
			H464.5L464.5,130.3z M450.2,131.2c0,0.5-0.1,0.8-0.4,1.1h-0.1l-0.5-1.6v-0.2C449.6,130.5,449.9,130.8,450.2,131.2L450.2,131.2
			L450.2,131.2z M448.8,131c0.1,0,0.3,0.3,0.4,0.9h-0.1v0.4h-0.2l-0.3-1.1V131H448.8L448.8,131z M459.9,131.4l0.1,0.5h-0.1l0.1,0.2
			v0.2l-0.1,0.2l-0.3-0.2v-0.9H459.9L459.9,131.4z M447.9,131.6l0.2,0.4v0.2l-0.2,0.5c-0.1-0.1-0.3-0.4-0.4-0.9v-0.2H447.9
			L447.9,131.6z M452,131.6v0.4h-0.2v-0.4H452L452,131.6z M447.3,131.7h0.1v0.5l-0.1,0.2l0.1,0.2v0.9h-0.2l-0.6-0.4
			c-0.4,0.7-0.8,1.1-1,1.1l-0.5-0.9v-0.2c0-0.4,0.4-0.8,1.2-1.2l0.3,0.4C446.9,131.9,447.1,131.7,447.3,131.7L447.3,131.7
			L447.3,131.7z M459.1,132.1h0.1v0.4l-0.1,0.2H459l-0.1-0.2L459.1,132.1L459.1,132.1z M466,132.8v0.4l-0.2-0.4H466L466,132.8z
			 M453.5,133.9h0.2v0.2l-0.2,0.5l-0.2-0.4L453.5,133.9L453.5,133.9z M455.5,135.3l-0.2,0.3h-0.1v-0.3H455.5L455.5,135.3z
			 M484,110.3h-0.1l-0.1-0.1c-0.3-0.8-0.8-1.2-1.3-1.2h-10.1c-0.7,0-1,0.4-1,1.2l0.1,3.8l-0.1,0.4l0.1,0.1l-0.1,0.1v0.9
			c0,1.7,0.1,2.9,0.3,3.4h-0.1v0.1l0.1,0.1c0.5,0,0.7,0.1,0.7,0.3v0.1c-0.7,0-1,0.6-1,1.8l0.1,1.6l-0.1,0.6l0.1,1.2h0.1l0.1-0.1h0.3
			l0.1,0.4H472v0.4l-0.4-0.1c-0.2,0-0.3,0.5-0.3,1.5v1l0.1,0.7l-0.1,0.9v4.2c0,1.1,0.7,1.8,2,1.9h0.3l1.8-0.1l0.1,0.1v-0.1l1.5,0.1
			h0.1l0.1-0.1l0.1,0.1h4.7c0.7,0,1.3-0.4,1.8-1.3l-0.1-1.6l0.1-1.2l-0.1-2.9h-0.1c-1.3,0.2-1.9,0.7-1.9,1.6h-0.4v-1
			c-0.3,0-0.5-0.2-0.6-0.7v-0.1l0.1-0.1l0.6,0.4h0.1l0.9-1.2v-0.3l-0.9,0.3l-0.6-0.9v-0.1l0.1-0.1c0.2,0,0.3,0.1,0.3,0.4
			c0.4-0.4,0.8-0.5,1.3-0.6l0.3,0.4l0.9-0.7v-0.4l-0.1-0.1l0.1-0.1v-1.5l-0.1-2.9c0-2.2,1.5-3.6,4.4-4l0.6,0.3
			c0.8,0.1,1.6,1,2.5,2.6c0,1.5,0.7,2.2,2.2,2.2l3.7-0.1l0.3-0.3v-0.1c-0.3,0-0.4-0.2-0.4-0.7c-0.3,0-0.4-0.1-0.4-0.3v-0.1h0.1
			l0.4-0.4h0.1l0.4,0.3l-0.1,1.5v0.1h0.7c3.5-0.3,5.3-0.9,5.3-2.1v-0.6c0-2.1-0.3-4.1-0.9-5.9c-1.5-3.3-4.1-5-7.8-5l-1,0.1h-0.1
			l-0.1-0.1v0.1l-1.2-0.1C489.4,108.6,486.6,109.3,484,110.3L484,110.3L484,110.3z M491,110.7c0.5-0.4,0.7-0.6,0.7-0.9h0.1v0.7
			l-0.3,0.7h-0.3V111l-0.7,0.1c0-0.3-0.1-0.4-0.3-0.4l0.3-0.9C490.9,109.9,491,110.2,491,110.7L491,110.7L491,110.7z M493.7,110.6
			h0.1l0.1,0.1l-0.3,0.3h-0.1l-0.1-0.1c0,0.3-0.1,0.4-0.3,0.4l-0.3-0.3h-0.1l-0.1,0.1l-0.3-0.3v-0.1L493.7,110.6L493.7,110.6z
			 M494.1,111.5v0.1l-0.3,0.3l-0.1-0.4H494.1L494.1,111.5z M494.8,111.8v0.4l-0.3-0.3v-0.1H494.8L494.8,111.8z M495.4,111.8l0.3,0.3
			v0.1h-0.4v-0.4H495.4L495.4,111.8z M491,112.2l0.3,0.3v0.1h-0.4v-0.4H491L491,112.2z M493.2,112.8v0.4h-0.3v-0.4H493.2
			L493.2,112.8z M494.7,112.8l0.1,0.1l-0.3,0.3v-0.4H494.7L494.7,112.8z M475.1,113.1v0.3h-0.1v-0.3H475.1L475.1,113.1z M491,113.4
			v0.3h-0.1v-0.3H491L491,113.4z M473.3,114v0.3l-0.7,0.6h-0.4l0.1-1L473.3,114L473.3,114z M474.2,114v0.4h-0.3V114H474.2L474.2,114
			z M474,115v0.1h-0.3v-0.4L474,115L474,115z M492.1,115l0.3,0.3v0.3h-0.1l-0.3-0.3V115H492.1L492.1,115z M489.4,115.3h0.1v0.1
			c-0.3,0.3-0.4,0.5-0.4,0.9H489v-0.4C489,115.5,489.2,115.3,489.4,115.3L489.4,115.3L489.4,115.3z M473.6,116.2v0.1h-0.3v-0.1
			H473.6L473.6,116.2z M482.1,116.3h0.1l0.4,0.4v0.1h-0.4v0.6c0.4,0,0.6,0.2,0.6,0.4h-0.6l-0.1-0.1v0.3c0.3,0,0.5,0.2,0.6,0.6v0.3
			l-0.6,0.4c-0.3,0-0.4-0.2-0.4-0.6c-0.6,0-0.9-0.1-0.9-0.3v-0.4C481.3,117,481.7,116.4,482.1,116.3L482.1,116.3L482.1,116.3z
			 M473.2,116.5l0.3,1.3v0.1l-0.1,0.1c-0.4,0-0.7-0.2-0.9-0.6l0.3-1H473.2L473.2,116.5z M477.6,116.5l0.1,0.1v-0.1
			c0.6,0.2,0.9,0.4,0.9,0.6v0.1l-0.1,0.1l0.3,0.4c0,0.3-0.1,0.4-0.3,0.4c-0.8,0-1.2-0.3-1.2-1V117l0.1-0.1l-0.1-0.1v-0.3H477.6
			L477.6,116.5z M480.6,116.9h0.1v0.3l-0.3,0.3h-0.1v-0.3L480.6,116.9L480.6,116.9z M476.8,117.5h0.3v0.3l-0.3,0.3h-0.4
			C476.5,117.7,476.7,117.5,476.8,117.5L476.8,117.5L476.8,117.5z M500.6,117.6l0.3,0.3v0.1h-0.4l-0.1-0.1L500.6,117.6L500.6,117.6z
			 M492.6,118.8l-0.1,0.4l0.1,0.7l-0.1,0.1l-0.4-0.1v-0.9l0.3-0.3H492.6L492.6,118.8z M480.5,119.1v0.4H480v-0.4H480.5L480.5,119.1z
			 M476.4,119.2v0.4h-0.3v-0.4H476.4L476.4,119.2z M478.9,119.4l0.1,0.1c0,0.3,0.1,0.4,0.4,0.4l0.1-0.1l0.9,0.9v0.1
			c-0.4,0.3-0.6,0.6-0.6,0.9h-0.4c0-0.6-0.1-0.9-0.3-0.9h-0.7l-0.1,0.1v-0.1H478v-0.1l0.1-0.1v-0.1l0.4,0.1l0.6-0.1l-0.6-0.9
			l0.1-0.1H478.9L478.9,119.4z M481.5,119.8v0.3h-0.1v-0.3H481.5L481.5,119.8z M480.6,121.6v0.1h-0.4v-0.1H480.6L480.6,121.6z
			 M474.5,121.7v0.1h-0.3v-0.1H474.5L474.5,121.7z M478.4,121.7v0.1h-0.3v-0.1H478.4L478.4,121.7z M477.4,122.5v0.3h-0.1v-0.3H477.4
			L477.4,122.5z M477.1,123.2c0.3,0.1,0.4,0.4,0.4,1c0.5-0.4,0.7-0.6,0.7-0.9h0.1v0.7l-0.6,1.2h-0.3l-0.1-0.1V125l0.1-0.1v-0.1
			l-0.4,0.3h-0.3l-0.1-0.9C476.8,123.5,477,123.2,477.1,123.2L477.1,123.2L477.1,123.2z M480,124.1h0.1v0.4l-0.7,0.1h-0.1l-0.1-0.1
			l-0.1,0.1h-0.3v-0.4L480,124.1L480,124.1z M480.5,125v0.3h-0.1V125H480.5L480.5,125z M477.8,125.7v0.4h-0.4v-0.4H477.8
			L477.8,125.7z M479.8,126.3v0.4h-0.3v-0.4H479.8L479.8,126.3z M483.4,127.1v0.1h0.3v-0.4L483.4,127.1L483.4,127.1z M482.8,128.2
			v0.1h0.1l0.4-0.4v-0.3h-0.1C483.1,127.6,483,127.8,482.8,128.2L482.8,128.2L482.8,128.2z M473.2,129.5v0.1l-0.3,0.3l-0.3-0.3
			l0.3-0.4L473.2,129.5L473.2,129.5z M473.3,130.1l0.6,0.3c-0.1,0.5-0.2,0.7-0.4,0.7H473c0-0.4-0.1-0.6-0.3-0.6
			C472.7,130.4,472.9,130.2,473.3,130.1L473.3,130.1L473.3,130.1z M482.5,132l-0.3,0.3V132H482.5L482.5,132z M518.7,102.9
			c-7.7,2.5-11.5,7.9-11.5,16.2c0.2,2.9,0.6,5.1,1.2,6.7c2.9,6.5,8.6,9.8,17,9.8h1.6c7.4,0,12.6-1.4,15.8-4.2
			c3.4-3.4,5.1-6.4,5.1-8.9c0-0.7-0.3-1-0.9-1h-4.5l-1.5,0.2l-1.3-0.2h-4.7c-0.5,0-1.4,0.8-2.6,2.4c0,1-1.6,1.9-4.7,2.7l-2.6-0.4
			c-2.7-1.6-4.1-3.4-4.1-5.2v-3.4c0-1.5,0.5-3.1,1.6-4.7c1.1-1.1,2.5-1.8,4.2-2.2h0.1l0.1,0.1l0.4-0.1c1.3,0.2,2.3,0.6,3.1,1
			c2.1,2.2,3.6,3.4,4.4,3.4l2.9-0.2l0.4,0.2l0.1-0.2l0.9,0.2h6.9c0.9,0,1.3-0.3,1.3-1c-0.4-2-1.3-4.1-2.9-6.2
			c-1.9-2.3-4.1-3.7-6.4-4.2h-0.1v0.2l0.1,0.2v0.3h-0.4l-0.1-0.2l-0.1,0.2h-0.3v-0.5h0.6v-0.5l-0.7-0.2H537l-0.3,1v0.2l0.1,0.2
			l-0.4,0.3h-0.1l-0.1-0.7h-0.1l-0.1,0.2h-0.1c0-0.3-0.1-0.5-0.3-0.5l0.3-1c-1.8-0.7-4.2-1-7.3-1h-2.1
			C524.1,101.7,521.5,102.1,518.7,102.9L518.7,102.9L518.7,102.9z M535.9,102.7l0.1,1l0.4-0.5v-0.4l-0.4-0.2H535.9L535.9,102.7z
			 M536.1,105.4l0.3,0.4v0.2h-0.4v-0.5H536.1L536.1,105.4z M521.8,107.4v0.4h-0.1v-0.4H521.8L521.8,107.4z M521.6,112.1v0.4h-0.3
			v-0.4H521.6L521.6,112.1z M537,126.1l0.1,0.5l-0.4,0.4h-0.1l-0.4-0.5v-0.4H537L537,126.1z M556,90.4l-0.1,0.7
			c-0.4,0-0.6,0.1-0.6,0.3l-0.6-0.1V91h0.1l0.6,0.1l0.2-0.7h-0.2l-1,0.1l-1-0.1h-0.2c-0.5,0-1,0.4-1.3,1.1c0,0.3,0.2,0.4,0.6,0.4
			v0.3c-0.4,0-0.6,0.1-0.6,0.4l0.1,1.6l-0.1,1.3v0.3L552,96l-0.1,0.1v0.4l0.1,0.7l-0.1,0.1v0.2l0.1,0.1l-0.1,2.2l-0.2,9.3l-0.1,1.6
			v4.2c0,0.3,0.1,0.7,0.4,1l-0.4,0.6v3.7l0.1,1.3l-0.1,1.5v10.5c0,1.1,0.4,1.6,1.3,1.6h6.6c1.7,0,2.6-0.5,2.6-1.6v-0.1l-0.1-0.1
			l0.1-3.9v-2.5l-0.1-1h0.1v-0.3l-0.1-1.1l0.1-1.9v-1.8c0.3-1.9,0.7-2.8,1.1-2.8c0-0.8,0.2-1.3,0.7-1.5h0.3v0.4
			c1.4-0.5,2.6-0.7,3.6-0.7c1.5,0,2.4,0.4,2.9,1.1c0.8,0,1.4,1.8,1.8,5.5l-0.1,0.9l0.1,0.1l-0.1,0.1v0.3c0.6,0,0.9,0.4,0.9,1.2v0.2
			h-0.1c-0.2,0-0.3-0.3-0.4-0.8h-0.2v0.8l0.2,0.3h0.6v0.4h-0.8l-0.3,1.5l0.3,2.2l0.6-0.3v-0.1l-0.1-0.1l0.3-0.3h0.2l0.2,0.9v1.2
			l-0.7-0.1l-0.6,0.3l0.1,0.1l-0.3,1.2l0.5,1.6l-0.1,0.6l0.5,0.3h0.1l0.1-0.1l0.1,0.1h2.1l0.7-0.3l1.1,0.3h3.7l0.6-0.1
			c0-0.5,0.1-0.7,0.4-0.7c0.4,0,0.6-0.7,0.6-2.1v-0.9l-0.1-1.2l0.1-1.6v-10.1c0-4-1.3-7-4-8.9h-0.1c-0.2,0-0.3,0.2-0.4,0.6h-0.7
			l-0.6,0.1l-0.4-1l0.1-0.1v-0.1l-0.1-0.1l-0.6,0.1h-0.2c-0.2,0-0.4-0.4-0.5-1.1h-0.4v0.1c0,0.2,0.1,0.3,0.4,0.3l-0.2,0.3h-0.4v-0.5
			l-1-0.6h-0.1l-0.1,0.1l-1.3-0.3l-0.6,0.3c0-0.2-0.3-0.3-1-0.4v0.1c-1.5,0-2.2,0.3-2.2,0.9l-0.4-0.3h-0.1c-0.4,0-0.8,0.3-1,0.8
			l-1.5,0.6H565l-0.7-0.3l-1.6,0.6c-0.6,0-0.7-3.7-0.5-11v-0.1l0.1-0.1l-0.1-0.1v-1.3l0.1-0.1l-0.3-0.7l0.3-0.7
			c-0.1-0.8-0.3-1.2-0.6-1.2V94l0.1-0.1l-0.1-0.1v-0.3c0.4,0,0.6-0.1,0.6-0.3v-1.8c0-0.8-0.4-1.2-1.2-1.2h-2.2l-0.8,0.1v-0.1h-0.2
			L556,90.4L556,90.4z M553.7,91.1h0.1l-0.1,0.5h-0.1l-0.1-0.1L553.7,91.1L553.7,91.1z M558.5,92.6l-0.1,0.6v0.2l0.1,0.1l-0.1,0.4
			l-0.4-0.1v-0.9l0.2-0.3H558.5L558.5,92.6z M555.1,92.8v0.6l-0.2,0.3h-0.2l-0.1-0.1l0.1-0.8H555.1L555.1,92.8z M555.3,93.7l0.1,0.1
			V94h-0.1l-0.1-0.1v-0.1H555.3L555.3,93.7z M552.8,94.1l0.2,0.3h-0.4v-0.3H552.8L552.8,94.1z M555,94.2v0.4h-0.4v-0.4H555L555,94.2
			z M557,95l0.1,0.1l-0.2,0.3h-0.3l-0.6-0.1V95H557L557,95z M554.3,95.3h0.3l0.2,0.3v0.1l-0.6,0.1h-0.1v-0.3L554.3,95.3L554.3,95.3z
			 M552.5,96l0.1,0.4l-0.1,0.1l-0.3-0.3V96H552.5L552.5,96z M555.2,97.4c0,0.5,0.1,0.8,0.4,0.8l-0.5,0.7H555c0-0.4-0.1-0.6-0.4-0.6
			l0.1-0.9H555.2L555.2,97.4z M554.3,97.8V98h-0.2v-0.1H554.3L554.3,97.8z M576.3,110.3l0.1,0.1v0.1l-0.1,0.1h-0.1l-0.1-0.1v-0.1
			l0.1-0.1H576.3L576.3,110.3z M564,113.3v0.1l0.1,0.1l-0.3,0.3l-0.2-0.3v-0.1L564,113.3L564,113.3z M561.1,115.5v0.4h-0.4v-0.6
			l0.1-0.1L561.1,115.5L561.1,115.5z M563.4,115.5h0.2v0.1c-0.2,0.3-0.5,0.6-1,0.7h-0.1l-0.1-0.1L563.4,115.5L563.4,115.5z
			 M555,116.1v0.3l-0.5,0.1v-0.4H555L555,116.1z M554.8,117l0.1,0.1v0.1l-0.4-0.1V117H554.8L554.8,117z M554.4,117.6l0.1,0.1v0.1
			l-0.1,0.1l-0.3-0.3v-0.1H554.4L554.4,117.6z M556,118v0.3h-0.1V118H556L556,118z M555.5,123v0.1h-0.2V123H555.5L555.5,123z
			 M553,123.8v0.3h-0.2v-0.3H553L553,123.8z M561.3,124.5v0.4h-0.1l-0.3-0.3v-0.1H561.3L561.3,124.5z M573.7,134.3v0.2h-0.2v-0.2
			H573.7L573.7,134.3z M593,108.1l-0.1-0.1c-4.4,1.3-6.6,4.2-6.6,8.5v1c0,3.9,1.9,6.5,5.8,7.8V125h0.2c0-0.8,0.2-1.2,0.7-1.2
			c0.2,0.1,0.4,0.4,0.4,0.9l-0.1,0.4l0.3,0.3h1l0.1,0.1v-0.1l2,0.4l1-0.6l-0.1-0.7h0.2l0.7,0.7l-0.2,0.4v0.3l0.4,0.1h0.1
			c0-0.6,0.1-0.9,0.3-0.9c0.1,0.4,0.4,0.6,0.7,0.6v0.3l-0.2,0.3l0.4,0.9v0.9c0.2,0,0.3,0.3,0.3,1v0.1l-0.1,0.1c-0.1,0-0.3-0.4-0.4-1
			c-0.7,0-1.2,0.4-1.8,1.1c0-0.5-0.3-0.7-0.8-0.7c-1.5-1.1-2.5-1.7-3.2-1.9l-0.7,0.3l-0.4-0.3c-0.1,0-0.2,0.1-0.2,0.4
			c-0.7-0.1-1.1-0.2-1.2-0.4H589l-0.1,0.1l-0.1-0.1h-0.4l-0.8,0.3l-0.5-0.3h-0.4c-0.4,0-0.5,0.3-0.5,0.9v0.1c0,0.2,0.1,0.3,0.4,0.3
			v0.3h-0.2v0.1l0.2,0.3l-0.1,0.4l0.1,0.9c1.3,3.9,4.8,5.9,10.5,5.9h0.5l0.7-0.7c0,0.4,0.2,0.7,0.6,0.7l1.1-0.3l0.1,0.1h0.1l0.6-0.1
			v-0.3l-0.2-0.4V135h0.4l0.2,0.3h0.1l-0.1,0.4l0.3,0.3c0.2-0.1,0.3-0.3,0.4-0.6l0.2,0.3c1,0,2.2-0.5,3.5-1.6l-0.1-1l0.4-0.3
			l0.1,0.9h0.3c0.9-0.9,1.3-1.5,1.3-2l-0.2-1.2h0.3c0,0.5,0.1,0.7,0.3,0.7c0.6-1,1-2.6,1-5v-0.4c0-1.1-0.5-2.5-1.6-4.2
			c-2-2.5-5.1-3.8-9.2-3.8h-0.1l-0.1-0.1l-0.1,0.1h-0.2c-1.9-0.4-2.9-0.8-3.1-1.2v-0.1c0.2-0.8,0.5-1.2,1.1-1.2h0.8l0.1-0.1l3.2,0.9
			h3.2l0.6-0.1l0.4,0.1h0.8c2.2,0,3.3-0.3,3.3-0.9c0-3.7-2.3-6.1-6.9-7.1v0.1l-0.1,0.1l-2.5-0.7h-0.1l-0.1,0.1l0.1,0.4
			c0,0.2-0.1,0.3-0.4,0.3h-0.1v-0.3l0.2-0.3l-0.2-0.3h-0.6C595.6,107.5,594.2,107.7,593,108.1L593,108.1L593,108.1z M591.8,109.8
			l0.1,0.7l0.3-0.4l0.2,0.3v0.3l-0.7,0.3c0-0.3-0.1-0.4-0.2-0.4l0.1-0.7H591.8L591.8,109.8z M593.6,110.7h-0.2v-0.3L593.6,110.7
			L593.6,110.7z M592.9,110.6l-0.2,0.3h-0.1v-0.3H592.9L592.9,110.6z M593.3,110.6l0.1,0.1l-0.2,0.3H593v-0.4H593.3L593.3,110.6z
			 M594.7,111.6l0.1,0.1v0.1l-0.1,0.1l-0.2-0.3v-0.1H594.7L594.7,111.6z M592.1,112.2l-0.2,0.3h-0.1v-0.3H592.1L592.1,112.2z
			 M593.4,114.4l-0.2,0.3v-0.3H593.4L593.4,114.4z M594,114.5v0.4h-0.3v-0.3L594,114.5L594,114.5z M593.6,118.6v0.3h-0.2
			L593.6,118.6L593.6,118.6z M593,121.5v0.4h-0.3l0.1-0.7L593,121.5L593,121.5z M593.9,121.7v0.1h-0.2v-0.1H593.9L593.9,121.7z
			 M596.3,122.1v0.1l-0.4,1c-0.3-0.1-0.4-0.3-0.4-0.4v-0.1C595.5,122.4,595.7,122.2,596.3,122.1L596.3,122.1L596.3,122.1z
			 M604.5,122.1l0.1,0.1l-0.1,0.4l-0.3-0.4v-0.1H604.5L604.5,122.1z M592.4,122.4h0.6v0.1l-0.2,0.3h-0.6v-0.1L592.4,122.4
			L592.4,122.4z M590.9,123.3v0.3h-0.2v-0.3H590.9L590.9,123.3z M595.2,124l-0.1,0.4l0.1,0.7l-0.1,0.1l-0.3-0.1v-0.9l0.2-0.3H595.2
			L595.2,124z M593.2,127.5v0.1H593v-0.1H593.2L593.2,127.5z M587.9,128v0.4h-0.2l-0.2-0.3l0.2-0.4L587.9,128L587.9,128z
			 M592.8,128.3l0.4,0.7v0.7h-0.6c-0.1,0-0.2-0.2-0.3-0.6h0.1v-0.3h0.3l0.1,0.1V128.3L592.8,128.3L592.8,128.3z M606,129.3v0.6
			c0,0.2-0.1,0.3-0.4,0.3l0.2,0.3l-0.2,0.3c0,0.6,0.1,1,0.4,1.3v0.1H606l-0.3-0.3l-0.3,0.3h-0.1l-0.1-0.9l0.3-1.2l-0.2-0.3l-0.4,0.1
			v-0.3c0.2,0,0.4-0.2,0.5-0.7L606,129.3L606,129.3z M587.3,129.3L587.3,129.3l0.2,0.1l0.3-0.1v0.1h0.2v0.1l-0.1,0.1h-0.1l-0.1-0.1
			h-0.1l-0.1,0.4l-0.6-0.1v-0.4L587.3,129.3L587.3,129.3z M606.7,129.6L606.7,129.6l0.1,0.4h-0.2l-0.1-0.1L606.7,129.6L606.7,129.6z
			 M593.4,130.3h-0.2V130L593.4,130.3L593.4,130.3z M588,130.1v0.1h-0.2v-0.1H588L588,130.1z M595,130.1v0.3h-0.1l-0.2-0.3H595
			L595,130.1z M597.1,130.1l-0.2,0.3v-0.3H597.1L597.1,130.1z M602.7,130.1l0.1,0.9h-0.1l-0.1,0.1h-0.2v-0.3l0.1-0.7H602.7
			L602.7,130.1z M598.1,130.7v0.3h-0.3v-0.7L598.1,130.7L598.1,130.7z M598.8,130.4l0.1,0.4l0.6-0.1h0.2c-0.2,0.5-0.4,0.8-0.7,1
			c-0.4,0-0.5-0.3-0.5-1v-0.3H598.8L598.8,130.4z M597.1,131l0.1-0.1h0.1l0.2,0.3l-0.2,0.3h-0.2V131L597.1,131L597.1,131z
			 M593.4,131v0.3h-0.1L593.4,131L593.4,131L593.4,131z M593.5,131.7v0.1l-0.1,0.1l-0.3-0.1v-0.1l0.1-0.1L593.5,131.7L593.5,131.7z
			 M600.4,132.3L600.4,132.3l0.2,0.4l-0.1,0.4c-0.1,0-0.2-0.2-0.3-0.6L600.4,132.3L600.4,132.3z M597,132.9l-0.2,0.3h-0.1v-0.4
			l0.1-0.1L597,132.9L597,132.9z M597.3,133.5l0.4,1.3v0.1c-0.4-0.3-0.5-0.8-0.5-1.3v-0.1H597.3L597.3,133.5z M602.4,133.9
			L602.4,133.9l0.1,0.3l-0.5,0.1v-0.3L602.4,133.9L602.4,133.9z M603.9,133.9l0.1,0.1l-0.4,0.6h-0.1L603.9,133.9L603.9,133.9
			L603.9,133.9z M598.4,134.4v0.3h-0.1l-0.2-0.3v-0.1l0.1-0.1L598.4,134.4L598.4,134.4z M601.9,134.7L601.9,134.7l0.1,0.3l-0.1,0.1
			h-0.1l-0.1-0.1L601.9,134.7L601.9,134.7z M598.4,134.8l0.2,0.3l-0.2,0.3h-0.1L598.4,134.8L598.4,134.8L598.4,134.8z M599.5,134.8
			L599.5,134.8l0.4,0.4v0.3h-0.4l-0.2-0.3v-0.1L599.5,134.8L599.5,134.8z"/>
		<path d="M1.2,19.3l-0.3,0.3L1.2,21v0.3l-0.3,0.3l1,0.5v2.5l-0.4-1.2l-0.9,0.3l0.6,1.8l-0.6,3.2l0.6,1.8l-0.3,0.3v2.6l0.2,0.3
			c-0.2,0.1-0.5,2.4-0.8,6.7l0.3,1.2l-0.3,2.9v2.9l0.3,0.3L0.3,48v2.9L0,52.7l0.3,1.5v5.3l0.6,1.8l-0.6,1.2C0.5,64.1,0.8,65,1.2,65
			l-0.9,2v0.3h0.6l3.2-1.5L4.4,67c0.1,0.6,1.5,1.3,4.1,2.1v0.6l-4.4-0.3l-1.5,0.9H2.3l-1.5-1.5l-0.6,0.6v5c0,1.6,0.8,2.3,2.3,2.3
			h5.9l0.3-0.3l0.3,0.3h5l1.8-0.6h0.3l0.3,0.3h0.3l0.3-0.3l0.3,0.3h6.2c3.5,0,5.3-0.9,5.3-2.6l-0.3-4.1l0.3-2.6l-0.3-3.2l0.3-0.3
			h-0.3l0.3-3.5l-0.3-2.1l0.3-2.9v-3.5l0.9-1.2c2.9-0.2,4.9-0.6,5.9-1.2l2.3,0.9l3.2-0.3h2.3l0.3,0.3v-0.3l4.4,0.6h1.5l0.3-0.3v0.3
			L51,50l7.6,0.6l0.9,0.9v8.8l0.3,1.5l-0.3,0.3c0.3,8.2,0.5,12.4,0.8,12.6h-0.2c0,1,0.7,1.7,2.1,2h0.3l0.3-0.3l3.2,0.3h1.5l0.3-0.3
			v0.3l4.4-0.6l-0.6-1.2v-0.3h1.8l0.9,0.6h2.3l0.3-0.3L75.9,72l0.3-0.3v-0.6l-0.6-0.9v-0.6l0.2-1.1c0.2,0,0.4,0.1,0.5,0.2l0.4,0.9
			l-0.3,1.5c0.5,1.9,1.2,3.2,2.1,4.1l0.3-0.3c0.5,1.2,1.7,1.8,3.8,1.8h0.6c3.3,0,5-1.3,5-3.8v-5.3L87.6,67v-0.3l0.3-0.3v-0.3
			c-1-0.8-1.8-1.5-2.3-2.2v-1.6l0.3,0.3v-0.6h-0.3v-4.5c0.4,0.2,0.7,0.5,0.9,0.9v0.9l-0.3,0.3l1.5,0.3c-0.2,1.8-0.4,2.6-0.9,2.6
			h-0.3c0.2,1,0.4,1.5,0.9,1.5h0.6v-0.6l-0.3-0.3l0.9-0.6l-0.3-1.2l0.3-3.2v-3.8l-0.3-0.3l0.3-0.3v-0.3l-0.3-2.6v-0.3l0.3-0.3V50
			l-0.3-0.3l0.3-1.2V48c-2-2.3-2.9-3.7-2.9-4.1l0.3-0.9c1.4,1.1,2.1,2.3,2.1,3.5h0.6l0.3-0.3L88.5,41l0.3-8.2v-22
			c0-3.1-0.9-4.7-2.6-4.7H62.7c-2,0-2.9,1.4-2.9,4.1v19.9c0,0.3-0.6,0.7-1.8,1.2l-18.2,0.6c-7.2,0-10.8-1-10.8-2.9l0.3-2L29,24v-0.3
			l0.3-0.3L29,21.3l0.3-6.7L29,12.8l0.3-2.6c0-2.7-1-4.1-2.9-4.1l-1.8,0.3l-3.2-0.3H10L6.4,6.4L5.3,6.1c-1.5,0.3-2.9,1-4.1,2.1
			l0.3,0.3L1.2,12v1.5l-0.3,0.3h0.3c0,1,0.2,1.5,0.6,1.5l0.4-0.1v1.5l-0.3,0.3h0.3l-0.1,0.4v0.2l-0.2,0.9v1.2l-0.4-0.2H1.2L1.2,19.3
			z M16.1,51.5l0.3-0.3c0-1.2,0.4-1.8,1.2-1.8c0-0.6,0.2-0.9,0.6-0.9h0.3l-0.3,2.1H19l0.3-0.3c0-0.6,0.2-0.9,0.6-0.9l0.6,0.6
			c0,0.4-1.2,1.9-3.5,4.4h-2.6c0.4-1,1.2-1.5,2.6-1.5v-1.2h-0.6L16.1,51.5L16.1,51.5z M43.7,46.8c0.3-1.2,0.9-1.8,1.8-1.8
			c0,1.1-0.6,2.1-1.8,3.2h-1.2l-0.9-0.9l-1.5,0.3l-0.6-0.6v-0.3c1.1-1,2.1-1.5,2.9-1.5l0.9,1.5H43.7L43.7,46.8z M79.7,45.4v-3.8
			l0.6,0.6l3.8,1.8v0.9l-0.3,0.3l-0.9-0.3L82,45.4H79.7L79.7,45.4z M20.3,27.9v-2.2c0.9-0.2,1.3-0.5,1.3-0.9l0.6-0.6h0.9v0.9
			L22.3,26l0.6,0.6h0.3l-0.9,2.6c-0.6,0-0.9,0.2-0.9,0.6l-0.6-0.6v-1.2l0.3-0.3h-0.6L20.3,27.9L20.3,27.9z M76.5,23.7h0.3l1.8,1.8
			v0.3L78.2,26c-1.2,0-1.8,0.7-1.8,2h-0.6c0-1-0.4-1.8-1.2-2.3v-0.3L76.5,23.7L76.5,23.7z M5.6,7c1.8,0.4,2.6,0.7,2.6,1.2v0.3H7.3
			L4.4,8.7c0-0.4-0.3-0.6-0.9-0.6V7.9C4.3,7.9,5,7.6,5.6,7L5.6,7L5.6,7z M19.9,51.5c2.1,0.5,3.2,1.1,3.2,1.8v0.6L22,53.3l-0.6,0.6
			l-1.8-1.2l0.3-0.9V51.5L19.9,51.5z M3.5,58.8l0.9,0.9l-1.5,2.1H2.3l-0.6-0.6v-0.6c0.8-0.6,1.2-1.2,1.2-1.8H3.5L3.5,58.8z
			 M25.5,48.6h0.3c0,0.8,0.2,1.2,0.6,1.2h0.3l0.3-0.3l0.3,0.9c0,0.6-0.2,0.9-0.6,0.9h-0.6l-1.8-1.5L25.5,48.6L25.5,48.6z M10.3,60.3
			H9.4c0-0.5-0.7-1-2.1-1.5v-1.2C8.4,57.7,9.4,58.5,10.3,60.3L10.3,60.3L10.3,60.3z M25.5,45.6l0.3,1.5c-1.1,0.4-1.6,0.9-1.8,1.5
			h-0.3l-0.3-0.3C24.4,46.5,25.1,45.6,25.5,45.6L25.5,45.6L25.5,45.6z M65.3,57.1l0.3,0.3c0,0.6,0.3,0.9,0.9,0.9v0.6h-0.3
			c-1.6-0.7-2.3-1.2-2.3-1.5v-0.3H65.3L65.3,57.1z M67.1,59.8v1.3l-0.6,0.4c0-0.4-0.4-0.5-1.2-0.6v-0.6l0.3-0.3
			C66.2,60,66.7,59.9,67.1,59.8L67.1,59.8L67.1,59.8z M12.9,56.8l0.9,1.5l-0.6,0.6h-0.9l0.3-2.1H12.9L12.9,56.8z M20.3,22.6v-1.8
			h0.2l0.9,0.9v0.9l-0.3,0.3L20.3,22.6L20.3,22.6z M10.3,63.2l0.6,0.6l-0.3,0.3v0.6H10l-0.9-0.9v-0.3L10.3,63.2L10.3,63.2z M12.9,60
			h0.3l2.1,1.5h-0.3l-0.6-0.6h-0.3l-0.3,0.3h-0.9l-0.6-0.6L12.9,60L12.9,60z M37.8,46.2v0.9c-1,0-1.6-0.3-1.8-0.9v-0.3L37.8,46.2
			L37.8,46.2z M14.6,55.6l0.3-0.3h0.9v1.2h-1.2l-0.3-0.9H14.6L14.6,55.6z M20.3,17.5v-1.1c0.3-0.2,0.8-0.3,1.3-0.4v0.6l-0.9,0.9
			H20.3L20.3,17.5z M15.8,72.9h-0.9L14.1,72v-0.3C15,71.7,15.6,72.1,15.8,72.9L15.8,72.9L15.8,72.9z M12,43.9v0.3h0.6v1.2h-0.3
			l-1.2-1.2L12,43.9L12,43.9z M87,38.6h0.6v0.9l-0.9,0.3h-0.3v-0.6L87,38.6L87,38.6z M10.5,44.5l0.6,0.6v0.3l-0.6,0.6h-0.3L10,45.1
			L10.5,44.5L10.5,44.5z M82.3,41h0.3l0.6,0.6v0.3l-0.3,0.3l-1.2-0.6L82.3,41L82.3,41z M10.8,58.2h0.9v0.6l-0.9,0.3h-0.3l-0.3-0.3
			L10.8,58.2L10.8,58.2z M12,52.1V53h-0.9v-0.9H12L12,52.1z M25.5,56.5v0.9h-0.9v-0.9H25.5L25.5,56.5z M21.1,73.5v0.6h-1.2v-0.6
			H21.1L21.1,73.5z M20.3,19.9v-1.2h0.8V19l-0.6,0.9H20.3L20.3,19.9z M2.1,29.8l0.1,0.1l0.1,0.6h0.3l0.2-0.1l0.3,0.2V31H2.3
			l-0.6-0.6v-0.6H2.1L2.1,29.8z M32.5,42.4l0.3,0.3V43l-0.3,0.3h-0.3L31.9,43v-0.3l0.3-0.3H32.5L32.5,42.4z M26.1,69.7h0.3l0.3,0.3
			l-0.6,0.6h-0.3l-0.3-0.3L26.1,69.7L26.1,69.7z M23.7,55.6l0.6,0.6v0.3h-0.9v-0.9H23.7L23.7,55.6z M32.5,37.4V38h-0.9v-0.6H32.5
			L32.5,37.4z M74.1,27.8v0.9h-0.3l-0.6-0.6L74.1,27.8L74.1,27.8z M37.5,36.3l0.6,0.6h-0.9v-0.6H37.5L37.5,36.3z M24,59.1v0.6h-0.6
			v-0.6H24L24,59.1z M10.5,72.9v0.9L10,73.2v-0.3H10.5L10.5,72.9z M63.6,50.9h0.3v0.6H63L63.6,50.9L63.6,50.9z M80.3,36v0.6h-0.6V36
			H80.3L80.3,36z M22.9,54.4V55h-0.6v-0.6H22.9L22.9,54.4z M20.2,56.5v0.3h-0.6v-0.3H20.2L20.2,56.5z M15.8,57.7v0.6l-0.6-0.6H15.8
			L15.8,57.7z M82.9,36.3v0.3h-0.6v-0.3H82.9L82.9,36.3z M24.6,30.4V31H24L24.6,30.4L24.6,30.4z M34.3,32.8v0.6H34v-0.6H34.3
			L34.3,32.8z M7.9,46.5v0.6H7.6v-0.6H7.9L7.9,46.5z M68.6,32.2v0.6h-0.3v-0.6H68.6L68.6,32.2z M1.2,16.3h0.3v-0.6H1.2V16.3
			L1.2,16.3z M9.4,42.1v0.3H8.8v-0.3H9.4L9.4,42.1z M76.8,66.6V67c-0.1,0-0.2,0.1-0.3,0.2v-0.6H76.8L76.8,66.6z M104.2,12.3
			c-5.8,6.7-8.7,15.2-8.7,25.4l0.2,1.8l-0.2,2.2c0,3.1,0.6,7.2,1.7,12.5c3.7,14.8,12.8,22.1,27.3,22.1h2.6c7.3,0,13.3-1.5,18.1-4.6
			c5.5-5.1,8.3-10.4,8.3-16.1c0-0.9-0.2-1.4-0.6-1.4l-1.1,0.4l-1.3-0.4h-0.2l-1.1,0.4l-1.3-0.4h-3l-0.2,0.4l-0.2-0.4h-10.1
			c-0.8,0-3.6,1.5-8.5,4.6c-6.4-1.1-9.6-3.6-9.6-7.5v-1.1c2.3-0.7,4.4-1.1,6.4-1.1h7.9l1.9-0.4c0.4,0,0.6-0.5,0.6-1.5h0.2l0.4,0.7
			v0.4l-0.2,0.4h0.2l0.2,0.4h0.6l0.2-0.4l0.2,0.4h1.7l1.1-0.4l0.2,0.4v-0.4l1.5,0.4l0.6-0.4l2.3,0.4h7.7l1.1-0.4l0.2,0.4
			c1.8-0.4,2.8-1.5,2.8-3.2l-0.2-2.9l0.2-1.1h-0.2l0.2-1.8c0-7.2-1.6-14.1-4.9-20.7c-3-6.1-7.5-10.2-13.4-12.5l-0.9,0.8
			c0-1-1.8-1.7-5.3-2.2h-5.7C116,5.5,109.4,7.8,104.2,12.3L104.2,12.3L104.2,12.3z M113.7,17.3v0.4l-0.5,0.7v-1.1H113.7L113.7,17.3z
			 M143.5,19.1h0.2l0.4,0.7l-0.4,0.7l-0.6-0.7L143.5,19.1L143.5,19.1z M139.5,20.2v0.7h-0.6v-0.7H139.5L139.5,20.2z M144.4,20.9v0.7
			H144v-0.7H144.4L144.4,20.9z M124.7,23h0.8c5.9,1.1,8.8,3.5,8.8,7.1c0,1.2-3.7,1.8-11.1,1.8h-5.3c-0.8,0-1.5-0.5-2.1-1.4
			C115.8,27.1,118.8,24.6,124.7,23L124.7,23L124.7,23z M110.2,23.4h0.5l-1.3,1.8h-0.2v-1.4L110.2,23.4L110.2,23.4z M144.1,24.8
			l-0.4,0.7h-0.2v-0.7H144.1L144.1,24.8z M148.4,27H148v-0.7L148.4,27L148.4,27z M113,27.7h0.2v1.1h-0.6v-0.4L113,27.7L113,27.7z
			 M145.2,28.7v0.7h-0.6v-0.7H145.2L145.2,28.7z M148.8,30.9l1.1,0.4l-0.9,1.8h-0.4l-0.2-0.4l0.2-1.8H148.8L148.8,30.9z M137.1,34.8
			l0.2,0.4l-0.5,2.5h-0.4v-2.9H137.1L137.1,34.8z M111.9,35.5v0.7h-0.2v-0.7H111.9L111.9,35.5z M152.5,36.2l0.5,0.7v0.4h-0.6
			l-1.1-0.4v-0.7H152.5L152.5,36.2z M138.4,37.3v1.1l-0.6-0.4v-1.1l0.2-0.4L138.4,37.3L138.4,37.3z M148.2,36.9h0.5l0.4,0.8V38
			l-0.6,0.4c-0.4,0-0.6-0.2-0.6-0.7L148.2,36.9L148.2,36.9z M119.6,38.4v0.4h-0.4v-0.4H119.6L119.6,38.4z M139.2,39.4v1.1l-0.6,0.4
			v-0.4l-0.2-0.4v-0.7H139.2L139.2,39.4z M133.5,43.4h0.2c0.3,0,0.4-0.4,0.4-1.1h0.4V42h-0.4v-0.4h0.6c0,2.9-0.2,4.3-0.6,4.3h-0.2
			l-0.4-1.5h-0.2l-0.2,0.4l-0.6-0.8l0.4-2.8C133.3,41.4,133.5,42.1,133.5,43.4L133.5,43.4L133.5,43.4z M138.8,41.2V42h-0.4v-0.7
			H138.8L138.8,41.2z M135.2,43.7l0.2-0.4h1.5l0.2,0.4l0.2-0.4h0.4l0.2,0.4v0.4l-0.2,0.4l-0.6-0.4l-1.7,1.1l-0.4-1.5H135.2
			L135.2,43.7z M138,45.5v0.4h-0.5v-0.4H138L138,45.5z M164.6,6.2c-1.5,0.6-2.2,2.2-2.3,4.8l0.4,4l-0.2,1.4c0,1.4,0.4,2.1,1.3,2.3
			l1.3-0.6l0.6,0.6h0.9l2,0.3l0.9-0.3l0.6,0.3l1.1-0.5l0.2,0.3l0.9-0.3c0.8,0.5,3,0.8,6.4,0.9l0.7-0.3v0.3c1.2,0,1.8-1.8,1.8-5.4
			V9.4c0-2.3-1.5-3.4-4.6-3.5h-3.1L164.6,6.2L164.6,6.2z M162.1,12.7v0.6h-0.5v-0.6H162.1L162.1,12.7z M174.8,14.2l-0.3,1.2v0.3
			l0.3,0.2l-0.3,0.9l-0.8-0.3v-1.7l0.5-0.6H174.8L174.8,14.2z M166.8,14.5l1.3,0.3c-0.5,1.1-1,1.7-1.3,1.7l-0.5-0.9v-1.1H166.8
			L166.8,14.5z M163.1,17.3v0.3h-0.5v-0.3H163.1L163.1,17.3z M166.5,17.3l1.3,0.3l-0.1,0.3l-0.8,0.3c-0.5,0-0.8-0.2-0.8-0.6v-0.3
			H166.5L166.5,17.3z M161.8,31l0.5,3.8c-0.3,0-0.4,0.6-0.5,1.8v1L161.6,67l0.2,2.1l-0.2,0.8V70l0.2,0.2l-0.2,0.3V72l0.2,1.5
			c0,1,5.8,1.5,17.5,1.5h0.8c1.6,0,2.3-3.9,2.3-11.8v-9.6c0-3.7-0.2-6.4-0.5-8.1l0.5-2.5l-0.2-1.5V30.8c0-1.7-2.1-2.5-6.4-2.5
			l-0.2,0.2v-0.2l-0.9,0.2l-2.2-0.2h-2.1l-0.2,0.2l-0.2-0.2h-0.5l-0.3,0.2v-0.2l-0.9,0.2l-2.6-0.2h-1.7
			C162.7,28.2,162,29.2,161.8,31L161.8,31L161.8,31z M217,29.5h-0.5l-0.2-0.2v0.2c-0.7,0-1.4,0.3-2,0.8c0,0.7-0.2,1.1-0.5,1.1
			l-0.8-0.8l-1,0.3l-2.2-2.4h-2l-0.8,0.5h-0.2c-0.4-0.4-1.3-0.6-2.8-0.8l-1,0.2l-2.8-0.2h-4.3l-1.8,0.2l-1-0.2H192
			c-1.3,0-2,0.9-2,2.6v6.8l0.5,1.6l-0.5,2.1l0.2,0.3l-0.2,1.5l0.5,1.9l-0.5,1.3l0.2,1.9l-0.5,9.7V61l-0.2,1.9l0.2,0.2l-0.2,0.3v8.7
			c0,2.6,0.7,3.9,2.2,3.9h15.8c1.7-0.2,2.5-0.7,2.5-1.6h-0.8v-0.5h0.3l0.2,0.3c0.3,0,0.6-1.2,1-3.5l-0.5-1.6l0.8-1.3v-1.1l-0.2-0.2
			h0.2l-0.2-1.3l0.2-4.5v-0.3l-0.2-0.2l0.2-0.3v-7.6c0-4.7,2.4-8,7.3-10c3-0.2,4.5-0.7,4.5-1.6h0.2c0.4,0,0.5,0.4,0.5,1.1
			c2.2,0,4.5,1.1,6.7,3.2c1.2,1.3,1.8,6.2,1.8,14.7l-0.5,1.1l0.3,1.6l-0.3,2.1l0.3,1.3l-0.3,2.1l0.3,6.6c0,1.1,2.8,1.6,8.5,1.6h0.2
			l0.2-0.3L241,76h6l1.8-0.3l1,0.3h0.5c1.8,0,2.9-3.1,3.3-9.4l-0.2-3.5l-0.3-15.2c0-8.3-2.5-14-7.5-17.1c-5.3-2.8-9.5-4.2-12.7-4.2
			l-3.5,0.5l-0.8-0.5C223.8,26.6,220,27.6,217,29.5L217,29.5L217,29.5z M217,30.5v0.3l0.2-0.3c0.5,0.2,1.1,0.7,1.5,1.6v0.8
			c0,0.4-0.7,0.6-2.1,0.8l-0.7-0.8v-2.1L217,30.5L217,30.5z M228.2,31.3l0.2-0.3l1.5,1.6v0.5h-0.5v-0.8c-1,0-1.5-0.4-1.5-1.1H228.2
			L228.2,31.3z M231.2,31.9v0.5l-1.5-0.8v-0.2l0.3-0.3C230.8,31.2,231.2,31.4,231.2,31.9L231.2,31.9L231.2,31.9z M223.7,31.3
			c0.5,0.5,1.1,0.8,1.5,0.8v0.5l-0.5,0.5h-0.2c-0.4-0.1-0.8-0.7-1.3-1.8H223.7L223.7,31.3z M228.7,33.7h0.3c0,0.7-0.3,1.4-0.8,2.1
			l-1-1.1v-0.5L228.7,33.7L228.7,33.7z M218.4,35l0.3,0.3c-0.4,1.4-0.9,2.1-1.3,2.1l-0.5-0.5v-1.1C217,35.5,217.5,35.2,218.4,35
			L218.4,35L218.4,35z M226.2,35.5h0.5v0.3c0,0.4-0.3,0.5-0.8,0.5l-1.5,2.1h-0.8v-0.3C224.5,36.8,225.3,35.9,226.2,35.5L226.2,35.5
			L226.2,35.5z M220.2,37.6l0.5,0.8V39h-1l-0.5-0.5L220.2,37.6L220.2,37.6z M233,37.9l0.8,0.8V39h-1v-1.1H233L233,37.9z M203.7,38.1
			L204,39h-0.3l-0.2,0.2h-0.2L203,39L203.7,38.1L203.7,38.1z M217,38.4V39l-0.5,0.5H216v-1.1H217L217,38.4z M222.5,39.2V40l-0.8,0.2
			V40l-0.2-0.3v-0.5H222.5L222.5,39.2z M207.9,40.3v0.5h-0.2v-0.5H207.9L207.9,40.3z M216,41.1h0.2v0.5l-0.8,0.8v-0.8L216,41.1
			L216,41.1z M200.2,42.9l0.2,0.2l-0.5,0.5l-0.5-0.5v-0.2H200.2L200.2,42.9z M232.7,48.9h0.2v0.8l-0.2,0.2l-0.5-0.5L232.7,48.9
			L232.7,48.9z M201.2,59.5l1.2,1.5v0.3l-0.2,0.2l-1.5-0.2c-0.4-0.7-0.8-1.1-1.2-1.1v-0.5L201.2,59.5L201.2,59.5z M195.7,66.8
			l0.8-0.2h0.2l0.2,0.2l-0.5,1.3h-1.1l-1-0.5v-2.1l0.3-0.3L195.7,66.8L195.7,66.8z M207,65.2v0.5h-0.5v-0.5H207L207,65.2z
			 M193.7,69.4V70h-0.5v-0.5H193.7L193.7,69.4z M249.5,69.7h0.2l0.5,0.5l-0.5,0.5h-0.2l-0.5-0.5L249.5,69.7L249.5,69.7z M244.2,70.7
			h0.5V71l-0.5,0.5h-0.5v-0.3L244.2,70.7L244.2,70.7z M248,74.2h0.5v0.5l-0.5,0.5h-0.5v-0.5L248,74.2L248,74.2z M271.7,10.7
			l-0.7-0.4h-1.2l-3.3,0.7l-1.4-0.4h-0.4c-1.2,0-1.8,2.9-1.8,8.7l0.2,5.3c0,3.7,0.4,5.6,1.2,5.6h5.7l1-0.7l1.2,0.7h5.6l0.4,0.7v0.7
			L262,56.8c-0.8,0-1.2,4.7-1.2,14c0,2.8,3.8,4.2,11.4,4.2l2.6-0.7l21.7-0.7l0.7,0.4l0.2-0.4l1,0.4h0.2c3,0,4.5-1.3,4.5-3.9V56.5
			c0-2.1-1-3.1-3.1-3.1h-3.6l-2.3,0.4l-8.1-0.7h-0.2l-0.2-0.4c0-0.8,0.5-2,1.5-3.5l13-18.6c2.4-2.5,3.6-5,3.6-7.3V12.8
			c0-1.9-0.8-2.8-2.4-2.8h-18.2l-0.2,0.4l-0.2-0.4h-9.1C272.8,10,272.2,10.2,271.7,10.7L271.7,10.7L271.7,10.7z M270.6,17.6v0.7
			l-0.3-0.7H270.6L270.6,17.6z M271.5,19.7l0.4,0.7l-0.7,2.1H271l-0.2-0.4C270.8,21,271.1,20.1,271.5,19.7L271.5,19.7L271.5,19.7z
			 M270.2,21.9v1.1l-0.7,0.7l-0.4-0.7v-0.4L270.2,21.9L270.2,21.9z M273.1,55.1v0.6h-0.4v-0.6H273.1L273.1,55.1z M264.8,57.5
			l0.2,0.4l-0.4,0.7h-0.2v-0.7l0.2-0.4H264.8L264.8,57.5z M275.7,60v0.7l-0.4-0.7H275.7L275.7,60z M294.4,60v0.7H294V60H294.4
			L294.4,60z M297,64.2v1.4h-0.5l0.2-1.4H297L297,64.2z M346.7,6.2c-1.5,0.6-2.2,2.2-2.3,4.8l0.4,4l-0.2,1.4c0,1.4,0.4,2.1,1.3,2.3
			l1.3-0.6l0.6,0.6h0.9l2,0.3l0.9-0.3l0.6,0.3l1.1-0.5l0.2,0.3l0.9-0.3c0.8,0.5,3,0.8,6.4,0.9l0.7-0.3v0.3c1.2,0,1.8-1.8,1.8-5.4
			V9.4c0-2.3-1.5-3.4-4.6-3.5h-3.1L346.7,6.2L346.7,6.2z M344.2,12.7v0.6h-0.5v-0.6H344.2L344.2,12.7z M356.8,14.2l-0.3,1.2v0.3
			l0.3,0.2l-0.3,0.9l-0.8-0.3v-1.7l0.5-0.6H356.8L356.8,14.2z M348.8,14.5l1.3,0.3c-0.5,1.1-1,1.7-1.3,1.7l-0.5-0.9v-1.1H348.8
			L348.8,14.5z M345.2,17.3v0.3h-0.5v-0.3H345.2L345.2,17.3z M348.6,17.3l1.3,0.3l-0.1,0.3l-0.8,0.3c-0.5,0-0.8-0.2-0.8-0.6v-0.3
			H348.6L348.6,17.3z M343.9,31l0.5,3.8c-0.3,0-0.4,0.6-0.5,1.8v1L343.7,67l0.2,2.1l-0.2,0.8V70l0.2,0.2l-0.2,0.3V72l0.2,1.5
			c0,1,5.8,1.5,17.5,1.5h0.8c1.6,0,2.3-3.9,2.3-11.8v-9.6c0-3.7-0.2-6.4-0.5-8.1l0.5-2.5l-0.2-1.5V30.8c0-1.7-2.1-2.5-6.4-2.5
			l-0.2,0.2v-0.2l-0.9,0.2l-2.2-0.2h-2.1l-0.2,0.2l-0.2-0.2h-0.5l-0.3,0.2v-0.2l-0.9,0.2l-2.6-0.2H346C344.7,28.2,344,29.2,343.9,31
			L343.9,31L343.9,31z M400.5,9.3h-0.2c-0.2-0.7-0.3-1.7-0.5-2.8c-0.5,0-0.8,0.4-0.8,1.1h-1v0.4l-0.4,1.6h-0.4l-0.3-0.5V8.7l0.2-0.4
			V7.2h-0.4V6.8l1-1.5l-0.4-0.8h-1.1c-0.5,0-0.9,0.4-1,1.1l-0.9-0.8l-1,0.8c0,0.4,0.4,0.9,1.3,1.5c0,0.6-0.4,1-1.3,1.1l-0.8-0.4v0.4
			c-0.4,0-0.6,0.6-0.6,1.9c-0.1,0-0.2,0-0.3,0.1l-1.3,0.4v-0.1l-0.1,0.1l-0.8,0.2c-0.1-1-0.3-1.5-0.5-1.5h-0.5l-1.3,1.1l-0.9-0.8
			c-0.3-2-0.6-3-1-3l-0.8,0.4l-1.1-0.4L382,7.6l-0.5-0.8l-0.4,1.1l-0.5-1.1l-0.8,0.4v0.7h0.4v0.8l0.1,2.6l-0.6,0.4v3.8
			c-0.2,0.9-0.5,1.5-0.9,1.9c0-0.7-0.3-1.1-0.8-1.1v-4.1l0.3-0.8c0.4,0.2,0.5,0.9,0.5,2.2h0.5v-2.2c0.3,0,0.5-0.3,0.5-0.8v-0.4
			l-1.5,0.4V9.8c0-0.6,0.4-1,1.2-1.1V7.6L379,6.8h-0.3l-0.2,0.4l-0.2-0.4h-2.3L375,7.2V6.8h-0.3c-1.3,0.6-1.9,1.5-1.9,2.6l0.1,1.1
			l-0.1,2.6v0.8c0.4,0,0.8,1.3,1.3,3.8V18h-1.2l-0.1,1.9v0.4l0.1,2.6l-0.1,0.4l0.6,3.4l-0.6,1.1l0.3,1.9l-0.3,1.1
			c0,0.5,0.3,1,0.8,1.5l0.5-1.2v-0.4h-0.6l0.6-1.5h0.3l0.4,0.8v0.8h-0.5l0.8,1.5h0.2c0.1-1.2,0.2-1.9,0.5-1.9l1,0.4h0.2l0.1-0.4
			l0.4,3v2.2c-0.4,0.1-0.6,0.5-0.6,1.1c-0.2,0-0.7-1.1-1.5-3.3l-0.6,0.8v0.7h0.3V36h-0.3v0.4c0.3,0,0.5,0.4,0.5,1.1l-0.2,0.4h-0.1
			l-0.2-0.4h-0.2l-0.2,1.1c-0.5-1-0.9-2.3-1.1-3.8h0.2l-0.2-1.1c-0.3,0-0.5,1.6-0.5,4.9v10.5l0.2,2.6c-0.2,0-0.3,0.7-0.4,2.2
			l0.2,4.1l-0.2,4.9v5.6c0,4.3,0.9,6.4,2.6,6.4h7.1l1.4-0.4c1.8,0,2.6-1.4,2.6-4.1l-0.2-4.1v-0.4l0.2-0.4l-0.2-0.4v-0.4l0.2-1.5
			v-0.4l-0.2-0.4l0.2-2.6l-0.2-1.1v-0.4l0.2-0.4H386l0.2-3l-0.2-1.9l0.3-4.1l-0.1-1.9l0.1-2.2l-0.1-1.1l0.1-2.3l-0.1-2.2
			c0-2.6,0.5-5.4,1.6-8.6c1.4-2.7,2.7-4.2,4-4.5v0.4l0.5-0.6c0.2,0,0.4-0.1,0.6-0.1c1.5,0.3,2.8,0.8,3.7,1.5h0.6
			c0-0.8,0.1-1.3,0.2-1.5l0.6,0.1l0.5,0.6v1.1l-1.1,0.8l0.8,2.6c0.5,0,1,3.1,1.5,9.3l-0.1,0.8v0.2c-0.1,0.3-0.1,0.9-0.2,2
			c0,1.6,0.1,2.8,0.2,3.7V48l0.1,0.2l0.1,0.1h-0.2l0.2,1.9c-0.1,0.7-0.1,1.7-0.2,3v2.9c-0.2,4-0.3,7.7-0.4,10.9v2.7
			c0,0.6,0,1.2,0.1,1.7l0.1,1.5l-0.2,1.5c0.1,0.8,0.5,1.2,1.1,1.2h2.6c1.5,0,2.5-0.1,3.2-0.3h0.1l0.4,0.1h0.2l0.2-0.4l1.8,0.4h0.6
			c0.5,0,0.8,0,1.1-0.1l0.4,0.4c1.2-0.2,1.9-0.5,1.9-1.2v-1.9c0.4-1.2,0.6-3,0.7-5.4v-0.8l-0.2-2.3l0.2-1.1l-0.2-4.5l0.2-5.3v-3.8
			l-0.2-0.4h0.2l-0.2-2.2v-0.8c0-9.3,1.3-15.4,4-18.3c2-1.1,3.2-1.9,3.6-2.6h0.2l1.6,1.5v-0.4l1.4,1.2c1.3,1.6,2.2,5.1,2.6,10.5
			c-0.1,0-0.2,0.1-0.2,0.2l0.2,0.2c0.2,2.4,0.3,5.1,0.3,8.1l-0.2,5.3v3l0.2,1.9h0.4l1.1-3h0.3v0.7l-0.1,0.4c-0.2,3-0.4,4.5-0.6,4.5
			c-0.3,0-0.4-0.5-0.5-1.5c-0.5,0.6-0.8,1.6-0.8,3v5.2l-0.2,4.5c0.5,2.5,1.1,3.8,1.8,3.8h0.2c0.5,0,0.9-0.4,1-1.1
			c0.2,0.5,0.8,0.9,1.8,1.1h0.2l0.1-0.4l1.3,0.8l0.5-0.4l5.2,0.8c1.4,0,2.1-1.5,2.1-4.5V55.1l-0.2-7.5h0.2v-1.1l-0.2-0.4
			c0-0.7-0.3-1.1-0.8-1.1v-1.5c0.3-0.9,0.5-1.9,0.6-2.8l0.1-0.1v-0.3c0.1-0.6,0.1-1.2,0.1-1.8v-0.4h-0.1v-4.5l0.3-1.9l-0.3-1.3v-1.8
			c0-0.1-0.2-0.2-0.4-0.3l0.3-2.2c-0.4-3.7-0.7-5.6-1.1-5.6H439l0.2-1.2v-0.7c0-0.7-0.4-1.2-1.1-1.5h-0.2c0.2,2.3,0.5,3.4,0.8,3.4
			l-0.4,1.1c-0.6,0-1-0.9-1.1-2.6l0.5-1.1l-0.3-2.6h-0.2c-0.4,0.4-0.6,0.9-0.6,1.5h-0.2v-0.8h-0.3c0,1.8-0.3,2.6-1,2.6l-0.2-1.9
			l0.2-0.4v-0.4l-0.3-1.1v-1.5l0.1-0.4c0.8,0,1.2,0.4,1.2,1.1h0.6v-1.1c0-1.7-0.6-2.9-1.8-3.8l-0.6,0.8l-0.1-1.1h-0.4l-0.8,1.5h-0.8
			l-0.1-0.4c-0.4,1.5-1,2.2-1.8,2.2v-1.1l0.6-4.5l-0.3-0.7l-0.8,0.7c0-1-0.1-1.5-0.3-1.5h-0.7v0.4l0.5,1.5v0.7
			c-0.5,1.2-0.7,2.8-0.8,4.9h-0.4V9.1l-0.3-0.8c0-2.5-0.8-3.8-2.3-3.8c-4.3,0-9.1,2.9-14.4,8.6c-0.5,0-1-0.5-1.5-1.5
			c-2.1-2.9-4.8-5-8.3-6.3h-0.2c-0.3,1.5-0.5,2.2-0.8,2.2v1.1l0.6-1.1v1.8c-0.2,0-0.4-0.1-0.6-0.1c0.2,0.2,0.4,0.3,0.6,0.5v1.6h-0.1
			c-0.2,0-0.3-0.3-0.5-0.8l-0.1-1V9.3L400.5,9.3z M376,56.2c0.1-1.2,0.3-1.9,0.5-1.9h0.2c0,1.3,0.2,1.9,0.6,1.9v0.4l-0.4,1.1v0.4
			l0.2,0.4h-0.2l-0.3,0.7v1.2h0.5c0,1.3-0.3,2.3-0.8,3c-0.2,0-0.4-0.8-0.5-2.3l0.3-1.9H376v-0.4l0.1-0.4v-1.2l-3,0.8v-0.4
			c0.2-1.2,0.7-1.9,1.5-1.9l1.1,0.4H376L376,56.2z M382.1,7.9L382,9.8l0.3,1.5v1.1l-0.1,0.4c0.3,0,0.5,0.4,0.5,1.2l-0.4,0.7
			l-0.1-1.5h-0.6c0,0.7,0.2,1.1,0.6,1.1v0.8c-0.7,0-1,0.3-1,0.8v0.4c-0.5,0-0.8-0.3-0.8-0.8c-0.3,0-0.5-0.3-0.5-0.8v-0.7l0.6-0.4
			v0.4l1-0.8l-0.2-1.9C381.3,9,381.6,7.9,382.1,7.9L382.1,7.9L382.1,7.9z M438.4,59.2l0.4-1.5l0.2-0.4l0.8,2.6l-0.6,1.9l0.5,1.1
			l-0.4,3H439c0-1.6-0.5-3.5-1.4-5.6v-0.4C437.6,59.4,437.9,59.2,438.4,59.2L438.4,59.2L438.4,59.2z M429,63.7c0.5,0,0.9,0.5,1,1.5
			l0.3-0.8c0.4,0.7,0.8,1.1,1.2,1.1h0.1l0.2-0.4v0.4h0.4v1.1l-0.5,0.4c-1.9-1.1-2.9-2-2.9-2.6L429,63.7L429,63.7z M376,22.9
			c0.9,0.2,1.3,0.7,1.3,1.5c0,0.5-0.3,0.8-1,0.8v0.4l0.4,0.7v0.4l-0.2,0.4c-0.4-1.5-0.9-2.2-1.5-2.2v-1.1L376,22.9L376,22.9z
			 M381.3,57.3l0.6,1.5v0.4l-0.2,0.4l-0.5-0.4h-0.2v0.8l0.4,1.1v1.1l-0.4,0.8h-0.3l-0.5-3.3h0.5v-0.4l-0.2-0.4
			c0-0.5,0.2-0.8,0.5-0.8v-0.8H381.3L381.3,57.3z M435.2,21l0.2,0.4v0.4l-0.2,0.4l0.4,0.8c-0.1,2-0.3,3-0.5,3h-0.1
			c-0.2,0-0.4-0.9-0.6-2.6c0.5-0.5,0.7-1,0.8-1.5v-0.4l-0.1-0.4H435.2L435.2,21z M425.8,20.7l1.5-1.2h0.3v1.9c0,0.4-0.3,0.8-0.8,1.2
			c0-0.5-0.3-0.8-1-0.8V20.7L425.8,20.7z M383.6,54.7l0.2,3c-0.5,0-0.9,0.3-1.1,0.8h-0.2v-0.4l0.2-1.5l-0.2-1.5L383.6,54.7
			L383.6,54.7z M386.2,18c0,1.5-0.4,2.2-1.3,2.2v-1.1l0.5-2.2C385.9,17.1,386.2,17.5,386.2,18L386.2,18L386.2,18z M402.4,39.2h0.2
			c0.7,0,1.1,0.5,1.3,1.5l-0.1,0.2h-0.5l-0.2,1.6l-0.7-0.8C402.4,40.7,402.4,39.9,402.4,39.2L402.4,39.2L402.4,39.2z M416,22.9
			c0,1,0.2,1.5,0.5,1.5l-0.2,1.9h-0.2c-0.5,0-0.9-0.5-1.1-1.5c0.3,0,0.5-0.6,0.5-1.9H416L416,22.9z M432.4,25.5l0.2,0.4
			c0,1,0.2,1.5,0.5,1.5l0.5-0.8l0.3,0.8l0.5-0.8l0.4,0.8v0.4h-1v0.2h-1.6v0.4h-0.2l-0.1-0.2v-0.4c0.3-0.7,0.5-1.4,0.5-2.2H432.4
			L432.4,25.5z M380.5,49.1l0.2,0.4l0.2-0.4l0.3,2.6v0.4l-0.2,0.4c-0.5-0.5-0.9-1.4-1.1-2.6v-0.8H380.5L380.5,49.1z M429.8,25.1
			l0.8,1.5V27l-1.8-0.4h-0.1v-1.5H429.8L429.8,25.1z M380.2,43.1c-0.1,0.5-0.4,1-0.8,1.5l-0.4-0.7v-1.2l0.5-1.5L380.2,43.1
			L380.2,43.1z M437,23.7v1.9h-0.4c-0.2-1.2-0.5-1.9-0.8-1.9v-1.1C436.6,22.7,437,23.1,437,23.7L437,23.7L437,23.7z M429.2,59.9h0.2
			l0.5,0.8l-0.5,1.9l-0.6-0.4C428.7,61,428.9,60.2,429.2,59.9L429.2,59.9L429.2,59.9z M388.8,23.7l0.6,2.2v0.4l-0.2,0.4
			c-0.3-1-0.6-1.5-1.1-1.5v-1.5H388.8L388.8,23.7z M407.7,58.1l0.1-0.2L408,58l0.6,1.1h-0.4l0.4,1.8v0.3l-0.2-0.1
			c-0.2-0.5-0.4-1.2-0.8-1.9V58.1L407.7,58.1z M387.2,11.9l0.3,1.4l-0.2,0.3l0.2-0.1v0.8c-0.2,0-0.4,0.4-0.4,1.1H387l-0.1-0.4
			l0.1-1.1l-0.1-1.5v-0.4l0.1-0.4L387.2,11.9L387.2,11.9z M425.8,25.9c0.2,0,0.4,0.6,0.4,1.9v0.4h-0.5l-0.3-0.7v-1.2L425.8,25.9
			L425.8,25.9z M378.9,17.7l0.5,0.7c0,0.4-0.2,0.8-0.6,1.1l-0.5-1.1v-0.7H378.9L378.9,17.7z M390.7,7.9v0.8l0.3,0.8h0.2l0.4-1.5V7.2
			H391L390.7,7.9L390.7,7.9z M382.6,30.8h0.3l0.4,0.8v0.4l-0.4,0.8h-0.3l-0.4-0.8v-0.4L382.6,30.8L382.6,30.8z M424.2,6.8
			c0.2,0,0.4,0.5,0.5,1.5v0.4l-0.2,0.4l-0.6-0.4l0.2-1.9H424.2L424.2,6.8z M395.4,7.9v1.2l-0.9,0.9l-0.2,0.1V9.4l0.1-0.4
			c0.4,0,0.5-0.4,0.5-1.2H395.4L395.4,7.9z M433.9,60.7l0.4,1.9h-0.2l-0.2,0.4h-0.2l-0.3-0.8v-1.1L433.9,60.7L433.9,60.7z
			 M375.6,36.4h0.4v2.2h-0.2c-0.2,0-0.3-0.5-0.5-1.5L375.6,36.4L375.6,36.4z M425.2,9.8l0.2,1.2l-0.4,0.7c-0.2,0-0.3-0.5-0.5-1.5
			V9.8H425.2L425.2,9.8z M383.7,16.9l0.2,0.4c0,1,0.1,1.5,0.4,1.5v0.7h-0.4l-0.2-0.4c0-0.7-0.1-1.1-0.3-1.1v-1.1H383.7L383.7,16.9z
			 M428.6,66.3h0.3l0.4,0.8l-0.4,0.7h-0.6v-0.7L428.6,66.3L428.6,66.3z M378.8,56.2L379,57v0.4h-0.9v-1.1H378.8L378.8,56.2z
			 M426.8,6.1l0.3,0.7l-0.3,0.8h-0.5V6.4L426.8,6.1L426.8,6.1z M381.6,55.1l0.4,0.8l-0.5,1.1h-0.2l-0.2-1.1L381.6,55.1L381.6,55.1z
			 M425.8,12.8v3h-0.2l-0.2-2.6v-0.4H425.8L425.8,12.8z M376.3,49.1h0.5l0.1,0.4l-0.3,0.8h-0.5l-0.1-0.4L376.3,49.1L376.3,49.1z
			 M383.7,20.7v1.5h-0.6v-0.4C383.1,21.4,383.3,21,383.7,20.7L383.7,20.7L383.7,20.7z M423.2,21.4h0.2l0.3,0.8v0.4h-0.8v-0.4
			L423.2,21.4L423.2,21.4z M438.1,27l0.3,0.8v0.4c-0.4-0.1-0.7-0.1-1.1-0.1c0.1-0.1,0.3-0.2,0.5-0.3V27H438.1L438.1,27z M381.2,19.5
			l-0.2,2.6h-0.1v-2.6H381.2L381.2,19.5z M425.8,23.3l0.4,0.8v0.4h-0.5l-0.2-0.4L425.8,23.3L425.8,23.3z M385,59.9v0.8l-0.5-0.4
			l0.2-1.2L385,59.9L385,59.9z M402.4,48.9l0.4,0.6v0.3h-0.5l-0.2-0.3L402.4,48.9L402.4,48.9z M373.9,49.9V51h-0.4v-1.1H373.9
			L373.9,49.9z M436.3,25.9l0.2,0.4l-0.3,0.8H436v-1.1H436.3L436.3,25.9z M412.4,64.7c-0.4,0-0.5-0.2-0.5-0.6v-0.3l0.2-0.3h0.1
			C412.2,63.9,412.3,64.3,412.4,64.7L412.4,64.7L412.4,64.7z M432.8,11v0.7h-0.5V11H432.8L432.8,11z M384.4,64.5v0.8h-0.3l-0.4-0.8
			H384.4L384.4,64.5z M382.1,16.2v0.4l-0.4,0.8l-0.2-1.1H382.1L382.1,16.2z M429,27.8v0.2h-0.5v-0.5l0.2-0.4L429,27.8L429,27.8z
			 M412.8,51.2v-2.5h0.2L412.8,51.2L412.8,51.2z M385.4,31.1v1.2l-0.4-0.8v-0.4H385.4L385.4,31.1z M408.3,69.3l-0.2,0.1H408
			l-0.2-0.1c0.2-0.2,0.3-0.5,0.5-0.7h0.2l-0.2,0.4V69.3L408.3,69.3z M396.4,6.8L396,7.6h-0.2V6.8H396.4L396.4,6.8z M408.6,67.9h0.6
			v0.6C409,68.5,408.8,68.3,408.6,67.9L408.6,67.9L408.6,67.9z M399.6,29.6V30l-0.4,0.8v-1.1H399.6L399.6,29.6z M382.6,24.8l0.2,0.4
			l-0.4,0.8v-1.1H382.6L382.6,24.8z M428.2,19.2v0.8h-0.3v-0.8H428.2L428.2,19.2z M382.9,16.9V18l-0.3-0.8v-0.4H382.9L382.9,16.9z
			 M380.2,19.9l0.1,0.4L380,21v-1.1H380.2L380.2,19.9z M438.9,38.1v0.5h-0.5l0.2-0.5H438.9L438.9,38.1z M392.4,10.6l0.3-0.3h0.2v0.5
			h-0.1L392.4,10.6L392.4,10.6z M405.4,70.1h-0.2v-0.6l0.1-0.1h0.2V70.1L405.4,70.1z M378.8,21.4v0.4h-0.4v-0.4H378.8L378.8,21.4z
			 M434.1,60.4h-0.4v-0.8L434.1,60.4L434.1,60.4z M428.1,14.3v0.8h-0.2v-0.8H428.1L428.1,14.3z M388.1,22.1l-0.4,0.8v-0.8H388.1
			L388.1,22.1z M382.4,34.9v0.8h-0.2v-0.8H382.4L382.4,34.9z M395.4,6.8v0.8h-0.2V6.8H395.4L395.4,6.8z M410.7,72.7v0.2l-0.2,0.4
			l-0.1-0.2v-0.4H410.7L410.7,72.7z M431.5,10.2h0.1l-0.3-0.8h-0.2L431.5,10.2L431.5,10.2z M438.4,22.9v0.4h-0.3v-0.4H438.4
			L438.4,22.9z M383.6,18.8l-0.3,0.7v-0.7H383.6L383.6,18.8z M412.8,51.2l-0.1,0.6l-0.1-0.3L412.8,51.2L412.8,51.2z M400.6,9.3h-0.1
			V9.2L400.6,9.3L400.6,9.3z M524.8,10.2c-0.1-0.1-0.1-0.3-0.1-0.4l0.5-0.8l-1.3-2.5h-0.2l-0.2,0.3h-0.2l-0.4-0.6
			c-0.4,0.7-1.2,1.3-2.2,1.6h-0.2l0.1-0.3c0.4,0,0.9-0.9,1.4-2.9l-0.2-0.3l0.1-0.6l0.8,0.1l0.2,0.3l0.5-1.7l-0.6-0.1l-0.1,0.6
			l-0.4-0.1c-0.9-1.1-2-1.6-3.3-1.8l-1.8,0.2c0,0.8-0.2,1.2-0.5,1.1l-0.4-0.6l0.5-0.9l-2.1-0.5l-0.2,0.3h-0.2l-0.2-0.4
			c-0.5,0.1-0.8,0.4-0.8,0.8c-1.1-0.2-1.7-0.5-1.6-1l-3.1,0.3L507.1,0h-0.2l-1.8,0.4h-0.2l-0.1-0.3c0,0.4-0.4,0.5-1.1,0.5l-0.5-0.3
			l-1.8,1h-0.2L501,1l-2.9,0.4L498,1.9l1.3,0.7c0.3-0.8,0.5-1.2,0.7-1.2l0.4,0.1c-0.1,0.9,0.1,1.6,0.4,2.1l-0.1,0.6l-0.2,0.3
			l0.2,0.3c-1.4,0.3-2.2,0.6-2.2,1l-1.3-0.4h-0.4c-0.2,0.6-0.5,1-0.9,1.1l-1.3-0.4l0.1-1.5l0.5-0.6l-0.1-0.9V2.9l0.2-0.3l-0.2-0.3
			c-0.7-0.1-1.2,1.1-1.5,3.4h-0.6L493,5.3l0.3-1.5l-0.5-0.6c-4.1,2.4-7,5.4-8.8,9.1v0.3c0.6,0,1,0.4,1.1,1l-0.1,0.9
			c-0.6,0-1,0.1-1,0.5c-1.4-0.1-2.4,3-2.9,9.3l0.1,0.9l-0.1,1.5l0.5,0.4l0.1-0.3l0.5,0.4l0.6-0.2l-0.1-0.4c0.1-1.1,0.6-1.8,1.5-2.2
			l0.5,0.9l-0.3,1.5l-1.3-0.1l0.1,1.5l0.4,0.1l0.5-1.2l0.4,0.6l-0.1,0.3l-0.5,1.8l0.2,0.3l-0.1,1.5l0.6,0.1c0.1-1.4,0.4-2,0.9-2
			c0.5,0,0.7,1,0.5,3c0,0.4-0.3,0.6-1,0.5h-0.2c0-0.6-0.1-0.9-0.3-0.9c-0.8-0.1-1.2,0.7-1.3,2.3c1.1,2.5,2.1,3.7,2.9,3.8
			c1.5-1.5,2.6-2.2,3.3-2.1v-0.3l-1.1-2.5v-0.6l0.5-0.9l0.1-0.3h-0.2l-0.6,0.5l-0.4-0.1l-0.8-4.5h0.2l0.6-0.8l0.4,0.6l-0.1,1.8h0.2
			l1-0.8l1.9,4.6l0.9,0.1l0.2-0.3l-0.1,0.9l-0.5,0.6c0,0.7,0.1,1.5,0.4,2.4l-0.1,0.3l-0.4-0.1l-0.2-0.3c0,0.2-0.4,0.4-1.2,0.5
			c-1.2,1.5-2,2.2-2.5,2.2l-0.1,0.9l0.9,0.4h0.4l1.3-0.2c-0.1,1.5,1,2.6,3.4,3.3l0.8-0.2l0.8,0.4h0.2l1.1-0.8h0.2l0.2,0.3v0.3
			l-0.2,0.3c-0.4,0-0.6,0.1-0.6,0.5v0.3c3.7,1.3,7.7,2.3,12.2,3.1l0.2,0.1l0.2-0.3v0.3h0.2l1.2-2.3c0.2,0,0.4,0.7,0.4,2.1l0.4,0.1
			c0.1-1,0.3-1.5,0.5-1.5l0.4,0.1l-0.1,1.2l-0.2,0.3l1.1,0.6l0.2-0.2c3,1.2,4.4,2.8,4.2,4.8l-0.1,0.9l-0.2,0.3l0.2,0.3l-0.1,1.2
			l-0.2-0.3l-4,2c-2.9-0.5-5-1-6.2-1.7c-1.7-2.5-2.9-3.8-3.7-3.9l-21-1.8c-1.5-0.1-2.4,0.9-2.6,3l0.2,1.5c1.4,6,3.1,9.7,5.2,11.1
			l0.1-0.6h0.4c0.2,0,0.3,0.6,0.2,1.8c2.9,4.4,9.9,7.1,21.2,8l0.9,0.1c11.5-0.1,18-1.3,19.5-3.7l0.6-0.2l0.1,0.3l1.4-0.5l-0.5-1.2
			l1.1-1.1l0.2,0.1l-0.4,1.8h0.2c0.7,0.1,1.4-0.5,2.1-1.6v-0.3l-1.1-0.4l0.1-0.6l1.1-1.4h0.4c0.2,1.2,0.4,1.8,0.6,1.9h0.2l0.8-0.8
			c0.3-1.2,0.6-1.7,1.1-1.7l0.1-1.1l0.2,0.1l0.1-3l0.9,0.5c0.4,0,0.9-0.9,1.4-2.9c0-0.6-0.1-0.9-0.5-0.9l0.1-0.6l0.6,0.4
			c0.3,0,0.6-1.4,0.9-4.3l-0.2-2.7l0.1-0.3l0.2-0.3H538l-0.2-0.4l0.3-1.4l0.1-0.6l-0.5-0.9l-0.6-0.1c-0.1,1-0.3,1.4-0.5,1.4h-0.2
			c0.1-0.9-0.1-1.9-0.5-3l0.1-0.6l1.9,0.7l0.1-0.6c0.1-1.1-0.1-1.8-0.6-2.1l-0.5,1.2l-0.4-0.6l0.1-0.6c0-0.4,0.3-0.6,0.8-0.5v-0.3
			l-0.9-2.5c-0.6-2-2.6-4.3-6.2-7l-0.5-0.1c0.4,1.2,0.5,2.3,0.5,3.3l-0.1,1.2l0.4,0.1l1-0.8v0.3l0.2,0.4c-1.1,1.1-1.7,2.1-1.8,2.8
			c-0.1,0.1-0.2,0.1-0.3,0.2c-0.6-1.1-1.3-2.1-1.9-3l0.9,0.1l1-0.2l0.1-0.9c-0.5,0-0.7-0.4-0.6-1.2c-0.9-0.1-1.7-0.9-2.3-2.6
			l-1.2,1.1l-0.8-0.1c-0.3,0-0.4-0.4-0.3-1.2c0.1-1.5-2.3-2.7-7.2-3.6l-0.6,0.2l-6-2.3v0.3c-5.3-1.4-7.8-3-7.7-4.8l0.1-1.2
			c0.6-2.3,2.1-3.4,4.5-3.2l-0.6-1.2l1.3-0.3l0.1,1.2c2.3,0.6,3.7,1.1,4.1,1.5c2.5,2.6,4.3,3.9,5.4,4l0.8,0.1c0,0.5,0.2,0.7,0.5,0.8
			l9,0.8l1.2-0.1l0.7,0.3l0.6-0.1l0.2,0.1l1.6,0.1l0.4-0.2l0.6-0.1l0.7,0.4l2.3-0.4l0.2,0.1l0.2,0.3l1-0.5l0.8,0.4l0.6-0.8l0.1-0.3
			c-0.4-3.6-0.8-5.6-1.2-6h-0.2l-0.8,0.5v-0.6h-0.4l0.4,0.6c-0.1,0.8-0.3,1.2-0.7,1.1v0.3c0.5,1.2,0.7,2.4,0.6,3.3
			c0.4,0,0.6,0.2,0.5,0.6v0.3l-0.2-0.1c-0.4,0-1.3-1.8-2.5-5.2l-0.2-0.1c-0.6,1.2-1.1,2.2-1.5,3v-1.7l0.2-0.4l-0.1-0.8v-0.1l0.2-0.1
			v-0.1l-0.2-0.1l0.3-1.5l0.1-1.5l0.5-0.4l0.7,0.6l1.8-0.8v-0.6c-0.1-0.6-0.7-1.6-1.8-3.1l-0.8-0.1l0.2,1.8
			c-0.2,0.5-0.4,0.8-0.5,1.1L534,11l-0.4-0.4h-0.1l0.2-1c-1.8-2.9-3.5-4.5-5-4.6h-0.2l-0.1,0.3l0.3,0.9l-0.1,0.9l-0.6-0.1l0.2-2.1
			l-0.9-0.4l0.1,1.5l-0.3,1.1l0.1,1.2l-0.5,1.6l-0.6-0.1L524.8,10.2L524.8,10.2z M533.8,51.4c-0.1-0.5-0.2-0.9-0.3-1.3
			c0.9-0.5,1.4-1.2,1.5-2l0.4,0.1l1.4,1.6l-0.1,0.9l-1.4,2.6l-0.1,0.9l1.5,0.4l-0.1,0.6c0,0.4-0.3,0.6-0.6,0.5l-0.1,1.2l0.2,0.3
			l-1.7-1.2c-0.2-1.2-0.3-2.3-0.5-3.5l0.5-0.2l0.1-0.9h-0.4L533.8,51.4L533.8,51.4z M521.6,53.8l3,2.5c-0.3,3.2-1,4.8-2.1,4.7h-0.2
			l0.2-0.9c0-0.4-0.1-0.6-0.5-0.6l0.1-0.6l0.5-0.5l-0.4-2.1l0.2-0.3l0.1-0.9C522.1,54.8,521.8,54.3,521.6,53.8L521.6,53.8
			L521.6,53.8z M519.6,61.3l1.1,1.3l0.6-0.8h0.2l0.1,1.2l-1.5,2c-0.5,0-0.9-0.4-1.4-1.1C519,62.2,519.3,61.3,519.6,61.3L519.6,61.3
			L519.6,61.3z M524.8,61.5l0.3,0.6l-0.5,1.8l0.2,0.3l-0.1,0.6l-1.3,0.5l-0.4-2.4C523.3,61.9,523.9,61.4,524.8,61.5L524.8,61.5
			L524.8,61.5z M511.6,27.7l0.8-0.2l-0.1,1.5c-0.1,1.2-0.7,1.7-1.7,1.6c-0.4,0-0.6-0.3-0.5-0.6c0.4-0.7,0.7-1.3,0.8-2l-0.3-0.9
			L511.6,27.7L511.6,27.7z M533.3,49.1c-0.3-1.2-0.7-2.4-1.1-3.6l0.5-0.6h0.2l1.8,2.2C534.5,48.3,534.1,49,533.3,49.1L533.3,49.1
			L533.3,49.1z M519.3,13.9L519.3,13.9l0.4,0.3l0.2-0.4h0.1l-0.4,0.6c-0.1,0-0.2,0.2-0.2,0.4l-0.3,0.4l-3.8,1.5l-0.5-0.4l0.4-0.9
			C515.9,15.6,517.3,15.1,519.3,13.9L519.3,13.9L519.3,13.9z M500.8,39.8l-0.1,0.9l-1.1,1.1h-0.2l-0.9-0.4l-0.4,0.5v-0.3l1-2.3
			L500.8,39.8L500.8,39.8z M501.8,16.8l3-0.5c-0.9,0.9-1.6,1.3-2.1,1.2c-0.5,1.1-1.1,1.7-1.7,1.6l-0.4-0.6l0.5-0.5
			C501.5,18,501.8,17.6,501.8,16.8L501.8,16.8L501.8,16.8z M525.5,64.5l1,1.6c0,0.4-0.5,0.6-1.2,0.8l-0.4-2.2v-0.3L525.5,64.5
			L525.5,64.5z M519.1,16.2l-0.1,0.3l0.2-0.1l0.4,0.2v0.1l-0.6-0.1l0.1,0.9l-0.2,0.8l-0.6,0.8l-0.2-0.1l-0.2-0.3l0.4-1.5l0.1-0.9
			L519.1,16.2L519.1,16.2z M495.4,21.9v0.3l-0.2,0.2l-0.7-0.6l0.3-1.2l-0.1-1.2l0.1-0.3C495.1,19.2,495.3,20.1,495.4,21.9
			L495.4,21.9L495.4,21.9z M494.2,39h0.2c-0.1,1,0,1.5,0.3,1.5l-0.1,0.6l-0.2,0.3c-0.6-0.2-0.9-0.5-0.9-1l0.1-0.6L494.2,39L494.2,39
			z M531.3,61.8l1.6,1.3l0.8,0.5l-0.5-0.3l-1.6,0.2h-0.2l-0.2-0.4C531.4,62.7,531.4,62.2,531.3,61.8L531.3,61.8L531.3,61.8z
			 M486.7,16.1l0.6,0.1l0.4,0.6l-0.1,0.6l-1.3-0.1l0.1-0.6L486.7,16.1L486.7,16.1z M517.7,65.6l0.8,0.1l0.4,0.6l-0.1,0.3l-1.5-0.1
			l0.1-0.3L517.7,65.6L517.7,65.6z M490,24.7L490,25l-0.2-0.1c-0.6,0-1-0.4-1.1-0.9v-0.3C489.6,24,490.1,24.3,490,24.7L490,24.7
			L490,24.7z M532.3,65.7l-0.8-0.1L531,65l0.5-0.8L532.3,65.7L532.3,65.7z M486.7,23.2c0,0.6,0.1,0.9,0.3,0.9l-0.3,1.5h-0.2
			l-0.1-1.5l0.1-0.9H486.7L486.7,23.2z M524.9,20.4l0.6,0.2v0.2l-0.4-0.1l0.4,0.7v0.1l-1.3-0.3C524.4,21.2,524.7,21,524.9,20.4
			L524.9,20.4L524.9,20.4z M520.5,56.4l0.2,0.1l-0.3,1.2l-0.6-0.1l-0.2-0.4L520.5,56.4L520.5,56.4z M515.6,33.1l-0.3,0.9l-0.2-0.1
			l-0.4-0.6l0.1-0.9L515.6,33.1L515.6,33.1z M528.9,62.8l-0.1,0.9l-0.9-0.4l0.1-0.6L528.9,62.8L528.9,62.8z M531.3,43.1l-0.5-1.2
			c0.2-0.2,0.4-0.3,0.6-0.4l0.2,0.4C531.5,42.4,531.4,42.8,531.3,43.1L531.3,43.1L531.3,43.1z M535.1,13.9h-0.2l-0.2,0.3l-0.4-0.6
			l0.1-0.6l0.2-0.3C534.8,12.8,535,13.2,535.1,13.9L535.1,13.9L535.1,13.9z M481.6,31.1l0.3,0.9h0.2l0.2-0.3l-0.1-0.9l-0.6-0.1V31.1
			L481.6,31.1z M494.5,16.5l0.4,0.1l0.2,0.3l-0.5,0.5h-0.4l-0.2-0.3L494.5,16.5L494.5,16.5z M482.5,29.1l-0.1,0.9l0.6-0.8l0.1-0.9
			L482.5,29.1L482.5,29.1z M493,59.7l0.6,0.1l-0.6,0.8h-0.4l0.1-0.4L493,59.7L493,59.7z M496.5,62.1l0.1,0.9l-0.6-0.1l0.1-0.9H496.5
			L496.5,62.1z M519.6,11.4l0.1,0.2l0.1,0.1l-0.2,1.1l-0.4-0.8L519.6,11.4L519.6,11.4z M518.7,12.2l0.2,0.1v0.3l-0.5,0.5l-0.3-0.6
			L518.7,12.2L518.7,12.2z M522.9,7.6l0.2,0.1v0.6l-0.6,0.2h-0.2L522.9,7.6L522.9,7.6z M522,5.1l0.6,0.1l0.1-0.6l-0.6-0.1L522,5.1
			L522,5.1z M526,5.4l0.6,0.1l0.1-0.6l-0.6-0.1L526,5.4L526,5.4z M494.3,42l-0.1,0.9l-0.4-0.1l0.1-0.9L494.3,42L494.3,42z
			 M490.2,22.6l-0.1,0.9h-0.4l0.1-0.9H490.2L490.2,22.6z M524.9,5.1l-0.2,0.2L525,6h0.2V5.4l-0.1-0.3H524.9L524.9,5.1z M491.3,63.8
			V64l-0.2,0.2l-0.5-0.4v-0.3L491.3,63.8L491.3,63.8z M513.1,40l0.4,0.2l-0.5,1.2c0-0.2,0-0.5,0-0.8L513.1,40L513.1,40z M517.6,2.7
			l-0.1,0.6l-0.4-0.1V2.6L517.6,2.7L517.6,2.7z M519.7,52.4v0.3h-0.4l0.1-0.9L519.7,52.4L519.7,52.4z M492.7,4.5v0.3l-0.4,0.5
			l0.1-0.9L492.7,4.5L492.7,4.5z M491.5,20.4l-0.1,0.3l-0.6-0.1l0.1-0.3L491.5,20.4L491.5,20.4z M522,9.9l-0.6-0.1l0.6-0.5h0.2
			L522,9.6V9.9L522,9.9z M484.7,23.7v0.6h-0.2l0.1-0.6L484.7,23.7L484.7,23.7z M486.7,32.2v0.3l-0.4-0.1l0.1-0.3L486.7,32.2
			L486.7,32.2z M535,19.3l-0.1,0.6l-0.3-0.6H535L535,19.3z M524.1,18.4v0.3h-0.4v-0.1L524.1,18.4L524.1,18.4z M521.3,14.1
			c0.1,0.1,0.2,0.2,0.3,0.3l-0.2,0.2C521.4,14.5,521.3,14.3,521.3,14.1L521.3,14.1L521.3,14.1z M524.8,56.7l0.1-0.2l0.4,0.3h-0.1
			L524.8,56.7L524.8,56.7z M506.7,15.4l-0.2-0.3h0.2L506.7,15.4L506.7,15.4z M526.1,57.5l0.4,0.3C526.2,57.7,526.1,57.6,526.1,57.5
			L526.1,57.5L526.1,57.5z M519.1,16.5v0.1v0.1l-0.2-0.1L519.1,16.5L519.1,16.5z M523.5,21.2v-0.1l0.2-0.1
			C523.6,21.1,523.6,21.1,523.5,21.2L523.5,21.2L523.5,21.2z M522.6,9.9l0.3,0.1L522.6,9.9L522.6,9.9L522.6,9.9z M548.7,6.2
			c-1.5,0.6-2.2,2.2-2.3,4.8l0.4,4l-0.2,1.4c0,1.4,0.4,2.1,1.3,2.3l1.3-0.6l0.6,0.6h0.9l2,0.3l0.9-0.3l0.6,0.3l1.1-0.5l0.2,0.3
			l0.9-0.3c0.8,0.5,3,0.8,6.4,0.9l0.7-0.3v0.3c1.2,0,1.8-1.8,1.8-5.4V9.4c0-2.3-1.5-3.4-4.6-3.5h-3.1L548.7,6.2L548.7,6.2z
			 M546.2,12.7v0.6h-0.5v-0.6H546.2L546.2,12.7z M558.9,14.2l-0.3,1.2v0.3l0.3,0.2l-0.3,0.9l-0.8-0.3v-1.7l0.5-0.6H558.9L558.9,14.2
			z M550.8,14.5l1.3,0.3c-0.5,1.1-1,1.7-1.3,1.7l-0.5-0.9v-1.1H550.8L550.8,14.5z M547.2,17.3v0.3h-0.5v-0.3H547.2L547.2,17.3z
			 M550.6,17.3l1.3,0.3l-0.1,0.3l-0.8,0.3c-0.5,0-0.8-0.2-0.8-0.6v-0.3H550.6L550.6,17.3z M545.9,31l0.5,3.8c-0.3,0-0.4,0.6-0.5,1.8
			v1L545.7,67l0.2,2.1l-0.2,0.8V70l0.2,0.2l-0.2,0.3V72l0.2,1.5c0,1,5.8,1.5,17.5,1.5h0.8c1.6,0,2.3-3.9,2.3-11.8v-9.6
			c0-3.7-0.2-6.4-0.5-8.1l0.5-2.5l-0.2-1.5V30.8c0-1.7-2.1-2.5-6.4-2.5l-0.2,0.2v-0.2l-0.9,0.2l-2.2-0.2h-2.1l-0.2,0.2l-0.2-0.2
			h-0.5l-0.3,0.2v-0.2l-0.9,0.2l-2.6-0.2H548C546.8,28.2,546.1,29.2,545.9,31L545.9,31L545.9,31z M601.1,29.5h-0.5l-0.2-0.2v0.2
			c-0.7,0-1.4,0.3-2,0.8c0,0.7-0.2,1.1-0.5,1.1l-0.8-0.8l-1,0.3l-2.2-2.4h-2l-0.8,0.5h-0.2c-0.4-0.4-1.3-0.6-2.8-0.8l-1,0.2
			l-2.8-0.2H580l-1.8,0.2l-1-0.2H576c-1.3,0-2,0.9-2,2.6v6.8l0.5,1.6l-0.5,2.1l0.2,0.3l-0.2,1.5l0.5,1.9l-0.5,1.3l0.2,1.9l-0.5,9.7
			V61l-0.2,1.9l0.2,0.2l-0.2,0.3v8.7c0,2.6,0.7,3.9,2.2,3.9h15.8c1.7-0.2,2.5-0.7,2.5-1.6h-0.8v-0.5h0.3l0.2,0.3
			c0.3,0,0.6-1.2,1-3.5l-0.5-1.6l0.8-1.3v-1.1l-0.2-0.2h0.2l-0.2-1.3l0.2-4.5v-0.3l-0.2-0.2l0.2-0.3v-7.6c0-4.7,2.4-8,7.3-10
			c3-0.2,4.5-0.7,4.5-1.6h0.2c0.4,0,0.5,0.4,0.5,1.1c2.2,0,4.5,1.1,6.7,3.2c1.2,1.3,1.8,6.2,1.8,14.7l-0.5,1.1l0.3,1.6l-0.3,2.1
			l0.3,1.3l-0.3,2.1l0.3,6.6c0,1.1,2.8,1.6,8.5,1.6h0.2l0.2-0.3l0.3,0.3h6l1.8-0.3l1,0.3h0.5c1.8,0,2.9-3.1,3.3-9.4l-0.2-3.5
			L637,47.9c0-8.3-2.5-14-7.5-17.1c-5.3-2.8-9.5-4.2-12.7-4.2l-3.5,0.5l-0.8-0.5C607.9,26.6,604.1,27.6,601.1,29.5L601.1,29.5
			L601.1,29.5z M601.1,30.5v0.3l0.2-0.3c0.5,0.2,1.1,0.7,1.5,1.6v0.8c0,0.4-0.7,0.6-2.1,0.8l-0.7-0.8v-2.1L601.1,30.5L601.1,30.5z
			 M612.3,31.3l0.2-0.3l1.5,1.6v0.5h-0.5v-0.8c-1,0-1.5-0.4-1.5-1.1H612.3L612.3,31.3z M615.3,31.9v0.5l-1.5-0.8v-0.2l0.3-0.3
			C614.9,31.2,615.3,31.4,615.3,31.9L615.3,31.9L615.3,31.9z M607.8,31.3c0.5,0.5,1.1,0.8,1.5,0.8v0.5l-0.5,0.5h-0.2
			c-0.4-0.1-0.8-0.7-1.3-1.8H607.8L607.8,31.3z M612.8,33.7h0.3c0,0.7-0.3,1.4-0.8,2.1l-1-1.1v-0.5L612.8,33.7L612.8,33.7z
			 M602.5,35l0.3,0.3c-0.4,1.4-0.9,2.1-1.3,2.1l-0.5-0.5v-1.1C601.1,35.5,601.5,35.2,602.5,35L602.5,35L602.5,35z M610.3,35.5h0.5
			v0.3c0,0.4-0.3,0.5-0.8,0.5l-1.5,2.1h-0.8v-0.3C608.6,36.8,609.4,35.9,610.3,35.5L610.3,35.5L610.3,35.5z M604.3,37.6l0.5,0.8V39
			h-1l-0.5-0.5L604.3,37.6L604.3,37.6z M617.1,37.9l0.8,0.8V39h-1v-1.1H617.1L617.1,37.9z M587.8,38.1L588,39h-0.3l-0.2,0.2h-0.2
			l-0.2-0.2L587.8,38.1L587.8,38.1z M601.1,38.4V39l-0.5,0.5h-0.5v-1.1H601.1L601.1,38.4z M606.6,39.2V40l-0.8,0.2V40l-0.2-0.3v-0.5
			H606.6L606.6,39.2z M592,40.3v0.5h-0.2v-0.5H592L592,40.3z M600.1,41.1h0.2v0.5l-0.8,0.8v-0.8L600.1,41.1L600.1,41.1z M584.3,42.9
			l0.2,0.2l-0.5,0.5l-0.5-0.5v-0.2H584.3L584.3,42.9z M616.8,48.9h0.2v0.8l-0.2,0.2l-0.5-0.5L616.8,48.9L616.8,48.9z M585.3,59.5
			l1.2,1.5v0.3l-0.2,0.2l-1.5-0.2c-0.4-0.7-0.8-1.1-1.2-1.1v-0.5L585.3,59.5L585.3,59.5z M579.8,66.8l0.8-0.2h0.2l0.2,0.2l-0.5,1.3
			h-1.1l-1-0.5v-2.1l0.3-0.3L579.8,66.8L579.8,66.8z M591,65.2v0.5h-0.5v-0.5H591L591,65.2z M577.8,69.4V70h-0.5v-0.5H577.8
			L577.8,69.4z M633.6,69.7h0.2l0.5,0.5l-0.5,0.5h-0.2l-0.5-0.5L633.6,69.7L633.6,69.7z M628.3,70.7h0.5V71l-0.5,0.5h-0.5v-0.3
			L628.3,70.7L628.3,70.7z M632.1,74.2h0.5v0.5l-0.5,0.5h-0.5v-0.5L632.1,74.2L632.1,74.2z M672.4,29.5h-0.5l-0.2-0.2v0.2
			c-0.7,0-1.4,0.3-2,0.8c0,0.7-0.2,1.1-0.5,1.1l-0.8-0.8l-1,0.3l-2.2-2.4h-2l-0.8,0.5h-0.2c-0.4-0.4-1.3-0.6-2.8-0.8l-1,0.2
			l-2.8-0.2h-4.3l-1.8,0.2l-1-0.2h-1.2c-1.3,0-2,0.9-2,2.6v6.8l0.5,1.6l-0.5,2.1l0.2,0.3l-0.2,1.5l0.5,1.9l-0.5,1.3l0.2,1.9
			l-0.5,9.7V61l-0.2,1.9l0.2,0.2l-0.2,0.3v8.7c0,2.6,0.7,3.9,2.2,3.9h15.8c1.7-0.2,2.5-0.7,2.5-1.6h-0.8v-0.5h0.3l0.2,0.3
			c0.3,0,0.6-1.2,1-3.5l-0.5-1.6l0.8-1.3v-1.1l-0.2-0.2h0.2l-0.2-1.3l0.2-4.5v-0.3l-0.2-0.2l0.2-0.3v-7.6c0-4.7,2.4-8,7.3-10
			c3-0.2,4.5-0.7,4.5-1.6h0.2c0.4,0,0.5,0.4,0.5,1.1c2.2,0,4.5,1.1,6.7,3.2c1.2,1.3,1.8,6.2,1.8,14.7l-0.5,1.1l0.3,1.6l-0.3,2.1
			l0.3,1.3l-0.3,2.1l0.3,6.6c0,1.1,2.8,1.6,8.5,1.6h0.2l0.2-0.3l0.3,0.3h6l1.8-0.3l1,0.3h0.5c1.8,0,2.9-3.1,3.3-9.4l-0.2-3.5
			l-0.3-15.2c0-8.3-2.5-14-7.5-17.1c-5.3-2.8-9.5-4.2-12.7-4.2l-3.5,0.5l-0.8-0.5C679.3,26.6,675.5,27.6,672.4,29.5L672.4,29.5
			L672.4,29.5z M672.4,30.5v0.3l0.2-0.3c0.5,0.2,1.1,0.7,1.5,1.6v0.8c0,0.4-0.7,0.6-2,0.8l-0.7-0.8v-2.1L672.4,30.5L672.4,30.5z
			 M683.7,31.3l0.2-0.3l1.5,1.6v0.5h-0.5v-0.8c-1,0-1.5-0.4-1.5-1.1H683.7L683.7,31.3z M686.7,31.9v0.5l-1.5-0.8v-0.2l0.3-0.3
			C686.3,31.2,686.7,31.4,686.7,31.9L686.7,31.9L686.7,31.9z M679.2,31.3c0.5,0.5,1.1,0.8,1.5,0.8v0.5l-0.5,0.5h-0.2
			c-0.4-0.1-0.8-0.7-1.3-1.8H679.2L679.2,31.3z M684.1,33.7h0.3c0,0.7-0.3,1.4-0.8,2.1l-1-1.1v-0.5L684.1,33.7L684.1,33.7z
			 M673.9,35l0.3,0.3c-0.4,1.4-0.9,2.1-1.3,2.1l-0.5-0.5v-1.1C672.4,35.5,672.9,35.2,673.9,35L673.9,35L673.9,35z M681.7,35.5h0.5
			v0.3c0,0.4-0.3,0.5-0.8,0.5l-1.5,2.1h-0.8v-0.3C679.9,36.8,680.8,35.9,681.7,35.5L681.7,35.5L681.7,35.5z M675.6,37.6l0.5,0.8V39
			h-1l-0.5-0.5L675.6,37.6L675.6,37.6z M688.4,37.9l0.8,0.8V39h-1v-1.1H688.4L688.4,37.9z M659.1,38.1l0.3,0.8h-0.3l-0.2,0.2h-0.2
			l-0.2-0.2L659.1,38.1L659.1,38.1z M672.4,38.4V39l-0.5,0.5h-0.5v-1.1H672.4L672.4,38.4z M677.9,39.2V40l-0.8,0.2V40l-0.2-0.3v-0.5
			H677.9L677.9,39.2z M663.4,40.3v0.5h-0.2v-0.5H663.4L663.4,40.3z M671.4,41.1h0.2v0.5l-0.8,0.8v-0.8L671.4,41.1L671.4,41.1z
			 M655.7,42.9l0.2,0.2l-0.5,0.5l-0.5-0.5v-0.2H655.7L655.7,42.9z M688.2,48.9h0.2v0.8l-0.2,0.2l-0.5-0.5L688.2,48.9L688.2,48.9z
			 M656.7,59.5l1.2,1.5v0.3l-0.2,0.2l-1.5-0.2c-0.4-0.7-0.8-1.1-1.2-1.1v-0.5L656.7,59.5L656.7,59.5z M651.2,66.8l0.8-0.2h0.2
			l0.2,0.2l-0.5,1.3h-1.1l-1-0.5v-2.1l0.3-0.3L651.2,66.8L651.2,66.8z M662.4,65.2v0.5h-0.5v-0.5H662.4L662.4,65.2z M649.2,69.4V70
			h-0.5v-0.5H649.2L649.2,69.4z M704.9,69.7h0.2l0.5,0.5l-0.5,0.5h-0.2l-0.5-0.5L704.9,69.7L704.9,69.7z M699.7,70.7h0.5V71
			l-0.5,0.5h-0.5v-0.3L699.7,70.7L699.7,70.7z M703.4,74.2h0.5v0.5l-0.5,0.5h-0.5v-0.5L703.4,74.2L703.4,74.2z"/>
	</g>
</g>
</svg>
